<svg width="1216" height="717" viewBox="0 0 1216 717" fill="none" xmlns="http://www.w3.org/2000/svg">
<path d="M19 284.875C231.432 291.871 672.391 289.286 736.771 222.977C817.245 140.092 647.799 74.9925 540.334 108.787C432.868 142.582 352.893 256.772 494.348 402.978C635.803 549.185 1082.16 511.477 1102.65 358.156C1123.15 204.835 822.743 225.468 788.254 306.93C753.765 388.393 1087.66 481.951 1154.14 319.025C1207.32 188.685 1078.16 80.3285 1081.66 1" stroke="white" stroke-opacity="0.5" stroke-width="30"/>
<path d="M60.3652 123L645.624 155.116L632.713 484.842L807 619.73V639L213.135 606.884L41 469.855L42.0758 450.585L60.3652 123Z" fill="#FFF1CC"/>
<path d="M632.713 484.842L645.624 155.116L60.3652 123L42.0758 450.585M632.713 484.842L807 619.73M632.713 484.842C629.271 484.842 237.521 462.004 42.0758 450.585M807 619.73V639L213.135 606.884L41 469.855L42.0758 450.585M807 619.73L213.135 587.614L42.0758 450.585M71.1236 137.988L56.0618 435.598L619.803 469.855L632.713 167.963L71.1236 137.988Z" stroke="#2E2D2D" stroke-width="4"/>
<path d="M79 415.408L92.8571 159L370 176.325L354.411 431L79 415.408Z" fill="white" stroke="#2E2D2D" stroke-width="4"/>
<path d="M388 431.13L401.863 178L615 191.87L601.137 445L388 431.13Z" fill="#FFD2E9" stroke="#2E2D2D" stroke-width="4"/>
<path d="M107 258.133L110.457 194L349 209.6L345.543 272L107 258.133Z" fill="#BE5AED" stroke="#2E2D2D" stroke-width="4"/>
<path d="M103 343.133L106.471 279L346 294.6L342.529 357L103 343.133Z" fill="#BE5AED" stroke="#2E2D2D" stroke-width="4"/>
<path d="M109 257.783C109 255 125.053 233.435 133.08 223M139.96 240.391L126.2 257.783L148.56 259.522M148.56 259.522L172.64 226.478M148.56 259.522L167.48 261.261M167.48 261.261L177.8 243.87M167.48 261.261L189.84 263L195 254.304" stroke="#2E2D2D" stroke-width="4"/>
<path d="M105 342.783C105 340 121.24 318.435 129.36 308M136.32 325.391L122.4 342.783L145.02 344.522M145.02 344.522L169.38 311.478M145.02 344.522L164.16 346.261M164.16 346.261L174.6 328.87M164.16 346.261L186.78 348L192 339.304" stroke="#2E2D2D" stroke-width="4"/>
<path d="M573 292.5C573 331.423 541.225 363 502 363C462.775 363 431 331.423 431 292.5C431 253.577 462.775 222 502 222C541.225 222 573 253.577 573 292.5Z" fill="#7A6FFF" stroke="#2E2D2D" stroke-width="4"/>
<path d="M507 276.839C507 276.839 531.447 252.558 547.111 237L552.343 242.196M552.343 242.196L533.159 262.982M552.343 242.196L557.574 249.125M557.574 249.125L545.367 262.982M557.574 249.125C567.457 260.673 582.687 292.082 564.55 325.339M564.55 325.339L550.599 316.679M564.55 325.339L559.318 334L550.599 328.804" stroke="#2E2D2D" stroke-width="4"/>
<path d="M190 473L243.242 476.182L293.887 479.209L348.428 482.468L399.073 485.495L444.524 488.211L491.273 491.005L535.425 493.644L571.786 495.817L587.369 509.033L619.185 536.017L651 563L604.207 559.538L551.008 557.356L510.752 555.084L461.406 552.299L414.656 549.66L360.115 546.581L315.963 544.089L269.214 541.451L240.025 516.228L210.836 491.005L190 473Z" fill="white"/>
<path d="M243.242 476.182L190 473L210.836 491.005M243.242 476.182L315.963 544.089M243.242 476.182L293.887 479.209M315.963 544.089L269.214 541.451L240.025 516.228M315.963 544.089L360.115 546.581M360.115 546.581L293.887 479.209M360.115 546.581L414.656 549.66M293.887 479.209L348.428 482.468M348.428 482.468L414.656 549.66M348.428 482.468L399.073 485.495M414.656 549.66L461.406 552.299M461.406 552.299L399.073 485.495M461.406 552.299L510.752 555.084M399.073 485.495L444.524 488.211M444.524 488.211L510.752 555.084M444.524 488.211L491.273 491.005M510.752 555.084L551.008 557.356M551.008 557.356L491.273 491.005M551.008 557.356L604.207 559.538M491.273 491.005L535.425 493.644M604.207 559.538L651 563L619.185 536.017M604.207 559.538C579.944 533.969 562.613 518 535.425 493.644M535.425 493.644L571.786 495.817L587.369 509.033M210.836 491.005C213.279 493.116 462.876 503.903 587.369 509.033M210.836 491.005L240.025 516.228M587.369 509.033L619.185 536.017M619.185 536.017L240.025 516.228" stroke="#2E2D2D" stroke-width="4"/>
<path d="M850.161 198.239L857.762 195.439L869.857 228.283L862.257 231.082L850.161 198.239ZM847.336 236.577L839.735 239.376L827.64 206.533L835.24 203.733L847.336 236.577ZM857.86 217.409L841.814 223.318L839.447 216.891L855.493 210.981L857.86 217.409ZM884.431 222.915L874.616 196.265L864.107 200.136L861.826 193.943L890.446 183.402L892.727 189.595L882.217 193.466L892.032 220.116L884.431 222.915ZM906.632 214.739L894.536 181.896L900.823 179.58L923.341 197.609L920.01 198.836L925.221 170.595L931.461 168.297L943.651 201.105L936.519 203.732L928.403 181.838L929.717 181.354L925.528 203.837L922.103 205.098L904.099 190.789L905.694 190.201L913.764 212.113L906.632 214.739ZM951.443 198.236L939.348 165.392L946.948 162.593L956.763 189.243L973.232 183.178L975.513 189.371L951.443 198.236Z" fill="white"/>
<path d="M790.881 464.013C788.59 461.722 786.823 459.219 785.578 456.503C784.39 453.788 783.768 451.016 783.711 448.188C783.655 445.359 784.15 442.602 785.196 439.915C786.271 437.256 787.926 434.809 790.16 432.575C792.395 430.34 794.841 428.686 797.5 427.611C800.187 426.565 802.945 426.07 805.773 426.126C808.63 426.211 811.402 426.862 814.089 428.078C816.804 429.266 819.321 431.019 821.64 433.339C824.214 435.912 826.081 438.684 827.241 441.654C828.457 444.624 828.91 447.679 828.598 450.818L820.113 450.479C820.255 448.301 819.986 446.307 819.307 444.497C818.657 442.658 817.596 441.004 816.125 439.533C814.739 438.147 813.24 437.1 811.628 436.393C810.016 435.686 808.361 435.333 806.664 435.333C804.967 435.333 803.298 435.672 801.658 436.351C800.045 437.058 798.532 438.119 797.118 439.533C795.704 440.947 794.643 442.46 793.936 444.072C793.257 445.713 792.918 447.382 792.918 449.079C792.918 450.776 793.271 452.43 793.978 454.043C794.686 455.655 795.732 457.154 797.118 458.54C798.589 460.011 800.229 461.085 802.039 461.764C803.878 462.415 805.9 462.655 808.106 462.486L808.446 470.971C805.306 471.282 802.237 470.844 799.239 469.656C796.27 468.496 793.484 466.615 790.881 464.013ZM817.376 490.508C815 488.132 813.035 485.544 811.479 482.744C809.952 479.915 809.032 477.327 808.721 474.98L816.231 472.137C816.598 474.315 817.348 476.564 818.479 478.883C819.667 481.202 821.152 483.253 822.934 485.035C824.292 486.393 825.508 487.354 826.583 487.92C827.714 488.486 828.718 488.726 829.595 488.641C830.472 488.556 831.221 488.203 831.844 487.58C832.636 486.788 832.947 485.855 832.777 484.78C832.636 483.677 832.197 482.475 831.462 481.174C830.755 479.845 829.906 478.43 828.916 476.931C827.983 475.432 827.092 473.863 826.243 472.222C825.423 470.61 824.815 468.984 824.419 467.343C824.023 465.703 824.009 464.048 824.377 462.379C824.773 460.739 825.763 459.126 827.347 457.543C829.044 455.845 831.038 454.757 833.329 454.276C835.676 453.795 838.179 454.064 840.838 455.082C843.553 456.1 846.311 458.009 849.111 460.809C850.978 462.676 852.59 464.741 853.948 467.004C855.334 469.238 856.281 471.487 856.79 473.749L849.451 476.847C848.857 474.669 848.051 472.703 847.032 470.949C846.042 469.167 844.883 467.612 843.553 466.282C842.224 464.953 840.98 464.02 839.82 463.482C838.66 462.945 837.642 462.747 836.765 462.888C835.917 463.001 835.167 463.383 834.517 464.034C833.753 464.797 833.442 465.731 833.583 466.834C833.753 467.909 834.205 469.097 834.941 470.398C835.676 471.699 836.511 473.099 837.444 474.598C838.406 476.125 839.311 477.681 840.159 479.265C841.036 480.877 841.672 482.503 842.068 484.144C842.464 485.784 842.464 487.425 842.068 489.065C841.701 490.734 840.739 492.346 839.183 493.902C837.515 495.571 835.521 496.631 833.201 497.084C830.882 497.537 828.365 497.254 825.649 496.235C822.962 495.245 820.205 493.336 817.376 490.508ZM844.431 517.563C842.056 515.187 840.09 512.599 838.534 509.799C837.007 506.971 836.088 504.383 835.776 502.035L843.286 499.192C843.654 501.37 844.403 503.619 845.535 505.938C846.722 508.257 848.207 510.308 849.989 512.09C851.347 513.448 852.563 514.409 853.638 514.975C854.769 515.541 855.773 515.781 856.65 515.696C857.527 515.611 858.277 515.258 858.899 514.636C859.691 513.844 860.002 512.91 859.832 511.835C859.691 510.732 859.252 509.53 858.517 508.229C857.81 506.9 856.961 505.486 855.971 503.987C855.038 502.487 854.147 500.918 853.299 499.277C852.478 497.665 851.87 496.039 851.474 494.398C851.078 492.758 851.064 491.103 851.432 489.434C851.828 487.794 852.818 486.182 854.402 484.598C856.099 482.901 858.093 481.812 860.384 481.331C862.731 480.85 865.235 481.119 867.893 482.137C870.609 483.155 873.366 485.064 876.166 487.865C878.033 489.731 879.645 491.796 881.003 494.059C882.389 496.293 883.336 498.542 883.846 500.805L876.506 503.902C875.912 501.724 875.106 499.758 874.087 498.004C873.098 496.223 871.938 494.667 870.609 493.338C869.279 492.008 868.035 491.075 866.875 490.537C865.715 490 864.697 489.802 863.82 489.943C862.972 490.057 862.222 490.438 861.572 491.089C860.808 491.853 860.497 492.786 860.638 493.889C860.808 494.964 861.261 496.152 861.996 497.453C862.731 498.754 863.566 500.154 864.499 501.653C865.461 503.18 866.366 504.736 867.214 506.32C868.091 507.932 868.728 509.559 869.124 511.199C869.52 512.84 869.52 514.48 869.124 516.12C868.756 517.789 867.794 519.401 866.239 520.957C864.57 522.626 862.576 523.687 860.256 524.139C857.937 524.592 855.42 524.309 852.705 523.291C850.018 522.301 847.26 520.391 844.431 517.563Z" fill="white"/>
<path d="M902.72 373.72C899.88 373.72 897.26 373.2 894.86 372.16C892.5 371.08 890.56 369.56 889.04 367.6L894.44 361.12C895.6 362.64 896.82 363.8 898.1 364.6C899.38 365.36 900.76 365.74 902.24 365.74C906.2 365.74 908.18 363.42 908.18 358.78V338.8H893.42V331H917.84V358.24C917.84 363.44 916.56 367.32 914 369.88C911.44 372.44 907.68 373.72 902.72 373.72ZM946.581 373V366.7L945.981 365.32V354.04C945.981 352.04 945.361 350.48 944.121 349.36C942.921 348.24 941.061 347.68 938.541 347.68C936.821 347.68 935.121 347.96 933.441 348.52C931.801 349.04 930.401 349.76 929.241 350.68L925.881 344.14C927.641 342.9 929.761 341.94 932.241 341.26C934.721 340.58 937.241 340.24 939.801 340.24C944.721 340.24 948.541 341.4 951.261 343.72C953.981 346.04 955.341 349.66 955.341 354.58V373H946.581ZM936.741 373.48C934.221 373.48 932.061 373.06 930.261 372.22C928.461 371.34 927.081 370.16 926.121 368.68C925.161 367.2 924.681 365.54 924.681 363.7C924.681 361.78 925.141 360.1 926.061 358.66C927.021 357.22 928.521 356.1 930.561 355.3C932.601 354.46 935.261 354.04 938.541 354.04H947.121V359.5H939.561C937.361 359.5 935.841 359.86 935.001 360.58C934.201 361.3 933.801 362.2 933.801 363.28C933.801 364.48 934.261 365.44 935.181 366.16C936.141 366.84 937.441 367.18 939.081 367.18C940.641 367.18 942.041 366.82 943.281 366.1C944.521 365.34 945.421 364.24 945.981 362.8L947.421 367.12C946.741 369.2 945.501 370.78 943.701 371.86C941.901 372.94 939.581 373.48 936.741 373.48ZM971.986 373L958.426 340.72H968.086L979.366 368.5H974.566L986.266 340.72H995.266L981.646 373H971.986ZM1017.83 373V366.7L1017.23 365.32V354.04C1017.23 352.04 1016.61 350.48 1015.37 349.36C1014.17 348.24 1012.31 347.68 1009.79 347.68C1008.07 347.68 1006.37 347.96 1004.69 348.52C1003.05 349.04 1001.65 349.76 1000.49 350.68L997.131 344.14C998.891 342.9 1001.01 341.94 1003.49 341.26C1005.97 340.58 1008.49 340.24 1011.05 340.24C1015.97 340.24 1019.79 341.4 1022.51 343.72C1025.23 346.04 1026.59 349.66 1026.59 354.58V373H1017.83ZM1007.99 373.48C1005.47 373.48 1003.31 373.06 1001.51 372.22C999.711 371.34 998.331 370.16 997.371 368.68C996.411 367.2 995.931 365.54 995.931 363.7C995.931 361.78 996.391 360.1 997.311 358.66C998.271 357.22 999.771 356.1 1001.81 355.3C1003.85 354.46 1006.51 354.04 1009.79 354.04H1018.37V359.5H1010.81C1008.61 359.5 1007.09 359.86 1006.25 360.58C1005.45 361.3 1005.05 362.2 1005.05 363.28C1005.05 364.48 1005.51 365.44 1006.43 366.16C1007.39 366.84 1008.69 367.18 1010.33 367.18C1011.89 367.18 1013.29 366.82 1014.53 366.1C1015.77 365.34 1016.67 364.24 1017.23 362.8L1018.67 367.12C1017.99 369.2 1016.75 370.78 1014.95 371.86C1013.15 372.94 1010.83 373.48 1007.99 373.48ZM1049.52 373.72C1046.16 373.72 1042.94 373.28 1039.86 372.4C1036.78 371.48 1034.3 370.3 1032.42 368.86L1035.72 361.54C1037.52 362.82 1039.64 363.88 1042.08 364.72C1044.56 365.52 1047.06 365.92 1049.58 365.92C1051.5 365.92 1053.04 365.74 1054.2 365.38C1055.4 364.98 1056.28 364.44 1056.84 363.76C1057.4 363.08 1057.68 362.3 1057.68 361.42C1057.68 360.3 1057.24 359.42 1056.36 358.78C1055.48 358.1 1054.32 357.56 1052.88 357.16C1051.44 356.72 1049.84 356.32 1048.08 355.96C1046.36 355.56 1044.62 355.08 1042.86 354.52C1041.14 353.96 1039.56 353.24 1038.12 352.36C1036.68 351.48 1035.5 350.32 1034.58 348.88C1033.7 347.44 1033.26 345.6 1033.26 343.36C1033.26 340.96 1033.9 338.78 1035.18 336.82C1036.5 334.82 1038.46 333.24 1041.06 332.08C1043.7 330.88 1047 330.28 1050.96 330.28C1053.6 330.28 1056.2 330.6 1058.76 331.24C1061.32 331.84 1063.58 332.76 1065.54 334L1062.54 341.38C1060.58 340.26 1058.62 339.44 1056.66 338.92C1054.7 338.36 1052.78 338.08 1050.9 338.08C1049.02 338.08 1047.48 338.3 1046.28 338.74C1045.08 339.18 1044.22 339.76 1043.7 340.48C1043.18 341.16 1042.92 341.96 1042.92 342.88C1042.92 343.96 1043.36 344.84 1044.24 345.52C1045.12 346.16 1046.28 346.68 1047.72 347.08C1049.16 347.48 1050.74 347.88 1052.46 348.28C1054.22 348.68 1055.96 349.14 1057.68 349.66C1059.44 350.18 1061.04 350.88 1062.48 351.76C1063.92 352.64 1065.08 353.8 1065.96 355.24C1066.88 356.68 1067.34 358.5 1067.34 360.7C1067.34 363.06 1066.68 365.22 1065.36 367.18C1064.04 369.14 1062.06 370.72 1059.42 371.92C1056.82 373.12 1053.52 373.72 1049.52 373.72ZM1088.92 373.48C1085.44 373.48 1082.34 372.78 1079.62 371.38C1076.9 369.94 1074.76 367.96 1073.2 365.44C1071.68 362.92 1070.92 360.06 1070.92 356.86C1070.92 353.62 1071.68 350.76 1073.2 348.28C1074.76 345.76 1076.9 343.8 1079.62 342.4C1082.34 340.96 1085.44 340.24 1088.92 340.24C1092.32 340.24 1095.28 340.96 1097.8 342.4C1100.32 343.8 1102.18 345.82 1103.38 348.46L1096.12 352.36C1095.28 350.84 1094.22 349.72 1092.94 349C1091.7 348.28 1090.34 347.92 1088.86 347.92C1087.26 347.92 1085.82 348.28 1084.54 349C1083.26 349.72 1082.24 350.74 1081.48 352.06C1080.76 353.38 1080.4 354.98 1080.4 356.86C1080.4 358.74 1080.76 360.34 1081.48 361.66C1082.24 362.98 1083.26 364 1084.54 364.72C1085.82 365.44 1087.26 365.8 1088.86 365.8C1090.34 365.8 1091.7 365.46 1092.94 364.78C1094.22 364.06 1095.28 362.92 1096.12 361.36L1103.38 365.32C1102.18 367.92 1100.32 369.94 1097.8 371.38C1095.28 372.78 1092.32 373.48 1088.92 373.48ZM1108.77 373V340.72H1117.71V349.84L1116.45 347.2C1117.41 344.92 1118.95 343.2 1121.07 342.04C1123.19 340.84 1125.77 340.24 1128.81 340.24V348.88C1128.41 348.84 1128.05 348.82 1127.73 348.82C1127.41 348.78 1127.07 348.76 1126.71 348.76C1124.15 348.76 1122.07 349.5 1120.47 350.98C1118.91 352.42 1118.13 354.68 1118.13 357.76V373H1108.77ZM1134.44 373V340.72H1143.8V373H1134.44ZM1139.12 336.22C1137.4 336.22 1136 335.72 1134.92 334.72C1133.84 333.72 1133.3 332.48 1133.3 331C1133.3 329.52 1133.84 328.28 1134.92 327.28C1136 326.28 1137.4 325.78 1139.12 325.78C1140.84 325.78 1142.24 326.26 1143.32 327.22C1144.4 328.14 1144.94 329.34 1144.94 330.82C1144.94 332.38 1144.4 333.68 1143.32 334.72C1142.28 335.72 1140.88 336.22 1139.12 336.22ZM1171.56 373.48C1168.84 373.48 1166.46 372.88 1164.42 371.68C1162.38 370.48 1160.78 368.66 1159.62 366.22C1158.5 363.74 1157.94 360.62 1157.94 356.86C1157.94 353.06 1158.48 349.94 1159.56 347.5C1160.64 345.06 1162.2 343.24 1164.24 342.04C1166.28 340.84 1168.72 340.24 1171.56 340.24C1174.6 340.24 1177.32 340.94 1179.72 342.34C1182.16 343.7 1184.08 345.62 1185.48 348.1C1186.92 350.58 1187.64 353.5 1187.64 356.86C1187.64 360.26 1186.92 363.2 1185.48 365.68C1184.08 368.16 1182.16 370.08 1179.72 371.44C1177.32 372.8 1174.6 373.48 1171.56 373.48ZM1152.48 384.64V340.72H1161.42V347.32L1161.24 356.92L1161.84 366.46V384.64H1152.48ZM1169.94 365.8C1171.5 365.8 1172.88 365.44 1174.08 364.72C1175.32 364 1176.3 362.98 1177.02 361.66C1177.78 360.3 1178.16 358.7 1178.16 356.86C1178.16 354.98 1177.78 353.38 1177.02 352.06C1176.3 350.74 1175.32 349.72 1174.08 349C1172.88 348.28 1171.5 347.92 1169.94 347.92C1168.38 347.92 1166.98 348.28 1165.74 349C1164.5 349.72 1163.52 350.74 1162.8 352.06C1162.08 353.38 1161.72 354.98 1161.72 356.86C1161.72 358.7 1162.08 360.3 1162.8 361.66C1163.52 362.98 1164.5 364 1165.74 364.72C1166.98 365.44 1168.38 365.8 1169.94 365.8ZM1207.11 373.48C1203.31 373.48 1200.35 372.52 1198.23 370.6C1196.11 368.64 1195.05 365.74 1195.05 361.9V333.58H1204.41V361.78C1204.41 363.14 1204.77 364.2 1205.49 364.96C1206.21 365.68 1207.19 366.04 1208.43 366.04C1209.91 366.04 1211.17 365.64 1212.21 364.84L1214.73 371.44C1213.77 372.12 1212.61 372.64 1211.25 373C1209.93 373.32 1208.55 373.48 1207.11 373.48ZM1190.07 348.64V341.44H1212.45V348.64H1190.07Z" fill="white"/>
<path d="M838 647L942 692.5M731 665.5L741 716M809.5 560H918.5" stroke="white" stroke-width="10"/>
<path d="M636.5 94L713 169M713 94L652 149" stroke="white" stroke-width="10"/>
<rect x="3.35941" y="576.668" width="107" height="107" transform="rotate(-26.8388 3.35941 576.668)" fill="white" stroke="black" stroke-width="5"/>
<rect x="93.5339" y="626.432" width="107" height="107" transform="rotate(-46.721 93.5339 626.432)" fill="white" stroke="black" stroke-width="5"/>
<mask id="path-21-inside-1_526_130" fill="white">
<path d="M175.937 117.915C180.61 103.941 181.035 88.895 177.158 74.6796C173.281 60.4642 165.275 47.7178 154.153 38.0522C143.032 28.3867 129.294 22.2361 114.677 20.3783C100.06 18.5206 85.22 21.039 72.0341 27.6151C58.8483 34.1912 47.9086 44.5297 40.5985 57.3232C33.2884 70.1168 29.9362 84.7907 30.9657 99.4894C31.9953 114.188 37.3604 128.251 46.3826 139.901C55.4048 151.55 67.6789 160.263 81.6527 164.937L92.7746 131.684C85.3776 129.21 78.8803 124.598 74.1044 118.431C69.3285 112.265 66.4885 104.82 65.9435 97.0394C65.3985 89.2586 67.173 81.491 71.0426 74.7187C74.9122 67.9465 80.7031 62.4738 87.683 58.9927C94.6629 55.5117 102.518 54.1785 110.256 55.162C117.994 56.1454 125.266 59.4012 131.153 64.5176C137.04 69.6341 141.278 76.3814 143.33 83.9063C145.383 91.4312 145.158 99.3958 142.684 106.793L175.937 117.915Z"/>
</mask>
<path d="M175.937 117.915C180.61 103.941 181.035 88.895 177.158 74.6796C173.281 60.4642 165.275 47.7178 154.153 38.0522C143.032 28.3867 129.294 22.2361 114.677 20.3783C100.06 18.5206 85.22 21.039 72.0341 27.6151C58.8483 34.1912 47.9086 44.5297 40.5985 57.3232C33.2884 70.1168 29.9362 84.7907 30.9657 99.4894C31.9953 114.188 37.3604 128.251 46.3826 139.901C55.4048 151.55 67.6789 160.263 81.6527 164.937L92.7746 131.684C85.3776 129.21 78.8803 124.598 74.1044 118.431C69.3285 112.265 66.4885 104.82 65.9435 97.0394C65.3985 89.2586 67.173 81.491 71.0426 74.7187C74.9122 67.9465 80.7031 62.4738 87.683 58.9927C94.6629 55.5117 102.518 54.1785 110.256 55.162C117.994 56.1454 125.266 59.4012 131.153 64.5176C137.04 69.6341 141.278 76.3814 143.33 83.9063C145.383 91.4312 145.158 99.3958 142.684 106.793L175.937 117.915Z" fill="white" stroke="black" stroke-width="10" mask="url(#path-21-inside-1_526_130)"/>
</svg>
