<svg width="1267" height="728" viewBox="0 0 1267 728" fill="none" xmlns="http://www.w3.org/2000/svg">
<path d="M16 155.153L221.583 18L96.5326 304.409L401.656 128.016L265.601 472L711.281 92.4443L547.215 448.163L974.888 326.412L1099.44 458.431L1039.41 211.262H1252" stroke="white" stroke-opacity="0.5" stroke-width="30" stroke-linecap="round" stroke-linejoin="round"/>
<mask id="path-2-inside-1_526_131" fill="white">
<path fill-rule="evenodd" clip-rule="evenodd" d="M368.26 147.626L458.064 179.487L547.868 211.349L573.02 204.807C597.711 216.416 648.313 247.23 653.19 277.612C656.717 299.587 653.11 339.745 650.11 373.154L650.11 373.156C647.925 397.482 646.062 418.23 647.508 425.774C647.717 426.865 648.047 428.403 648.463 430.346C654.876 460.301 681.833 586.207 604.227 641.995C548.322 682.182 531.37 622.57 516.781 571.27L516.781 571.269C509.805 546.738 503.37 524.107 493.474 515.198C487.444 509.771 478.416 503.919 467.726 498.007C454.917 504.563 439.54 506.035 424.908 500.844C407.249 494.579 394.863 480.092 390.525 463.213C379.33 458.871 369.182 455.165 361.235 452.409C350.833 448.635 336.439 443.737 320.541 438.816C306.303 450.865 286.219 455.233 267.373 448.546C252.452 443.253 241.296 432.09 235.579 418.574C229.334 417.864 223.721 417.574 218.992 417.816C205.694 418.496 186.434 432.01 165.557 446.66C121.899 477.295 71.1673 512.893 53.0908 446.459C27.9974 354.235 128.278 273.471 152.137 254.256C153.684 253.01 154.909 252.023 155.759 251.308C161.636 246.362 173.266 229.079 186.902 208.814L186.902 208.814C205.628 180.984 228.138 147.533 244.726 132.694C267.66 112.179 326.368 120.147 352.855 126.695L368.26 147.626Z"/>
</mask>
<path fill-rule="evenodd" clip-rule="evenodd" d="M368.26 147.626L458.064 179.487L547.868 211.349L573.02 204.807C597.711 216.416 648.313 247.23 653.19 277.612C656.717 299.587 653.11 339.745 650.11 373.154L650.11 373.156C647.925 397.482 646.062 418.23 647.508 425.774C647.717 426.865 648.047 428.403 648.463 430.346C654.876 460.301 681.833 586.207 604.227 641.995C548.322 682.182 531.37 622.57 516.781 571.27L516.781 571.269C509.805 546.738 503.37 524.107 493.474 515.198C487.444 509.771 478.416 503.919 467.726 498.007C454.917 504.563 439.54 506.035 424.908 500.844C407.249 494.579 394.863 480.092 390.525 463.213C379.33 458.871 369.182 455.165 361.235 452.409C350.833 448.635 336.439 443.737 320.541 438.816C306.303 450.865 286.219 455.233 267.373 448.546C252.452 443.253 241.296 432.09 235.579 418.574C229.334 417.864 223.721 417.574 218.992 417.816C205.694 418.496 186.434 432.01 165.557 446.66C121.899 477.295 71.1673 512.893 53.0908 446.459C27.9974 354.235 128.278 273.471 152.137 254.256C153.684 253.01 154.909 252.023 155.759 251.308C161.636 246.362 173.266 229.079 186.902 208.814L186.902 208.814C205.628 180.984 228.138 147.533 244.726 132.694C267.66 112.179 326.368 120.147 352.855 126.695L368.26 147.626Z" fill="#FFB6B9"/>
<path d="M458.064 179.487L456.726 183.257L458.064 179.487ZM368.26 147.626L365.038 149.997L365.766 150.985L366.922 151.396L368.26 147.626ZM547.868 211.349L546.53 215.118L547.687 215.529L548.875 215.22L547.868 211.349ZM573.02 204.807L574.722 201.187L573.413 200.571L572.013 200.935L573.02 204.807ZM653.19 277.612L657.139 276.978L657.139 276.978L653.19 277.612ZM650.11 373.154L646.126 372.796L646.126 372.801L650.11 373.154ZM650.11 373.156L654.094 373.513L654.094 373.509L650.11 373.156ZM647.508 425.774L643.58 426.527L643.58 426.528L647.508 425.774ZM648.463 430.346L652.374 429.508L652.374 429.508L648.463 430.346ZM604.227 641.995L601.892 638.747L601.892 638.747L604.227 641.995ZM516.781 571.27L512.903 572.248L512.918 572.306L512.934 572.364L516.781 571.27ZM516.781 571.269L520.66 570.291L520.645 570.233L520.629 570.175L516.781 571.269ZM493.474 515.198L490.797 518.171L490.797 518.171L493.474 515.198ZM467.726 498.007L469.662 494.507L467.799 493.476L465.904 494.446L467.726 498.007ZM390.525 463.213L394.4 462.218L393.888 460.227L391.972 459.484L390.525 463.213ZM361.235 452.409L359.87 456.169L359.897 456.179L359.924 456.188L361.235 452.409ZM320.541 438.816L321.724 434.995L319.63 434.347L317.957 435.763L320.541 438.816ZM235.579 418.574L239.263 417.016L238.352 414.864L236.031 414.6L235.579 418.574ZM218.992 417.816L219.196 421.811L219.196 421.811L218.992 417.816ZM165.557 446.66L167.855 449.934L167.855 449.934L165.557 446.66ZM53.0908 446.459L56.9505 445.408L56.9505 445.408L53.0908 446.459ZM152.137 254.256L149.628 251.14L149.628 251.14L152.137 254.256ZM155.759 251.308L153.183 248.247L153.183 248.247L155.759 251.308ZM186.902 208.814L190.221 211.047L190.281 210.958L190.336 210.865L186.902 208.814ZM186.902 208.814L183.583 206.581L183.523 206.67L183.468 206.763L186.902 208.814ZM244.726 132.694L247.393 135.675L244.726 132.694ZM352.855 126.695L356.076 124.324L355.219 123.159L353.815 122.812L352.855 126.695ZM459.401 175.718L369.597 143.856L366.922 151.396L456.726 183.257L459.401 175.718ZM549.205 207.579L459.401 175.718L456.726 183.257L546.53 215.118L549.205 207.579ZM572.013 200.935L546.861 207.477L548.875 215.22L574.027 208.678L572.013 200.935ZM657.139 276.978C655.771 268.453 651.26 260.201 645.214 252.568C639.145 244.905 631.341 237.628 623.02 231.034C606.382 217.851 587.282 207.092 574.722 201.187L571.318 208.427C583.449 214.13 601.996 224.583 618.051 237.304C626.076 243.663 633.38 250.511 638.943 257.534C644.527 264.586 648.17 271.58 649.24 278.246L657.139 276.978ZM654.094 373.512C655.593 356.824 657.252 338.35 658.093 321.292C658.93 304.306 658.974 288.411 657.139 276.978L649.24 278.246C650.932 288.788 650.937 303.959 650.103 320.899C649.271 337.766 647.628 356.075 646.126 372.796L654.094 373.512ZM654.094 373.509L654.094 373.507L646.126 372.801L646.126 372.803L654.094 373.509ZM651.437 425.021C650.826 421.834 650.875 415.285 651.44 406.002C651.994 396.901 653 385.696 654.094 373.513L646.126 372.798C645.035 384.942 644.017 396.275 643.455 405.516C642.904 414.574 642.745 422.171 643.58 426.527L651.437 425.021ZM652.374 429.508C651.954 427.546 651.636 426.059 651.437 425.021L643.58 426.528C643.799 427.67 644.14 429.261 644.551 431.183L652.374 429.508ZM606.562 645.243C646.814 616.307 659.661 569.383 661.847 526.688C664.036 483.924 655.586 444.511 652.374 429.508L644.551 431.183C647.753 446.136 655.988 484.653 653.857 526.279C651.723 567.972 639.246 611.895 601.892 638.747L606.562 645.243ZM512.934 572.364C516.572 585.158 520.409 598.657 524.987 611.005C529.554 623.32 534.965 634.797 541.889 643.441C548.861 652.146 557.605 658.251 568.726 659.1C579.72 659.94 592.195 655.57 606.562 645.242L601.892 638.747C588.306 648.513 577.698 651.762 569.335 651.124C561.098 650.495 554.21 646.026 548.133 638.439C542.006 630.791 536.95 620.258 532.488 608.224C528.038 596.221 524.285 583.032 520.629 570.176L512.934 572.364ZM512.903 572.248L512.903 572.248L520.66 570.291L520.66 570.291L512.903 572.248ZM490.797 518.171C494.974 521.932 498.784 529.008 502.481 538.79C506.127 548.437 509.432 560.051 512.934 572.363L520.629 570.175C517.154 557.957 513.754 545.989 509.964 535.961C506.225 526.068 501.869 517.374 496.15 512.226L490.797 518.171ZM465.79 501.508C476.397 507.374 485.109 513.05 490.797 518.171L496.15 512.226C489.78 506.491 480.435 500.465 469.662 494.507L465.79 501.508ZM465.904 494.446C454.034 500.522 439.798 501.882 426.246 497.074L423.571 504.614C439.282 510.188 455.801 508.605 469.549 501.568L465.904 494.446ZM426.246 497.074C409.893 491.273 398.42 477.863 394.4 462.218L386.651 464.208C391.306 482.322 404.604 497.885 423.571 504.614L426.246 497.074ZM359.924 456.188C367.823 458.928 377.926 462.616 389.079 466.942L391.972 459.484C380.735 455.125 370.541 451.403 362.545 448.63L359.924 456.188ZM319.358 442.637C335.197 447.539 349.53 452.417 359.87 456.169L362.599 448.649C352.136 444.853 337.682 439.934 321.724 434.995L319.358 442.637ZM266.036 452.316C286.277 459.498 307.845 454.8 323.125 441.87L317.957 435.763C304.76 446.93 286.161 450.968 268.711 444.776L266.036 452.316ZM231.895 420.133C238.031 434.639 250.013 446.632 266.036 452.316L268.711 444.776C254.891 439.874 244.561 429.542 239.263 417.016L231.895 420.133ZM219.196 421.811C223.628 421.584 229.005 421.853 235.127 422.549L236.031 414.6C229.662 413.876 223.813 413.564 218.788 413.821L219.196 421.811ZM167.855 449.934C178.333 442.581 188.219 435.648 197.131 430.455C206.166 425.191 213.583 422.098 219.196 421.811L218.788 413.821C211.103 414.214 202.241 418.218 193.103 423.543C183.841 428.94 173.658 436.089 163.26 443.386L167.855 449.934ZM49.2312 447.509C53.8764 464.581 60.8083 475.836 69.873 482.114C79.0424 488.464 89.6786 489.234 100.579 486.87C111.402 484.522 122.836 479.022 134.143 472.338C145.48 465.637 156.967 457.574 167.855 449.934L163.26 443.386C152.319 451.063 141.092 458.938 130.073 465.452C119.024 471.983 108.46 476.974 98.8829 479.051C89.3833 481.112 81.2186 480.24 74.4275 475.537C67.5317 470.761 61.3435 461.554 56.9505 445.408L49.2312 447.509ZM149.628 251.14C137.679 260.764 106.278 286.039 81.0265 320.62C55.8148 355.146 36.2159 399.675 49.2312 447.509L56.9505 445.408C44.8723 401.019 62.8672 359.054 87.4873 325.338C112.067 291.677 142.736 266.962 154.646 257.371L149.628 251.14ZM153.183 248.247C152.375 248.927 151.19 249.882 149.628 251.14L154.646 257.371C156.177 256.138 157.444 255.118 158.334 254.368L153.183 248.247ZM183.583 206.581C176.755 216.729 170.474 226.063 165.168 233.478C159.756 241.042 155.667 246.158 153.183 248.247L158.334 254.368C161.728 251.512 166.393 245.514 171.674 238.133C177.061 230.604 183.413 221.163 190.221 211.047L183.583 206.581ZM183.468 206.763L183.468 206.763L190.336 210.865L190.336 210.865L183.468 206.763ZM242.059 129.713C233.429 137.433 223.445 149.802 213.39 163.517C203.292 177.291 192.937 192.68 183.583 206.581L190.221 211.047C199.593 197.119 209.856 181.867 219.842 168.248C229.87 154.57 239.435 142.794 247.393 135.675L242.059 129.713ZM353.815 122.812C340.341 119.481 318.731 115.796 297.505 115.546C286.888 115.421 276.243 116.152 266.702 118.277C257.197 120.393 248.494 123.956 242.059 129.713L247.393 135.675C252.425 131.174 259.661 128.04 268.441 126.085C277.186 124.138 287.173 123.425 297.411 123.545C317.894 123.787 338.881 127.361 351.895 130.578L353.815 122.812ZM371.481 145.255L356.076 124.324L349.633 129.066L365.038 149.997L371.481 145.255Z" fill="black" mask="url(#path-2-inside-1_526_131)"/>
<circle cx="448.582" cy="439.169" r="36.9485" transform="rotate(19.534 448.582 439.169)" fill="#FF565E" stroke="black" stroke-width="4"/>
<circle cx="288.99" cy="382.546" r="36.9485" transform="rotate(19.534 288.99 382.546)" fill="#FF565E" stroke="black" stroke-width="4"/>
<circle cx="582.124" cy="346.393" r="23.4012" transform="rotate(19.534 582.124 346.393)" fill="white" stroke="black" stroke-width="4"/>
<circle cx="492.749" cy="314.685" r="23.4012" transform="rotate(19.534 492.749 314.685)" fill="white"/>
<circle cx="492.749" cy="314.685" r="23.4012" transform="rotate(19.534 492.749 314.685)" fill="#FF565E"/>
<circle cx="492.749" cy="314.685" r="23.4012" transform="rotate(19.534 492.749 314.685)" stroke="black" stroke-width="4"/>
<mask id="path-8-inside-2_526_131" fill="white">
<path fill-rule="evenodd" clip-rule="evenodd" d="M336.806 202.185C337.175 201.144 336.631 200.001 335.59 199.632L301.057 187.38C300.016 187.01 298.873 187.555 298.503 188.596L289.649 213.553C289.28 214.594 288.136 215.139 287.095 214.769L262.138 205.915C261.097 205.546 259.954 206.09 259.585 207.131L247.333 241.664C246.963 242.705 247.508 243.848 248.549 244.218L273.506 253.072C274.547 253.441 275.091 254.585 274.722 255.626L265.868 280.583C265.498 281.624 266.043 282.767 267.084 283.136L301.617 295.388C302.658 295.758 303.801 295.213 304.17 294.172L313.025 269.215C313.394 268.174 314.537 267.63 315.578 267.999L340.536 276.853C341.577 277.223 342.72 276.678 343.089 275.637L355.341 241.104C355.711 240.063 355.166 238.92 354.125 238.551L329.168 229.696C328.127 229.327 327.582 228.184 327.952 227.143L336.806 202.185Z"/>
</mask>
<path fill-rule="evenodd" clip-rule="evenodd" d="M336.806 202.185C337.175 201.144 336.631 200.001 335.59 199.632L301.057 187.38C300.016 187.01 298.873 187.555 298.503 188.596L289.649 213.553C289.28 214.594 288.136 215.139 287.095 214.769L262.138 205.915C261.097 205.546 259.954 206.09 259.585 207.131L247.333 241.664C246.963 242.705 247.508 243.848 248.549 244.218L273.506 253.072C274.547 253.441 275.091 254.585 274.722 255.626L265.868 280.583C265.498 281.624 266.043 282.767 267.084 283.136L301.617 295.388C302.658 295.758 303.801 295.213 304.17 294.172L313.025 269.215C313.394 268.174 314.537 267.63 315.578 267.999L340.536 276.853C341.577 277.223 342.72 276.678 343.089 275.637L355.341 241.104C355.711 240.063 355.166 238.92 354.125 238.551L329.168 229.696C328.127 229.327 327.582 228.184 327.952 227.143L336.806 202.185Z" fill="#5E5858"/>
<path d="M355.341 241.104L359.111 242.442L355.341 241.104ZM354.125 238.551L355.463 234.781L354.125 238.551ZM343.089 275.637L339.32 274.3L343.089 275.637ZM313.025 269.215L309.255 267.878L313.025 269.215ZM304.17 294.172L307.94 295.51L304.17 294.172ZM265.868 280.583L269.637 281.92L265.868 280.583ZM274.722 255.626L270.952 254.288L274.722 255.626ZM289.649 213.553L293.419 214.891L289.649 213.553ZM287.095 214.769L288.433 211L287.095 214.769ZM298.503 188.596L294.734 187.258L298.503 188.596ZM299.72 191.15L334.252 203.401L336.927 195.862L302.394 183.61L299.72 191.15ZM293.419 214.891L302.273 189.933L294.734 187.258L285.879 212.216L293.419 214.891ZM260.801 209.685L285.758 218.539L288.433 211L263.476 202.145L260.801 209.685ZM251.103 243.002L263.354 208.469L255.815 205.794L243.563 240.327L251.103 243.002ZM274.843 249.302L249.886 240.448L247.211 247.987L272.168 256.842L274.843 249.302ZM269.637 281.92L278.492 256.963L270.952 254.288L262.098 279.245L269.637 281.92ZM302.954 291.619L268.421 279.367L265.746 286.906L300.279 299.158L302.954 291.619ZM309.255 267.878L300.401 292.835L307.94 295.51L316.795 270.552L309.255 267.878ZM341.873 273.084L316.916 264.229L314.241 271.769L339.198 280.623L341.873 273.084ZM351.571 239.767L339.32 274.3L346.859 276.975L359.111 242.442L351.571 239.767ZM327.83 233.466L352.788 242.321L355.463 234.781L330.505 225.926L327.83 233.466ZM333.036 200.848L324.182 225.805L331.721 228.48L340.576 203.523L333.036 200.848ZM330.505 225.926C331.546 226.296 332.091 227.439 331.721 228.48L324.182 225.805C323.074 228.928 324.707 232.358 327.83 233.466L330.505 225.926ZM359.111 242.442C360.219 239.319 358.586 235.889 355.463 234.781L352.788 242.321C351.747 241.951 351.202 240.808 351.571 239.767L359.111 242.442ZM339.198 280.623C342.321 281.731 345.751 280.098 346.859 276.975L339.32 274.3C339.689 273.259 340.832 272.714 341.873 273.084L339.198 280.623ZM316.795 270.552C316.425 271.593 315.282 272.138 314.241 271.769L316.916 264.229C313.793 263.121 310.363 264.755 309.255 267.878L316.795 270.552ZM300.279 299.158C303.402 300.266 306.832 298.633 307.94 295.51L300.401 292.835C300.77 291.794 301.913 291.249 302.954 291.619L300.279 299.158ZM262.098 279.245C260.99 282.368 262.623 285.798 265.746 286.906L268.421 279.367C269.462 279.736 270.007 280.879 269.637 281.92L262.098 279.245ZM272.168 256.842C271.127 256.473 270.583 255.329 270.952 254.288L278.492 256.963C279.6 253.84 277.966 250.41 274.843 249.302L272.168 256.842ZM243.563 240.327C242.455 243.45 244.088 246.879 247.211 247.987L249.886 240.448C250.927 240.817 251.472 241.961 251.103 243.002L243.563 240.327ZM263.476 202.145C260.353 201.037 256.923 202.671 255.815 205.794L263.354 208.469C262.985 209.51 261.842 210.054 260.801 209.685L263.476 202.145ZM285.879 212.216C286.248 211.175 287.392 210.63 288.433 211L285.758 218.539C288.881 219.647 292.311 218.014 293.419 214.891L285.879 212.216ZM334.252 203.401C333.211 203.032 332.667 201.889 333.036 200.848L340.576 203.523C341.684 200.4 340.05 196.97 336.927 195.862L334.252 203.401ZM302.394 183.61C299.271 182.502 295.842 184.136 294.734 187.258L302.273 189.933C301.904 190.974 300.761 191.519 299.72 191.15L302.394 183.61Z" fill="black" mask="url(#path-8-inside-2_526_131)"/>
<circle cx="553.292" cy="285.853" r="23.4012" transform="rotate(19.534 553.292 285.853)" fill="white"/>
<circle cx="553.292" cy="285.853" r="23.4012" transform="rotate(19.534 553.292 285.853)" fill="#FF565E"/>
<circle cx="553.292" cy="285.853" r="23.4012" transform="rotate(19.534 553.292 285.853)" stroke="black" stroke-width="4"/>
<circle cx="521.583" cy="375.225" r="23.4012" transform="rotate(19.534 521.583 375.225)" fill="white" stroke="black" stroke-width="4"/>
<path d="M427.208 185.418L361.774 162.203C361.774 162.203 353.208 149.308 347.719 141.045C321.583 135.366 266.018 128.23 252.839 145.117C239.661 162.003 208.362 211.392 194.361 233.976M145.713 284.996C131.041 295.962 99.9273 320.86 92.844 332.722C76.0625 355.814 49.7995 410.5 78.9995 444.5C115.499 487 149 420.5 187 408C186.333 403.333 181.9 392.8 169.5 388" stroke="black" stroke-width="4"/>
<path d="M528 599.5C538.833 619.333 567.4 653.6 595 632C629.5 605 655 550.5 639.5 502" stroke="black" stroke-width="4" stroke-linecap="round" stroke-linejoin="round"/>
<path d="M648.5 40L587 201.5C622.2 211.1 652 245.167 662.5 261L855 102.5C797.333 135.5 681.2 202.7 678 207.5C674.8 212.3 715 101.167 735.5 45C706.5 80 646.7 153.1 639.5 165.5C632.3 177.9 642.5 87 648.5 40Z" fill="white" stroke="black" stroke-width="4" stroke-linecap="round" stroke-linejoin="round"/>
<path d="M578 672.5C601 670.667 650.7 657.1 665.5 617.5C680.3 577.9 679 504 676.5 472" stroke="black" stroke-width="4"/>
<path d="M719.299 417.99L713.027 287.371L829.283 347.249L719.299 417.99Z" fill="white" stroke="black" stroke-width="4"/>
<path d="M220.894 658.269L90.1405 656.179L157.328 543.989L220.894 658.269Z" fill="white" stroke="black" stroke-width="4"/>
<path d="M733.216 443.903L852.448 497.611L839.344 367.499L733.216 443.903Z" fill="white" stroke="black" stroke-width="4"/>
<path d="M247.642 646.036L308.862 530.481L178.179 535.241L247.642 646.036Z" fill="white" stroke="black" stroke-width="4"/>
<path d="M271 97.5C187.5 104.5 151 184.5 145.5 197.5C137.9 180.7 159.333 130.5 171 107.5L89.5 114L102 71.5L65 127.5L29 86.5L13.5 153V56L29 7L50.5 71.5L155 14.5L116 78L326 97.5H271Z" fill="white" stroke="black" stroke-width="4"/>
<path d="M949.869 188.945L928.393 152.851L936.746 147.88L954.172 177.168L972.271 166.4L976.321 173.206L949.869 188.945ZM992.22 164.304C989.917 165.675 987.589 166.455 985.235 166.645C982.916 166.815 980.715 166.286 978.635 165.057C976.533 163.794 974.634 161.736 972.936 158.883L963.609 143.207L971.653 138.421L980.274 152.911C981.645 155.214 983.138 156.629 984.755 157.156C986.386 157.629 988.095 157.333 989.883 156.27C991.12 155.533 992.067 154.621 992.723 153.533C993.358 152.41 993.623 151.135 993.519 149.708C993.394 148.246 992.83 146.673 991.828 144.989L983.667 131.273L991.711 126.487L1008.22 154.228L1000.59 158.768L996.045 151.137L998.756 152.526C998.974 155.003 998.468 157.282 997.239 159.363C996.024 161.389 994.351 163.036 992.22 164.304ZM1032.68 139.669L1029.46 134.255L1028.24 133.376L1022.47 123.682C1021.45 121.963 1020.12 120.94 1018.48 120.611C1016.88 120.262 1014.99 120.732 1012.83 122.021C1011.35 122.9 1010.03 124.01 1008.88 125.351C1007.73 126.636 1006.9 127.971 1006.37 129.354L1000.14 125.452C1001.02 123.487 1002.35 121.578 1004.13 119.725C1005.92 117.873 1007.91 116.292 1010.11 114.983C1014.34 112.467 1018.21 111.511 1021.73 112.114C1025.26 112.716 1028.28 115.132 1030.79 119.36L1040.21 135.19L1032.68 139.669ZM1024.47 145.113C1022.31 146.402 1020.24 147.145 1018.26 147.344C1016.26 147.508 1014.47 147.2 1012.89 146.419C1011.31 145.638 1010.05 144.457 1009.11 142.875C1008.13 141.225 1007.66 139.546 1007.72 137.838C1007.81 136.11 1008.52 134.38 1009.87 132.65C1011.19 130.885 1013.26 129.164 1016.08 127.487L1023.45 123.099L1026.25 127.792L1019.75 131.657C1017.86 132.782 1016.74 133.869 1016.38 134.917C1016.06 135.945 1016.18 136.923 1016.73 137.851C1017.35 138.882 1018.23 139.472 1019.39 139.62C1020.56 139.714 1021.85 139.341 1023.26 138.503C1024.6 137.705 1025.62 136.68 1026.32 135.427C1027 134.14 1027.21 132.734 1026.95 131.21L1030.4 134.187C1030.88 136.322 1030.62 138.314 1029.63 140.162C1028.63 142.011 1026.91 143.661 1024.47 145.113Z" fill="white"/>
<path d="M918.018 359.679C914.729 359.225 911.769 358.292 909.137 356.878C906.551 355.431 904.362 353.594 902.569 351.368C900.816 349.148 899.546 346.651 898.758 343.877C898.01 341.108 897.851 338.159 898.284 335.029C898.716 331.898 899.667 329.102 901.138 326.64C902.648 324.184 904.567 322.127 906.896 320.47C909.224 318.813 911.846 317.66 914.762 317.013C917.684 316.326 920.809 316.212 924.137 316.672C927.822 317.181 931.046 318.252 933.808 319.885C936.611 321.523 938.861 323.651 940.559 326.268L933.59 331.12C932.303 329.328 930.82 327.932 929.141 326.933C927.467 325.894 925.58 325.23 923.48 324.94C921.459 324.661 919.573 324.723 917.821 325.128C916.069 325.532 914.497 326.244 913.105 327.263C911.752 328.287 910.627 329.565 909.729 331.097C908.871 332.634 908.305 334.393 908.031 336.374C907.763 338.316 907.834 340.143 908.244 341.855C908.693 343.573 909.427 345.128 910.446 346.52C911.511 347.878 912.811 348.987 914.348 349.845C915.925 350.709 917.704 351.277 919.685 351.551C921.587 351.813 923.471 351.771 925.336 351.422C927.246 351.04 929.154 350.233 931.061 349.003L935.569 356.712C933.075 358.104 930.259 359.047 927.122 359.543C924.024 360.044 920.99 360.089 918.018 359.679ZM926.944 354.249L929.102 338.617L937.899 339.832L935.569 356.712L926.944 354.249ZM959.031 365.099C955.386 364.596 952.275 363.439 949.698 361.63C947.161 359.826 945.309 357.592 944.142 354.927C942.981 352.223 942.619 349.286 943.057 346.116C943.5 342.907 944.624 340.175 946.43 337.92C948.28 335.632 950.589 333.972 953.356 332.941C956.128 331.87 959.139 331.559 962.388 332.007C965.518 332.439 968.239 333.501 970.549 335.193C972.905 336.851 974.643 339.029 975.764 341.728C976.891 344.387 977.217 347.44 976.741 350.887C976.692 351.244 976.615 351.657 976.509 352.127C976.409 352.558 976.312 352.968 976.218 353.359L950.244 349.773L950.991 344.365L972.091 347.278L968.303 348.39C968.533 346.726 968.396 345.233 967.892 343.912C967.388 342.59 966.588 341.511 965.492 340.673C964.402 339.796 963.064 339.248 961.479 339.029C959.894 338.81 958.438 338.972 957.112 339.516C955.83 340.026 954.765 340.868 953.916 342.043C953.073 343.178 952.534 344.598 952.298 346.302L952.102 347.728C951.861 349.472 952.024 351.069 952.591 352.52C953.203 353.937 954.153 355.098 955.441 356.003C956.775 356.873 958.393 357.44 960.294 357.702C961.998 357.938 963.52 357.885 964.859 357.545C966.238 357.21 967.533 356.602 968.745 355.719L972.94 361.75C971.244 363.211 969.224 364.245 966.879 364.85C964.54 365.415 961.924 365.498 959.031 365.099ZM993.733 369.89C989.969 369.37 987.168 368.014 985.331 365.823C983.499 363.591 982.845 360.573 983.37 356.769L987.243 328.715L996.515 329.995L992.659 357.931C992.473 359.278 992.685 360.377 993.294 361.228C993.909 362.04 994.83 362.531 996.059 362.7C997.525 362.903 998.828 362.679 999.967 362.029L1001.56 368.911C1000.52 369.453 999.297 369.81 997.9 369.981C996.549 370.117 995.16 370.087 993.733 369.89ZM980.251 342.953L981.235 335.821L1003.41 338.881L1002.42 346.014L980.251 342.953ZM1025.59 374.53C1019.69 373.715 1015.3 371.434 1012.42 367.685C1009.55 363.937 1008.53 359.012 1009.38 352.91L1012.59 329.611L1022.22 330.94L1019.05 353.882C1018.51 357.845 1018.93 360.81 1020.31 362.778C1021.69 364.745 1023.85 365.932 1026.78 366.336C1029.72 366.741 1032.12 366.184 1033.98 364.665C1035.85 363.146 1037.05 360.405 1037.6 356.442L1040.77 333.5L1050.28 334.813L1047.06 358.112C1046.22 364.214 1043.9 368.68 1040.12 371.509C1036.34 374.338 1031.5 375.346 1025.59 374.53ZM1064.09 379.602C1061.35 379.225 1058.76 378.544 1056.31 377.56C1053.91 376.542 1052.04 375.436 1050.71 374.243L1054.72 368.013C1056.06 369.127 1057.68 370.118 1059.58 370.985C1061.53 371.819 1063.47 372.37 1065.41 372.638C1067.55 372.934 1069.09 372.884 1070.03 372.489C1071.02 372.1 1071.57 371.449 1071.7 370.538C1071.8 369.785 1071.52 369.181 1070.86 368.726C1070.24 368.237 1069.37 367.814 1068.25 367.457C1067.12 367.1 1065.88 366.727 1064.52 366.338C1063.2 365.954 1061.87 365.507 1060.53 364.999C1059.19 364.451 1057.99 363.761 1056.94 362.928C1055.88 362.096 1055.08 361.056 1054.52 359.809C1054.01 358.566 1053.88 357.034 1054.13 355.211C1054.41 353.191 1055.23 351.487 1056.59 350.1C1057.99 348.719 1059.86 347.746 1062.2 347.18C1064.55 346.575 1067.26 346.486 1070.36 346.913C1072.53 347.213 1074.72 347.758 1076.91 348.545C1079.11 349.332 1080.89 350.285 1082.27 351.405L1078.27 357.575C1076.85 356.451 1075.37 355.62 1073.83 355.085C1072.33 354.515 1070.85 354.129 1069.39 353.926C1067.33 353.642 1065.78 353.711 1064.75 354.135C1063.73 354.558 1063.15 355.206 1063.03 356.077C1062.92 356.87 1063.18 357.511 1063.8 358C1064.46 358.495 1065.34 358.94 1066.46 359.337C1067.58 359.733 1068.79 360.123 1070.11 360.507C1071.48 360.857 1072.83 361.306 1074.17 361.854C1075.51 362.402 1076.68 363.09 1077.7 363.917C1078.76 364.709 1079.57 365.729 1080.12 366.977C1080.68 368.185 1080.84 369.7 1080.59 371.523C1080.31 373.504 1079.47 375.185 1078.07 376.567C1076.68 377.908 1074.79 378.859 1072.41 379.419C1070.07 379.984 1067.3 380.045 1064.09 379.602ZM1100.77 384.667C1097.13 384.164 1094.02 383.008 1091.44 381.198C1088.9 379.394 1087.05 377.16 1085.88 374.495C1084.72 371.791 1084.36 368.854 1084.8 365.684C1085.24 362.475 1086.37 359.743 1088.17 357.488C1090.02 355.2 1092.33 353.54 1095.1 352.509C1097.87 351.438 1100.88 351.127 1104.13 351.575C1107.26 352.008 1109.98 353.07 1112.29 354.761C1114.65 356.419 1116.38 358.597 1117.51 361.296C1118.63 363.955 1118.96 367.008 1118.48 370.456C1118.43 370.812 1118.36 371.226 1118.25 371.696C1118.15 372.126 1118.05 372.537 1117.96 372.927L1091.99 369.342L1092.73 363.933L1113.83 366.846L1110.04 367.958C1110.27 366.294 1110.14 364.801 1109.63 363.48C1109.13 362.159 1108.33 361.079 1107.23 360.241C1106.14 359.364 1104.81 358.816 1103.22 358.597C1101.64 358.378 1100.18 358.541 1098.85 359.084C1097.57 359.594 1096.51 360.436 1095.66 361.611C1094.81 362.746 1094.28 364.166 1094.04 365.87L1093.84 367.296C1093.6 369.04 1093.77 370.637 1094.33 372.088C1094.94 373.505 1095.89 374.666 1097.18 375.571C1098.52 376.441 1100.13 377.008 1102.04 377.27C1103.74 377.506 1105.26 377.453 1106.6 377.113C1107.98 376.779 1109.27 376.17 1110.49 375.288L1114.68 381.318C1112.99 382.78 1110.97 383.813 1108.62 384.418C1106.28 384.984 1103.67 385.067 1100.77 384.667ZM1122.46 387.177L1126.88 355.201L1135.74 356.423L1134.49 365.458L1133.6 362.67C1134.86 360.543 1136.62 359.05 1138.88 358.19C1141.15 357.292 1143.79 357.05 1146.8 357.466L1145.62 366.025C1145.22 365.93 1144.87 365.861 1144.55 365.817C1144.24 365.734 1143.91 365.668 1143.55 365.619C1141.02 365.268 1138.85 365.717 1137.07 366.964C1135.32 368.177 1134.24 370.31 1133.82 373.361L1131.74 388.457L1122.46 387.177Z" fill="white"/>
<path d="M713.012 613.571L705.145 570.087L715.13 571.465L721.871 609.948L716.878 609.259L734.328 574.115L743.244 575.346L750.044 613.838L745.229 613.173L762.442 577.997L771.654 579.269L752.3 618.995L741.958 617.567L735.901 583.781L738.635 584.159L723.354 614.999L713.012 613.571ZM795.418 591.877C797.954 592.227 800.142 593.054 801.981 594.358C803.865 595.627 805.236 597.391 806.096 599.65C806.96 601.869 807.168 604.603 806.72 607.853L804.192 626.159L794.92 624.879L797.251 607.999C797.606 605.423 797.294 603.442 796.315 602.055C795.375 600.674 793.875 599.841 791.814 599.556C790.348 599.354 788.977 599.488 787.701 599.957C786.47 600.393 785.43 601.198 784.581 602.373C783.772 603.554 783.231 605.135 782.957 607.116L780.775 622.926L771.503 621.646L777.591 577.544L786.863 578.824L783.967 599.805L782.256 596.843C783.7 594.862 785.571 593.445 787.87 592.591C790.168 591.738 792.684 591.499 795.418 591.877ZM812.597 627.319L817.012 595.343L826.284 596.623L821.869 628.599L812.597 627.319ZM822.263 591.525C820.559 591.29 819.241 590.603 818.308 589.465C817.375 588.326 817.009 587.024 817.212 585.558C817.414 584.092 818.119 582.937 819.325 582.094C820.532 581.252 821.987 580.948 823.691 581.183C825.395 581.418 826.716 582.085 827.655 583.184C828.599 584.243 828.969 585.505 828.767 586.972C828.554 588.517 827.841 589.731 826.629 590.613C825.462 591.462 824.007 591.766 822.263 591.525ZM830.474 629.787L836.563 585.686L845.835 586.966L839.747 631.067L830.474 629.787ZM864.156 634.922C860.51 634.418 857.399 633.262 854.822 631.453C852.285 629.649 850.433 627.415 849.267 624.75C848.106 622.046 847.744 619.109 848.182 615.939C848.625 612.729 849.749 609.997 851.554 607.743C853.404 605.455 855.713 603.795 858.48 602.763C861.253 601.693 864.264 601.381 867.513 601.83C870.643 602.262 873.363 603.324 875.674 605.016C878.029 606.674 879.768 608.852 880.889 611.551C882.016 614.21 882.341 617.263 881.866 620.71C881.816 621.067 881.739 621.48 881.634 621.95C881.534 622.381 881.437 622.791 881.343 623.182L855.369 619.596L856.116 614.187L877.216 617.1L873.428 618.213C873.658 616.549 873.52 615.056 873.016 613.734C872.512 612.413 871.712 611.334 870.617 610.496C869.527 609.619 868.189 609.07 866.604 608.852C865.019 608.633 863.563 608.795 862.236 609.339C860.955 609.848 859.889 610.691 859.041 611.866C858.197 613.001 857.658 614.421 857.423 616.124L857.226 617.551C856.985 619.294 857.149 620.892 857.715 622.343C858.327 623.76 859.278 624.921 860.566 625.825C861.899 626.696 863.517 627.262 865.419 627.525C867.123 627.76 868.644 627.708 869.983 627.368C871.362 627.033 872.658 626.425 873.87 625.542L878.064 631.572C876.369 633.034 874.348 634.068 872.003 634.673C869.664 635.238 867.048 635.321 864.156 634.922ZM1062.9 662.36C1059.89 661.944 1057.27 660.896 1055.04 659.215C1052.81 657.494 1051.16 655.307 1050.07 652.654C1049.02 650.006 1048.73 647.017 1049.19 643.689C1049.65 640.321 1050.75 637.504 1052.47 635.239C1054.24 632.979 1056.42 631.343 1059.03 630.329C1061.63 629.315 1064.44 629.017 1067.45 629.432C1070.14 629.804 1072.42 630.724 1074.28 632.192C1076.13 633.66 1077.45 635.679 1078.22 638.249C1079 640.819 1079.13 643.986 1078.61 647.751C1078.09 651.475 1077.13 654.492 1075.72 656.801C1074.32 659.07 1072.53 660.66 1070.34 661.57C1068.2 662.485 1065.72 662.748 1062.9 662.36ZM1065.56 654.974C1067.06 655.182 1068.48 655.014 1069.81 654.47C1071.13 653.926 1072.24 653.05 1073.14 651.841C1074.08 650.598 1074.67 649.065 1074.92 647.242C1075.18 645.38 1075.02 643.743 1074.45 642.331C1073.92 640.925 1073.09 639.781 1071.96 638.898C1070.83 638.015 1069.51 637.47 1068 637.262C1066.46 637.048 1065.02 637.213 1063.7 637.757C1062.37 638.301 1061.24 639.174 1060.31 640.378C1059.41 641.587 1058.84 643.123 1058.58 644.985C1058.33 646.808 1058.47 648.442 1058.99 649.888C1059.56 651.299 1060.42 652.447 1061.55 653.329C1062.68 654.212 1064.01 654.76 1065.56 654.974ZM1072.95 663.263L1073.86 656.725L1075.35 647.24L1076.06 637.707L1078.63 619.104L1087.9 620.384L1081.81 664.486L1072.95 663.263ZM1105.54 668.246C1102.13 667.776 1099.2 666.644 1096.74 664.851C1094.33 663.064 1092.51 660.835 1091.31 658.165C1090.15 655.461 1089.78 652.524 1090.22 649.354C1090.66 646.144 1091.81 643.415 1093.65 641.166C1095.54 638.883 1097.89 637.229 1100.7 636.203C1103.55 635.143 1106.68 634.848 1110.09 635.319C1113.46 635.784 1116.37 636.913 1118.83 638.706C1121.29 640.459 1123.11 642.668 1124.27 645.333C1125.44 647.997 1125.8 650.954 1125.35 654.203C1124.91 657.373 1123.77 660.102 1121.92 662.391C1120.07 664.64 1117.72 666.294 1114.87 667.354C1112.02 668.414 1108.91 668.711 1105.54 668.246ZM1106.59 660.639C1108.14 660.852 1109.57 660.687 1110.9 660.143C1112.23 659.6 1113.34 658.723 1114.23 657.514C1115.13 656.265 1115.71 654.729 1115.96 652.907C1116.21 651.044 1116.08 649.41 1115.54 648.004C1115.01 646.598 1114.18 645.454 1113.05 644.571C1111.92 643.688 1110.58 643.14 1109.04 642.927C1107.49 642.713 1106.06 642.878 1104.73 643.422C1103.4 643.966 1102.27 644.839 1101.34 646.043C1100.45 647.252 1099.87 648.788 1099.61 650.65C1099.36 652.473 1099.5 654.107 1100.03 655.553C1100.6 656.964 1101.45 658.112 1102.58 658.994C1103.71 659.877 1105.05 660.425 1106.59 660.639Z" fill="white"/>
<path d="M915.691 642.036C911.926 641.517 909.125 640.161 907.288 637.969C905.456 635.738 904.802 632.72 905.328 628.916L909.201 600.862L918.473 602.142L914.616 630.077C914.43 631.424 914.642 632.524 915.251 633.375C915.866 634.187 916.787 634.677 918.016 634.847C919.482 635.049 920.785 634.825 921.924 634.175L923.518 641.058C922.474 641.6 921.254 641.956 919.857 642.127C918.506 642.264 917.117 642.233 915.691 642.036ZM902.208 615.099L903.192 607.967L925.362 611.028L924.377 618.16L902.208 615.099ZM928.509 643.322L932.924 611.345L941.78 612.568L940.533 621.602L939.646 618.814C940.908 616.687 942.669 615.194 944.928 614.335C947.192 613.436 949.83 613.194 952.841 613.61L951.66 622.169C951.269 622.075 950.915 622.005 950.598 621.962C950.287 621.878 949.953 621.812 949.596 621.763C947.06 621.413 944.898 621.861 943.111 623.109C941.369 624.322 940.287 626.454 939.866 629.505L937.782 644.602L928.509 643.322ZM967.533 649.194C964.878 648.827 962.572 647.984 960.614 646.664C958.696 645.349 957.307 643.562 956.448 641.303C955.594 639.005 955.394 636.212 955.848 632.923L958.343 614.854L967.615 616.134L965.309 632.836C964.943 635.491 965.227 637.529 966.161 638.95C967.14 640.337 968.66 641.172 970.721 641.457C972.147 641.654 973.456 641.532 974.648 641.09C975.845 640.61 976.848 639.779 977.657 638.599C978.472 637.378 979.013 635.798 979.281 633.856L981.464 618.046L990.736 619.326L986.321 651.303L977.524 650.088L978.739 641.292L979.991 644.069C978.615 646.14 976.797 647.606 974.538 648.465C972.325 649.29 969.99 649.533 967.533 649.194ZM1010.71 655.155C1007.07 654.652 1003.96 653.495 1001.38 651.686C998.844 649.882 996.993 647.648 995.826 644.983C994.665 642.279 994.303 639.342 994.741 636.172C995.184 632.963 996.308 630.231 998.113 627.976C999.964 625.688 1002.27 624.028 1005.04 622.997C1007.81 621.926 1010.82 621.615 1014.07 622.063C1017.2 622.495 1019.92 623.557 1022.23 625.249C1024.59 626.907 1026.33 629.085 1027.45 631.784C1028.58 634.443 1028.9 637.496 1028.42 640.943C1028.38 641.3 1028.3 641.713 1028.19 642.183C1028.09 642.614 1028 643.024 1027.9 643.415L1001.93 639.829L1002.67 634.421L1023.77 637.334L1019.99 638.446C1020.22 636.782 1020.08 635.289 1019.58 633.968C1019.07 632.646 1018.27 631.567 1017.18 630.729C1016.09 629.852 1014.75 629.304 1013.16 629.085C1011.58 628.866 1010.12 629.029 1008.8 629.572C1007.51 630.082 1006.45 630.924 1005.6 632.099C1004.76 633.234 1004.22 634.654 1003.98 636.358L1003.79 637.784C1003.54 639.528 1003.71 641.125 1004.27 642.576C1004.89 643.993 1005.84 645.154 1007.13 646.059C1008.46 646.929 1010.08 647.496 1011.98 647.758C1013.68 647.994 1015.2 647.941 1016.54 647.601C1017.92 647.266 1019.22 646.658 1020.43 645.775L1024.62 651.806C1022.93 653.268 1020.91 654.301 1018.56 654.906C1016.22 655.471 1013.61 655.554 1010.71 655.155Z" fill="#D9EEF5"/>
</svg>
