<svg width="1222" height="733" viewBox="0 0 1222 733" fill="none" xmlns="http://www.w3.org/2000/svg">
<path d="M0 413.341C140 413.341 448.8 296.532 458 51.668C531.833 130.797 1160.5 440.5 1160.5 2" stroke="white" stroke-opacity="0.5" stroke-width="30"/>
<path d="M0 466.341C140 466.341 464 493.5 464 55.5C537.833 134.629 1219 661 1206 0.5" stroke="white" stroke-opacity="0.5" stroke-width="30"/>
<path d="M16 548.841C156 548.841 476.5 542 476.5 104C550.333 183.129 1185.5 900.5 1185.5 1" stroke="white" stroke-opacity="0.5" stroke-width="30"/>
<path d="M460.55 347.073L503.866 349.676L498.699 338.388L551.941 320.844L559.322 336.97C598.621 309.88 700.832 261.274 782.002 254.547C723.861 311.586 620.272 357.182 574.085 369.221L581.466 385.347L533.391 414.179L528.224 402.891L501.885 437.377L376.735 440.051L460.55 347.073Z" fill="#9D7CFB"/>
<path d="M376.735 440.051L460.55 347.073L503.866 349.676L498.699 338.388L551.941 320.844L559.322 336.97C598.621 309.88 700.831 261.274 782.002 254.547C723.861 311.586 620.272 357.182 574.085 369.221L581.466 385.347L533.391 414.179L528.224 402.891L501.885 437.377L376.735 440.051ZM376.735 440.051L464.595 399.834M464.595 399.834C462.908 394.755 462.068 383.437 472.2 378.799C482.331 374.162 489.821 382.436 492.299 387.153C494.25 392.111 495.618 403.188 485.486 407.825C475.354 412.463 467.337 404.43 464.595 399.834Z" stroke="black" stroke-width="4"/>
<circle cx="255.785" cy="392.8" r="119.116" transform="rotate(110.836 255.785 392.8)" fill="#EC7AFF" stroke="black" stroke-width="4"/>
<path d="M415.237 310.936L367.417 436.582L319.597 562.228L326.879 580.551L309.258 589.395L300.844 570.642L319.597 562.228L367.417 436.582L415.237 310.936L406.823 292.183L425.576 283.77L432.858 302.092L415.237 310.936Z" fill="white"/>
<path d="M415.237 310.936C415.237 310.936 386.092 387.515 367.417 436.582C348.742 485.65 319.597 562.228 319.597 562.228M415.237 310.936L432.858 302.092L425.576 283.77L406.823 292.183L415.237 310.936ZM319.597 562.228L326.879 580.551L309.258 589.395L300.844 570.642L319.597 562.228Z" stroke="black" stroke-width="4"/>
<circle cx="368.98" cy="435.881" r="7.68924" transform="rotate(110.836 368.98 435.881)" fill="white" stroke="black" stroke-width="4"/>
<path d="M231.927 42.2423L228.776 105.851L228.704 107.303L230.062 107.819L289.584 130.473L228.114 147.132L226.712 147.512L226.64 148.963L223.489 212.572L188.65 159.259L187.855 158.043L186.452 158.423L124.983 175.082L164.921 125.474L165.832 124.342L165.037 123.125L130.198 69.8121L189.72 92.4656L191.078 92.9825L191.989 91.8506L231.927 42.2423Z" fill="#FFD98F" stroke="black" stroke-width="4"/>
<path d="M583 227C603.8 229.8 518.667 271.167 473.5 291.5C490.333 279.167 517.7 253.7 492.5 250.5C467.3 247.3 415 241.167 392 238.5L465.5 171.5L415 152.5L398 74L439.5 137L505.5 164L439.5 227C478.667 225.833 562.2 224.2 583 227Z" fill="white" stroke="black" stroke-width="4"/>
<path d="M181.694 613.954L181.289 616.77L184.076 616.198L224.234 607.949L191.407 632.744L189.157 634.443L191.504 636.005L225.616 658.709L185.04 652.988L182.249 652.594L182.799 655.359L190.835 695.706L166.323 662.844L164.621 660.563L163.051 662.937L140.344 697.265L146.207 656.526L146.613 653.709L143.825 654.282L103.667 662.53L136.495 637.736L138.744 636.037L136.397 634.475L102.286 611.771L142.861 617.492L145.652 617.885L145.102 615.121L137.066 574.774L161.579 607.635L163.28 609.916L164.85 607.543L187.557 573.215L181.694 613.954Z" fill="#FFD98F" stroke="black" stroke-width="4"/>
<path d="M591.481 530.96L562.67 606.663L546.883 600.654L504.034 584.346L456.674 566.322L409.314 548.297L369.847 533.276L355.188 527.697L384 451.995L591.481 530.96Z" fill="#FFD98F"/>
<path d="M369.847 533.276L355.188 527.697L384 451.995L591.481 530.96L562.67 606.663L546.883 600.654M369.847 533.276L391.349 476.782M369.847 533.276L409.314 548.297M409.314 548.297L420.064 520.05M409.314 548.297L456.674 566.322M456.674 566.322L467.424 538.074M456.674 566.322L504.034 584.346M504.034 584.346L514.784 556.099M504.034 584.346L546.883 600.654M546.883 600.654L568.384 544.16" stroke="black" stroke-width="4"/>
<path d="M357.915 424.947C364.628 400.482 364.896 342.426 312.266 305.926" stroke="black" stroke-width="4"/>
<path d="M509.186 342.353L536.593 404.143L569.91 385.218" stroke="black" stroke-width="4"/>
<path d="M600.87 320.538C599.299 321.251 567.887 335.511 563.003 341.516L572.092 362.015C588.875 356.606 625.356 344.276 637.013 338.227" stroke="black" stroke-width="4"/>
<mask id="path-18-inside-1_532_185" fill="white">
<path d="M643.8 504.849C639.494 529.479 641.675 554.807 650.13 578.338C658.584 601.869 673.02 622.794 692.017 639.052C711.014 655.31 733.917 666.342 758.472 671.061C783.027 675.779 808.387 674.023 832.057 665.965C855.727 657.907 876.891 643.824 893.466 625.102C910.04 606.381 921.455 583.666 926.585 559.194C931.715 534.722 930.385 509.336 922.725 485.534C915.065 461.732 901.339 440.335 882.898 423.448L785.649 529.648L643.8 504.849Z"/>
</mask>
<path d="M643.8 504.849C639.494 529.479 641.675 554.807 650.13 578.338C658.584 601.869 673.02 622.794 692.017 639.052C711.014 655.31 733.917 666.342 758.472 671.061C783.027 675.779 808.387 674.023 832.057 665.965C855.727 657.907 876.891 643.824 893.466 625.102C910.04 606.381 921.455 583.666 926.585 559.194C931.715 534.722 930.385 509.336 922.725 485.534C915.065 461.732 901.339 440.335 882.898 423.448L785.649 529.648L643.8 504.849Z" fill="white" stroke="black" stroke-width="8" mask="url(#path-18-inside-1_532_185)"/>
<path d="M797.943 119.516L817.425 114.331L819.431 121.869L799.949 127.054L797.943 119.516ZM804.58 141.654L795.187 144.154L784.385 103.567L815.057 95.4034L817.063 102.941L795.784 108.605L804.58 141.654ZM831.581 134.468L823.278 103.274L832.323 100.866L840.626 132.06L831.581 134.468ZM826.643 97.7213C824.981 98.1637 823.499 98.0406 822.198 97.352C820.898 96.6635 820.057 95.6041 819.676 94.1739C819.295 92.7437 819.498 91.4065 820.285 90.1624C821.071 88.9182 822.296 88.0749 823.958 87.6325C825.62 87.1901 827.096 87.2939 828.387 87.9438C829.667 88.5551 830.498 89.5758 830.878 91.006C831.279 92.5135 831.092 93.9087 830.316 95.1915C829.568 96.4253 828.344 97.2686 826.643 97.7213ZM866.807 137.634C863.869 138.416 860.93 138.804 857.99 138.801C855.099 138.825 852.555 138.364 850.358 137.417L852.224 129.966C853.827 130.699 855.715 131.107 857.89 131.19C860.113 131.302 862.211 131.096 864.182 130.571C867.39 129.717 869.519 128.385 870.569 126.574C871.657 124.753 871.826 122.431 871.075 119.61L869.825 114.913L868.321 106.931L866.106 99.0766L864.316 92.3508L872.897 90.0668L879.811 116.042C881.354 121.841 880.984 126.513 878.699 130.06C876.414 133.607 872.45 136.132 866.807 137.634ZM861.897 124.784C858.998 125.556 856.205 125.637 853.517 125.028C850.859 124.369 848.516 123.11 846.489 121.248C844.49 119.338 843.09 116.875 842.287 113.86C841.475 110.807 841.466 107.974 842.26 105.361C843.084 102.7 844.49 100.442 846.48 98.5882C848.509 96.7236 850.973 95.4056 853.872 94.6339C856.5 93.9343 858.964 93.8582 861.262 94.4055C863.55 94.9142 865.552 96.1403 867.27 98.0839C868.977 99.9888 870.294 102.681 871.22 106.16C872.136 109.6 872.331 112.59 871.807 115.13C871.273 117.632 870.144 119.692 868.422 121.309C866.7 122.926 864.525 124.085 861.897 124.784ZM861.719 116.884C863.304 116.462 864.632 115.778 865.705 114.83C866.767 113.844 867.491 112.678 867.878 111.333C868.265 109.988 868.258 108.562 867.857 107.055C867.446 105.509 866.743 104.268 865.749 103.332C864.744 102.357 863.541 101.725 862.14 101.436C860.728 101.108 859.229 101.155 857.645 101.577C856.06 101.999 854.736 102.703 853.674 103.689C852.602 104.637 851.853 105.788 851.427 107.144C851.03 108.45 851.037 109.876 851.448 111.422C851.85 112.93 852.552 114.171 853.557 115.145C854.6 116.109 855.827 116.755 857.239 117.083C858.641 117.372 860.134 117.306 861.719 116.884ZM921.142 76.7292C923.615 76.0707 925.933 75.9919 928.095 76.4928C930.285 76.9448 932.193 78.051 933.821 79.8116C935.477 81.5233 936.727 83.9639 937.57 87.1336L942.324 104.992L933.279 107.399L928.896 90.9326C928.227 88.4201 927.211 86.7036 925.849 85.7831C924.486 84.8626 922.858 84.6544 920.964 85.1585C919.649 85.5083 918.553 86.1314 917.674 87.0276C916.784 87.8852 916.209 88.9903 915.948 90.3429C915.688 91.6955 915.804 93.2995 916.298 95.1549L920.465 110.81L911.42 113.217L907.037 96.7507C906.368 94.2382 905.352 92.5216 903.99 91.6011C902.666 90.6704 901.057 90.457 899.163 90.9612C897.848 91.311 896.752 91.934 895.873 92.8302C894.983 93.6878 894.408 94.793 894.147 96.1456C893.887 97.4982 894.003 99.1022 894.497 100.958L898.664 116.613L889.619 119.02L881.316 87.826L889.955 85.5266L892.224 94.0499L889.937 91.9888C890.453 89.5747 891.553 87.5642 893.236 85.9571C894.948 84.3012 897.079 83.1337 899.63 82.4547C902.491 81.6933 905.18 81.7641 907.696 82.6671C910.242 83.5212 912.258 85.3438 913.746 88.135L910.326 88.1141C910.721 85.4011 911.869 83.026 913.769 80.9887C915.708 78.9412 918.165 77.5214 921.142 76.7292ZM969.565 97.7412L967.944 91.6532L967.01 90.4739L964.108 79.5734C963.594 77.6407 962.594 76.2927 961.107 75.5293C959.66 74.7556 957.718 74.6929 955.283 75.341C953.621 75.7834 952.05 76.4913 950.57 77.4645C949.119 78.3889 947.952 79.4447 947.067 80.6321L942.138 75.1764C943.52 73.5254 945.322 72.0524 947.544 70.7574C949.765 69.4624 952.113 68.4857 954.587 67.8273C959.341 66.5618 963.331 66.7002 966.556 68.2426C969.782 69.7849 972.027 72.9333 973.292 77.6878L978.03 95.4881L969.565 97.7412ZM960.179 100.736C957.744 101.384 955.549 101.534 953.593 101.185C951.628 100.798 949.99 100.012 948.682 98.829C947.374 97.6458 946.483 96.1651 946.01 94.387C945.516 92.5316 945.528 90.7898 946.047 89.1616C946.604 87.5231 947.766 86.055 949.531 84.7572C951.287 83.4208 953.749 82.3307 956.919 81.4871L965.21 79.2802L966.614 84.5565L959.309 86.501C957.183 87.0669 955.806 87.8057 955.18 88.7175C954.592 89.6191 954.437 90.5917 954.715 91.6354C955.023 92.795 955.715 93.6044 956.789 94.0635C957.892 94.4737 959.235 94.4679 960.82 94.0461C962.328 93.6448 963.588 92.9369 964.601 91.9221C965.604 90.8688 966.191 89.5743 966.362 88.0387L968.864 91.843C968.742 94.0279 967.95 95.8737 966.489 97.3803C965.027 98.887 962.924 100.006 960.179 100.736Z" fill="white"/>
<path d="M821.721 444.298L811.362 399.744L821.694 401.612L830.664 441.037L824.583 439.937L847.024 406.191L856.53 407.909L831.168 446.006L821.721 444.298ZM865.175 452.641C861.554 451.986 858.493 450.701 855.994 448.786C853.534 446.878 851.777 444.569 850.722 441.858C849.675 439.108 849.436 436.158 850.005 433.009C850.581 429.821 851.818 427.138 853.716 424.961C855.66 422.751 858.036 421.189 860.843 420.274C863.658 419.319 866.679 419.134 869.907 419.717C873.016 420.279 875.69 421.454 877.928 423.24C880.212 424.995 881.859 427.243 882.867 429.986C883.882 432.69 884.08 435.754 883.461 439.179C883.397 439.533 883.303 439.943 883.178 440.408C883.06 440.834 882.946 441.24 882.836 441.627L857.034 436.962L858.005 431.59L878.965 435.378L875.135 436.332C875.434 434.679 875.359 433.182 874.91 431.841C874.462 430.499 873.707 429.388 872.647 428.505C871.595 427.583 870.281 426.98 868.706 426.695C867.132 426.41 865.671 426.512 864.322 427C863.02 427.456 861.921 428.253 861.024 429.392C860.135 430.491 859.537 431.887 859.231 433.579L858.975 434.996C858.662 436.728 858.758 438.331 859.264 439.804C859.816 441.246 860.717 442.445 861.967 443.403C863.263 444.328 864.856 444.961 866.745 445.303C868.438 445.609 869.96 445.62 871.312 445.336C872.704 445.059 874.023 444.505 875.271 443.674L879.211 449.873C877.456 451.263 875.394 452.212 873.026 452.719C870.665 453.186 868.048 453.16 865.175 452.641ZM902.009 459.299C898.585 458.68 895.659 457.44 893.231 455.578C890.811 453.677 889.057 451.348 887.97 448.591C886.923 445.841 886.684 442.891 887.253 439.742C887.829 436.554 889.086 433.875 891.023 431.705C893.006 429.502 895.461 427.954 898.386 427.06C901.319 426.127 904.498 425.97 907.922 426.589C911.268 427.194 914.053 428.429 916.276 430.294C918.507 432.12 919.978 434.439 920.689 437.25L912.852 439.797C912.295 438.152 911.451 436.861 910.32 435.925C909.228 434.996 907.954 434.399 906.497 434.136C904.923 433.851 903.442 433.95 902.054 434.43C900.666 434.911 899.481 435.734 898.498 436.897C897.555 438.068 896.916 439.579 896.582 441.429C896.247 443.279 896.317 444.917 896.791 446.344C897.304 447.778 898.126 448.964 899.258 449.9C900.389 450.836 901.742 451.446 903.317 451.731C904.773 451.994 906.172 451.902 907.513 451.453C908.901 450.972 910.146 450.039 911.251 448.653L917.69 453.841C916.047 456.187 913.857 457.843 911.121 458.812C908.393 459.742 905.355 459.904 902.009 459.299ZM934.993 465.261C931.253 464.586 928.511 463.114 926.767 460.848C925.029 458.542 924.502 455.5 925.185 451.721L930.223 423.853L939.433 425.518L934.417 453.268C934.175 454.606 934.341 455.713 934.914 456.589C935.495 457.426 936.395 457.954 937.615 458.175C939.072 458.438 940.383 458.269 941.548 457.666L942.854 464.609C941.789 465.108 940.555 465.413 939.152 465.526C937.796 465.606 936.41 465.518 934.993 465.261ZM922.643 437.786L923.924 430.701L945.947 434.682L944.666 441.768L922.643 437.786ZM961.797 470.107C958.411 469.495 955.528 468.242 953.147 466.348C950.805 464.462 949.088 462.159 947.994 459.441C946.946 456.691 946.707 453.742 947.276 450.593C947.853 447.404 949.109 444.725 951.046 442.555C953.03 440.353 955.445 438.797 958.292 437.889C961.185 436.949 964.324 436.785 967.709 437.397C971.055 438.002 973.919 439.251 976.3 441.145C978.688 442.999 980.409 445.282 981.464 447.993C982.519 450.703 982.754 453.673 982.171 456.9C981.601 460.049 980.345 462.729 978.401 464.938C976.464 467.108 974.049 468.663 971.155 469.603C968.262 470.544 965.142 470.712 961.797 470.107ZM963.163 462.549C964.698 462.827 966.14 462.721 967.488 462.234C968.836 461.746 969.982 460.916 970.925 459.745C971.876 458.535 972.515 457.025 972.842 455.214C973.176 453.364 973.107 451.725 972.633 450.298C972.159 448.871 971.376 447.693 970.284 446.764C969.192 445.835 967.878 445.232 966.343 444.954C964.808 444.677 963.366 444.782 962.018 445.27C960.67 445.758 959.504 446.584 958.522 447.748C957.578 448.918 956.939 450.429 956.605 452.279C956.278 454.09 956.347 455.728 956.814 457.194C957.327 458.629 958.13 459.81 959.222 460.739C960.314 461.668 961.628 462.272 963.163 462.549ZM985.456 473.896L991.198 442.131L999.996 443.721L998.373 452.696L997.603 449.873C998.953 447.801 1000.77 446.382 1003.07 445.618C1005.37 444.814 1008.01 444.682 1011 445.223L1009.47 453.725C1009.08 453.615 1008.73 453.531 1008.42 453.474C1008.11 453.378 1007.78 453.298 1007.42 453.234C1004.9 452.778 1002.72 453.137 1000.89 454.308C999.095 455.448 997.926 457.533 997.378 460.564L994.667 475.561L985.456 473.896ZM1013.71 479.49C1012.13 479.206 1010.87 478.429 1009.92 477.16C1009.02 475.858 1008.72 474.361 1009.02 472.669C1009.33 470.976 1010.13 469.718 1011.41 468.894C1012.75 468.037 1014.2 467.751 1015.78 468.036C1017.39 468.328 1018.65 469.104 1019.56 470.366C1020.48 471.589 1020.78 473.047 1020.48 474.739C1020.17 476.432 1019.37 477.73 1018.07 478.632C1016.77 479.496 1015.32 479.782 1013.71 479.49ZM1036.36 483.586C1033.65 483.095 1031.08 482.307 1028.68 481.221C1026.32 480.104 1024.5 478.922 1023.22 477.674L1027.49 471.617C1028.78 472.785 1030.36 473.843 1032.22 474.789C1034.13 475.703 1036.05 476.334 1037.98 476.683C1040.1 477.067 1041.64 477.081 1042.6 476.726C1043.6 476.378 1044.18 475.751 1044.34 474.846C1044.48 474.098 1044.22 473.483 1043.58 473.001C1042.98 472.486 1042.13 472.027 1041.02 471.624C1039.92 471.221 1038.69 470.797 1037.35 470.351C1036.05 469.912 1034.74 469.411 1033.42 468.847C1032.1 468.243 1030.94 467.504 1029.92 466.629C1028.89 465.753 1028.13 464.68 1027.63 463.411C1027.17 462.148 1027.1 460.612 1027.43 458.801C1027.79 456.794 1028.68 455.126 1030.1 453.797C1031.56 452.475 1033.47 451.581 1035.83 451.113C1038.2 450.606 1040.92 450.63 1043.99 451.185C1046.15 451.577 1048.31 452.211 1050.47 453.089C1052.63 453.967 1054.37 454.994 1055.71 456.17L1051.45 462.168C1050.08 460.986 1048.64 460.094 1047.12 459.495C1045.65 458.863 1044.18 458.416 1042.73 458.152C1040.68 457.782 1039.13 457.788 1038.09 458.168C1037.05 458.548 1036.45 459.171 1036.29 460.037C1036.15 460.824 1036.37 461.475 1036.97 461.99C1037.61 462.512 1038.48 462.994 1039.58 463.436C1040.68 463.879 1041.88 464.319 1043.18 464.758C1044.53 465.165 1045.86 465.67 1047.17 466.273C1048.49 466.876 1049.63 467.612 1050.62 468.48C1051.64 469.317 1052.41 470.369 1052.91 471.639C1053.42 472.869 1053.51 474.39 1053.18 476.2C1052.83 478.168 1051.92 479.813 1050.46 481.135C1049.01 482.417 1047.09 483.289 1044.69 483.749C1042.32 484.216 1039.55 484.162 1036.36 483.586ZM1065.17 488.306L1057.57 454.128L1067.07 455.847L1073.23 485.19L1068.51 484.336L1084.96 459.081L1093.82 460.682L1074.68 490.024L1065.17 488.306ZM1103.75 507.597C1100.76 507.056 1097.94 506.159 1095.28 504.906C1092.65 503.699 1090.54 502.201 1088.96 500.41L1093.81 494.459C1094.95 495.803 1096.49 496.975 1098.42 497.975C1100.39 499.021 1102.37 499.725 1104.38 500.088C1107.65 500.679 1110.14 500.378 1111.86 499.185C1113.62 497.999 1114.76 495.969 1115.28 493.095L1116.14 488.313L1118.17 480.449L1119.51 472.398L1120.75 465.549L1129.48 467.128L1124.7 493.58C1123.63 499.484 1121.31 503.556 1117.74 505.796C1114.16 508.035 1109.5 508.636 1103.75 507.597ZM1104.77 493.879C1101.82 493.345 1099.26 492.232 1097.08 490.538C1094.96 488.812 1093.37 486.676 1092.33 484.13C1091.33 481.551 1091.11 478.727 1091.66 475.657C1092.23 472.547 1093.42 469.979 1095.25 467.952C1097.13 465.893 1099.36 464.447 1101.95 463.614C1104.58 462.789 1107.37 462.643 1110.32 463.176C1113 463.66 1115.26 464.638 1117.11 466.11C1118.96 467.543 1120.25 469.504 1120.98 471.994C1121.72 474.444 1121.77 477.44 1121.13 480.982C1120.49 484.486 1119.4 487.276 1117.84 489.352C1116.3 491.39 1114.4 492.774 1112.16 493.506C1109.91 494.239 1107.45 494.363 1104.77 493.879ZM1107.97 486.652C1109.58 486.944 1111.08 486.889 1112.45 486.487C1113.83 486.045 1114.98 485.298 1115.9 484.245C1116.82 483.192 1117.42 481.899 1117.7 480.363C1117.99 478.789 1117.88 477.367 1117.38 476.097C1116.88 474.788 1116.06 473.705 1114.91 472.848C1113.78 471.951 1112.4 471.357 1110.79 471.065C1109.17 470.773 1107.67 470.848 1106.29 471.289C1104.92 471.692 1103.75 472.415 1102.79 473.461C1101.88 474.474 1101.28 475.768 1100.99 477.343C1100.71 478.878 1100.82 480.3 1101.32 481.609C1101.85 482.925 1102.69 484.032 1103.83 484.928C1104.97 485.786 1106.35 486.36 1107.97 486.652Z" fill="white"/>
<path d="M1010.25 249.303C1007.01 249.226 1004 248.634 1001.23 247.528C998.492 246.382 996.128 244.805 994.136 242.797C992.143 240.789 990.598 238.451 989.502 235.785C988.445 233.119 987.954 230.206 988.03 227.047C988.105 223.888 988.734 221.002 989.917 218.39C991.139 215.778 992.794 213.517 994.88 211.606C997.006 209.696 999.461 208.254 1002.25 207.28C1005.03 206.267 1008.06 205.799 1011.34 205.877C1014.98 205.964 1018.24 206.682 1021.13 208.031C1024.06 209.341 1026.5 211.24 1028.44 213.727L1022.06 219.336C1020.66 217.663 1019.09 216.405 1017.35 215.563C1015.61 214.681 1013.7 214.216 1011.62 214.166C1009.66 214.119 1007.86 214.396 1006.2 214.997C1004.55 215.598 1003.11 216.484 1001.88 217.655C1000.65 218.826 999.676 220.223 998.957 221.846C998.278 223.47 997.915 225.282 997.867 227.282C997.819 229.281 998.096 231.108 998.696 232.763C999.337 234.419 1000.24 235.861 1001.41 237.089C1002.59 238.317 1003.98 239.271 1005.61 239.95C1007.23 240.629 1009.02 240.992 1010.98 241.038C1013.06 241.088 1014.99 240.734 1016.77 239.976C1018.55 239.178 1020.18 237.957 1021.66 236.312L1027.76 242.219C1025.7 244.61 1023.18 246.411 1020.19 247.62C1017.24 248.83 1013.92 249.391 1010.25 249.303ZM1046.34 249.924C1043.66 249.86 1041.28 249.283 1039.18 248.193C1037.13 247.104 1035.55 245.485 1034.44 243.338C1033.33 241.151 1032.81 238.398 1032.89 235.079L1033.33 216.844L1042.69 217.068L1042.28 233.923C1042.22 236.602 1042.73 238.595 1043.82 239.901C1044.95 241.169 1046.56 241.827 1048.64 241.877C1050.08 241.911 1051.36 241.642 1052.5 241.068C1053.63 240.455 1054.53 239.517 1055.2 238.252C1055.88 236.948 1056.23 235.316 1056.28 233.357L1056.66 217.401L1066.02 217.624L1065.25 249.895L1056.37 249.683L1056.58 240.806L1058.14 243.424C1057.01 245.637 1055.37 247.299 1053.22 248.408C1051.11 249.478 1048.82 249.983 1046.34 249.924ZM1073.92 250.102L1074.69 217.831L1083.63 218.044L1083.41 227.162L1082.21 224.492C1083.23 222.236 1084.81 220.553 1086.95 219.444C1089.1 218.295 1091.69 217.757 1094.73 217.829L1094.53 226.467C1094.13 226.417 1093.77 226.389 1093.45 226.381C1093.13 226.333 1092.79 226.305 1092.43 226.297C1089.87 226.236 1087.77 226.926 1086.14 228.367C1084.55 229.77 1083.71 232.01 1083.64 235.089L1083.28 250.325L1073.92 250.102ZM1109.39 250.948L1096.6 218.354L1106.26 218.584L1116.87 246.625L1112.07 246.511L1124.43 219.018L1133.43 219.232L1119.04 251.178L1109.39 250.948ZM1151.6 252.435C1147.92 252.348 1144.7 251.55 1141.94 250.044C1139.21 248.539 1137.12 246.528 1135.66 244.013C1134.2 241.457 1133.51 238.58 1133.59 235.381C1133.66 232.142 1134.47 229.3 1136.01 226.856C1137.59 224.373 1139.69 222.463 1142.33 221.125C1144.96 219.748 1147.92 219.098 1151.2 219.176C1154.36 219.252 1157.18 219.999 1159.67 221.419C1162.19 222.799 1164.17 224.767 1165.59 227.322C1167.01 229.836 1167.68 232.833 1167.59 236.312C1167.58 236.672 1167.55 237.091 1167.5 237.57C1167.45 238.009 1167.4 238.428 1167.35 238.827L1141.14 238.202L1141.27 232.743L1162.56 233.251L1158.93 234.785C1158.97 233.105 1158.66 231.638 1158.01 230.382C1157.36 229.126 1156.44 228.144 1155.26 227.435C1154.08 226.687 1152.69 226.294 1151.09 226.256C1149.49 226.217 1148.06 226.543 1146.8 227.234C1145.59 227.885 1144.62 228.842 1143.91 230.106C1143.2 231.329 1142.83 232.8 1142.79 234.52L1142.75 235.96C1142.71 237.719 1143.05 239.288 1143.78 240.665C1144.55 242.004 1145.63 243.05 1147.01 243.803C1148.43 244.517 1150.1 244.897 1152.02 244.943C1153.74 244.984 1155.25 244.76 1156.54 244.271C1157.87 243.782 1159.09 243.031 1160.19 242.017L1165.04 247.534C1163.52 249.179 1161.63 250.434 1159.37 251.3C1157.11 252.127 1154.52 252.505 1151.6 252.435ZM1184.29 253.215C1181.53 253.149 1178.87 252.766 1176.33 252.065C1173.83 251.325 1171.85 250.438 1170.39 249.403L1173.67 242.759C1175.13 243.714 1176.85 244.515 1178.84 245.163C1180.86 245.771 1182.86 246.099 1184.81 246.146C1186.97 246.197 1188.5 245.973 1189.39 245.475C1190.32 244.977 1190.8 244.268 1190.82 243.348C1190.84 242.588 1190.49 242.02 1189.78 241.643C1189.11 241.227 1188.2 240.905 1187.05 240.677C1185.89 240.45 1184.62 240.219 1183.22 239.986C1181.87 239.753 1180.49 239.461 1179.1 239.107C1177.71 238.714 1176.44 238.164 1175.3 237.456C1174.16 236.749 1173.24 235.807 1172.55 234.63C1171.89 233.454 1171.59 231.946 1171.63 230.107C1171.68 228.067 1172.3 226.282 1173.5 224.75C1174.74 223.219 1176.49 222.04 1178.75 221.214C1181.01 220.347 1183.7 219.952 1186.82 220.026C1189.02 220.078 1191.25 220.372 1193.52 220.906C1195.79 221.44 1197.67 222.185 1199.17 223.141L1195.89 229.725C1194.35 228.768 1192.79 228.111 1191.2 227.753C1189.64 227.355 1188.13 227.139 1186.65 227.104C1184.57 227.054 1183.04 227.298 1182.07 227.835C1181.1 228.372 1180.6 229.08 1180.58 229.96C1180.56 230.76 1180.89 231.368 1181.56 231.784C1182.27 232.201 1183.2 232.543 1184.35 232.811C1185.51 233.078 1186.76 233.328 1188.12 233.561C1189.51 233.754 1190.9 234.047 1192.3 234.441C1193.69 234.834 1194.93 235.384 1196.04 236.09C1197.18 236.758 1198.1 237.68 1198.79 238.857C1199.49 239.994 1199.81 241.482 1199.77 243.321C1199.72 245.321 1199.08 247.086 1197.84 248.617C1196.6 250.108 1194.84 251.266 1192.53 252.091C1190.27 252.918 1187.52 253.292 1184.29 253.215Z" fill="white"/>
</svg>
