<svg width="1800" height="160" viewBox="0 0 1800 160" fill="none" xmlns="http://www.w3.org/2000/svg">
<g opacity="0.9">
<path d="M1052.5 2.5C1094.36 14.1437 1159.7 69.6103 1107.55 124.327C1042.36 192.724 904.369 138.007 874.739 124.327C851.034 113.384 819.147 134.424 806.166 146.312C806.73 139.228 807.012 73.7629 757.346 70.8316C717.613 68.4866 686.045 100.796 675.228 117.243C694.699 96.4802 692.159 49.3356 655.756 43.4731C626.634 38.783 592.451 57.3152 579 67.1675C500.666 110.945 337.3 176.6 310.5 89C283.7 1.4 195.333 34.8333 154.5 62.5C139.333 74.9956 110.8 103.438 118 117.243C127 134.5 161 128 177 113C193 98 194.5 62.5 114 59C49.6 56.2 11.8333 67.5 1 73.5" stroke="white" stroke-opacity="0.38" stroke-width="4" stroke-dasharray="20 20"/>
<path d="M1753.41 65C1732.24 77.6667 1694.51 103 1712.91 103C1735.91 103 1776.91 89 1769.91 96C1762.91 103 1736.91 126 1753.41 128C1769.91 130 1791.91 115 1789.91 128C1788.31 138.4 1794.91 147.333 1798.41 150.5" stroke="white" stroke-width="2"/>
<path d="M1068 56C1069.6 55.6 1123.67 37.1667 1150.5 28C1153.17 43.8333 1159.5 76.4 1163.5 80C1137.83 88 1092.3 101.6 1087.5 108C1087.5 103.5 1085 76.5 1068 56Z" fill="white"/>
<path d="M1068 56C1069.6 55.6 1123.67 37.1667 1150.5 28M1068 56C1085 76.5 1087.5 103.5 1087.5 108C1092.3 101.6 1137.83 88 1163.5 80C1159.5 76.4 1153.17 43.8333 1150.5 28M1068 56C1070.5 56 1112.5 68.5 1114.5 70.5C1116 68.5 1140 33.5 1150.5 28" stroke="#1D1D1D"/>
</g>
</svg>
