<svg width="16" height="16" viewBox="0 0 16 16" fill="none" xmlns="http://www.w3.org/2000/svg">
<circle cx="8" cy="8" r="8" fill="#675CE9"/>
<path d="M5.762 11.108C5.12 11.108 4.538 10.97 4.016 10.694C3.5 10.412 3.092 10.025 2.792 9.533C2.498 9.035 2.351 8.474 2.351 7.85C2.351 7.226 2.498 6.668 2.792 6.176C3.092 5.678 3.5 5.291 4.016 5.015C4.538 4.733 5.123 4.592 5.771 4.592C6.317 4.592 6.809 4.688 7.247 4.88C7.691 5.072 8.063 5.348 8.363 5.708L7.427 6.572C7.001 6.08 6.473 5.834 5.843 5.834C5.453 5.834 5.105 5.921 4.799 6.095C4.493 6.263 4.253 6.5 4.079 6.806C3.911 7.112 3.827 7.46 3.827 7.85C3.827 8.24 3.911 8.588 4.079 8.894C4.253 9.2 4.493 9.44 4.799 9.614C5.105 9.782 5.453 9.866 5.843 9.866C6.473 9.866 7.001 9.617 7.427 9.119L8.363 9.983C8.063 10.349 7.691 10.628 7.247 10.82C6.803 11.012 6.308 11.108 5.762 11.108ZM11.0846 4.7C11.6426 4.7 12.1256 4.793 12.5336 4.979C12.9476 5.165 13.2656 5.429 13.4876 5.771C13.7096 6.113 13.8206 6.518 13.8206 6.986C13.8206 7.448 13.7096 7.853 13.4876 8.201C13.2656 8.543 12.9476 8.807 12.5336 8.993C12.1256 9.173 11.6426 9.263 11.0846 9.263H9.81559V11H8.35759V4.7H11.0846ZM11.0036 8.075C11.4416 8.075 11.7746 7.982 12.0026 7.796C12.2306 7.604 12.3446 7.334 12.3446 6.986C12.3446 6.632 12.2306 6.362 12.0026 6.176C11.7746 5.984 11.4416 5.888 11.0036 5.888H9.81559V8.075H11.0036Z" fill="white"/>
</svg>
