<svg width="391" height="257" viewBox="0 0 391 257" fill="none" xmlns="http://www.w3.org/2000/svg">
<path d="M119.003 143C105.836 133.559 82.102 109.44 92.5023 88.492C105.503 62.3069 175.004 94.9048 195.505 67.1164C216.005 39.328 106.503 -38.1588 2 28.1058" stroke="white" stroke-width="4"/>
<path d="M29 165.5L274.5 80.5L361 128V143L146.5 255L127 242.802L123.5 240.613L120.122 238.5L115.5 235.609L111 232.794L107.5 230.604L105 229.04L29 181.5V165.5Z" fill="#FFFCFC"/>
<path d="M29 165.5L274.5 80.5L361 128M29 165.5V181.5L105 229.04M29 165.5L146.5 236M146.5 255V236M146.5 255L361 143V128M146.5 255L127 242.802M146.5 236C150.1 236 291 164 361 128M105 229.04L104.5 218M105 229.04L107.5 230.604M107.5 230.604V223.5M107.5 230.604L111 232.794M111 232.794V227.5M111 232.794L115.5 235.609M115.5 235.609V230.604M115.5 235.609L120.122 238.5M120.122 238.5V227.5M120.122 238.5L123.5 240.613M123.5 240.613V236M123.5 240.613L127 242.802M127 242.802V233.5" stroke="black"/>
<path d="M131.36 210L159.049 196.664M131.36 210L103.49 193.738M131.36 210L151 222.5L177.5 210M277 139.856L259.379 148.343M277 139.856L256.862 128.635M277 139.856L294 148.343L277 156.829M84.6108 157.993L58 167.194L75.6207 177.476M84.6108 157.993L159.049 196.664M84.6108 157.993L109.064 149.539M159.049 196.664L180.653 186.259M159.049 196.664L177.5 210M180.653 186.259L109.064 149.539M180.653 186.259L202.562 175.707M109.064 149.539L134.236 140.835M134.236 140.835L202.562 175.707M134.236 140.835L161.566 131.386M202.562 175.707L220.238 167.194M220.238 167.194L161.566 131.386M220.238 167.194L241.759 156.829M161.566 131.386L186.379 122.807M186.379 122.807L241.759 156.829M186.379 122.807L204.899 116.403M241.759 156.829L259.379 148.343M259.379 148.343L204.899 116.403M259.379 148.343L277 156.829M204.899 116.403L223.419 110L236.724 117.414M75.6207 177.476L236.724 117.414M75.6207 177.476L103.49 193.738M236.724 117.414L256.862 128.635M256.862 128.635L103.49 193.738M177.5 210L277 156.829" stroke="black"/>
<path d="M257 98.25L237.5 106L252.517 114.75M257 98.25L276.5 90.5L290.75 97.8477M257 98.25L320.75 133.25M320.75 133.25L340.5 123.5L326.5 116.281M320.75 133.25L301 143L286.5 134.551M326.5 116.281C325.3 115.663 299.333 128.203 286.5 134.551M326.5 116.281L305 105.195M286.5 134.551L267.534 123.5M267.534 123.5L305 105.195M267.534 123.5L252.517 114.75M305 105.195L290.75 97.8477M290.75 97.8477L252.517 114.75" stroke="black"/>
<path d="M289 15.5L296.25 25.75M303.5 36L296.25 25.75M296.25 25.75L312.5 15.5M296.25 25.75L278 36" stroke="white" stroke-width="4"/>
<path d="M27 107.5L20.5 82.5L46.5 89.5L27 107.5Z" stroke="white" stroke-width="4"/>
<path d="M257 220L241.79 240.5M234 251L241.79 240.5M241.79 240.5L228 230.5M241.79 240.5L252.645 247.5M263.5 254.5L252.645 247.5M252.645 247.5L260.323 237.5M252.645 247.5L247.5 254.5M268 227.5L260.323 237.5M260.323 237.5L237.5 222M260.323 237.5L269.5 244" stroke="white" stroke-width="4"/>
<path d="M313.014 141.65C297.414 144.85 281.514 140.317 275.514 137.65C254.514 122.65 291.015 128.15 297.515 121.15C304.015 114.15 278.014 111.65 271.514 111.65C265.014 111.65 255.514 103.65 265.014 99.1503C272.614 95.5503 277.514 95.6503 279.014 96.1503C279.014 96.1503 284.914 89.6503 288.514 87.6503C292.114 85.6503 299.014 87.4836 302.014 88.6503C304.681 86.6503 313.914 83.8503 329.514 88.6503C343.889 93.0734 369.558 107.176 383.281 115.232C384.69 115.841 385.777 116.524 386.514 117.15L389.5 121.15V167C390.005 167.434 382.114 164.071 346.514 147.15C341.848 143.984 328.614 138.45 313.014 141.65Z" fill="white"/>
<path d="M346.514 147.15C341.848 143.984 328.614 138.45 313.014 141.65C297.414 144.85 281.514 140.317 275.514 137.65C254.514 122.65 291.015 128.15 297.515 121.15C304.015 114.15 278.014 111.65 271.514 111.65C265.014 111.65 255.514 103.65 265.014 99.1503C272.614 95.5503 277.514 95.6503 279.014 96.1503M346.514 147.15C343.848 139.984 342.314 123.95 357.514 117.15C372.714 110.35 383.181 114.317 386.514 117.15M346.514 147.15C382.114 164.071 390.005 167.434 389.5 167V121.15L386.514 117.15M386.514 117.15C374.014 109.65 345.114 93.4503 329.514 88.6503C313.914 83.8503 304.681 86.6503 302.014 88.6503M302.014 88.6503L306.014 91.6503M302.014 88.6503C299.014 87.4836 292.114 85.6503 288.514 87.6503C284.914 89.6503 279.014 96.1503 279.014 96.1503M279.014 96.1503C279.014 96.1503 291.414 97.5503 293.014 99.1503C294.614 100.75 294.348 99.8169 294.014 99.1503" stroke="black"/>
<path d="M185.043 178.709C166.243 179.909 162.543 171.209 163.043 166.709C164.675 164.483 170.796 160.014 181.042 160.016C184.136 150.167 194.706 148.718 205.042 150.011C207.209 147.577 214.542 143.309 226.542 145.709C241.542 148.709 245.482 149.406 246.542 149.709C257.742 152.509 275.363 170.209 282.774 178.709C284.918 178.511 287.329 178.5 290.042 178.709C322.542 181.209 360.542 207.709 389.042 199.209V236.209C368.542 239.209 313.742 238.109 258.542 209.709C248.542 214.209 223.042 207.709 217.042 199.209C211.042 190.709 208.543 177.209 185.043 178.709Z" fill="white"/>
<path d="M258.542 209.709C248.542 214.209 223.042 207.709 217.042 199.209C211.042 190.709 208.543 177.209 185.043 178.709C166.243 179.909 162.543 171.209 163.043 166.709C164.675 164.483 170.796 160.014 181.042 160.016M258.542 209.709C313.742 238.109 368.542 239.209 389.042 236.209V199.209C360.542 207.709 322.542 181.209 290.042 178.709C287.329 178.5 284.918 178.511 282.774 178.709M258.542 209.709C267.708 205.584 259.233 180.881 282.774 178.709M282.774 178.709C275.363 170.209 257.742 152.509 246.542 149.709C245.482 149.406 241.542 148.709 226.542 145.709C214.542 143.309 207.209 147.577 205.042 150.011M208.542 166.709C206.042 165.042 197.842 161.409 185.043 160.209C183.638 160.077 182.305 160.016 181.042 160.016M228.042 156.709C227.518 156.185 216.422 151.436 205.042 150.011M181.042 160.016C184.136 150.167 194.706 148.718 205.042 150.011" stroke="black"/>
<path d="M209 178.111C210.167 175.611 213.2 170.711 216 171.111C219.5 171.611 219.5 165.611 225 164.611C230.5 163.611 228.5 160.611 235.5 158.111C242.5 155.611 249.5 158.111 250 158.111C250.295 158.111 255.979 160.893 261.107 164.611M263.5 177.611C265.5 173.611 268 172.944 269 173.111C268.647 172.123 268.025 171.114 267.215 170.111M267.215 170.111C267 170.111 266 169.611 264 171.111M267.215 170.111C266.453 169.168 265.526 168.229 264.5 167.316M264.5 167.316C263.333 167.248 260.6 167.411 259 168.611M264.5 167.316C263.448 166.38 262.292 165.47 261.107 164.611M261.107 164.611C260.072 164.444 257.6 164.311 256 165.111" stroke="black"/>
<path d="M297.5 111.5C298 112 304.5 109 303.5 116C302.7 121.6 298.167 124.333 296 125" stroke="black"/>
</svg>
