<svg width="386" height="590" viewBox="0 0 386 590" fill="none" xmlns="http://www.w3.org/2000/svg">
<mask id="mask0_466_50" style="mask-type:alpha" maskUnits="userSpaceOnUse" x="0" y="0" width="386" height="590">
<rect width="386" height="590" fill="#C4C4C4"/>
</mask>
<g mask="url(#mask0_466_50)">
<path d="M40.2113 341.274L144.854 208.43L220.626 266.204L281.401 247.444L285.954 250.642L179.884 385.518L118.96 403.415L114.585 399.962L40.2113 341.274Z" fill="white"/>
<path d="M220.626 266.204L144.854 208.43L40.2113 341.274L114.585 399.962M220.626 266.204L281.401 247.444M220.626 266.204C220.055 267.016 149.694 355.715 114.585 399.962M281.401 247.444L285.954 250.642L179.884 385.518L118.96 403.415L114.585 399.962M281.401 247.444L175.331 382.32L114.585 399.962M45.5369 341.222L113.363 394.173L214.943 266.764L145.749 213.61L45.5369 341.222Z" stroke="black"/>
<path d="M233.626 295.757L252 273L231.895 278.796M233.626 295.757L196.108 306.713M233.626 295.757L224.762 306.737M196.108 306.713L214.605 283.78L221.843 281.693M196.108 306.713L189.166 315.321M215.898 317.716C215.382 318.355 206.243 320.91 201.738 322.108M215.898 317.716L188.498 351.653M215.898 317.716L224.762 306.737M201.738 322.108L177.574 329.694M201.738 322.108L191.373 335.084M173.993 356.843L188.498 351.653M173.993 356.843L148.27 366.026M173.993 356.843L181.009 348.06M188.498 351.653L180.118 362.034M148.27 366.026L142.635 373.013M148.27 366.026L156.965 355.246M177.574 329.694L189.166 315.321M177.574 329.694L167.269 342.47M224.762 306.737L189.166 315.321M221.843 281.693L144.64 377.856M221.843 281.693L231.895 278.796M144.64 377.856L137 380L142.635 373.013M144.64 377.856L154.29 375.148M231.895 278.796L154.29 375.148M154.29 375.148L173.993 369.619L180.118 362.034M180.118 362.034C178.082 362.034 154.281 369.353 142.635 373.013M181.009 348.06C180.296 348.06 164.682 352.851 156.965 355.246M181.009 348.06L191.373 335.084M156.965 355.246L167.269 342.47M167.269 342.47L191.373 335.084" stroke="black"/>
<circle cx="46" cy="423" r="23.5" fill="white" stroke="black"/>
<path d="M2.40867 251.662L48.2543 211.639L59.9924 271.354L2.40867 251.662Z" fill="white" stroke="black"/>
<path d="M143.641 466.484L210.244 445.967L250.338 502.971L208.514 558.718L142.572 536.167L143.641 466.484Z" fill="white" stroke="black"/>
<path d="M135.608 64.0346L148.638 30.9491L183.806 25.6906L205.944 53.5176L192.914 86.6032L157.746 91.8616L135.608 64.0346Z" fill="white" stroke="black"/>
<path d="M117.633 125.121C109.321 133.213 92.8372 128.727 85.6345 125.472C56.8108 86.9851 76.3412 22.7342 89.7093 -4.58045L40.2123 -4.03783C5.23513 43.8485 33.0433 139.166 36.3624 146.513C45.3536 166.416 50.1587 169.364 57.468 176.784C65.9435 185.388 71.2357 201.134 80.2352 201.036C86.9056 200.963 87.2579 187.458 86.2942 185.648C92.0631 196.162 93.8215 205.088 101.972 201.798C108.903 199 110.006 189.655 107.271 183.408C109.427 186.769 111.267 189.346 112.84 189.678C117.351 190.628 126.878 193.024 123.213 178.063C120.282 166.095 107.459 154.901 101.413 150.801C103.089 151.616 109.424 151.713 121.357 145.582C136.274 137.918 128.022 115.007 117.633 125.121Z" fill="white"/>
<path d="M91.5784 165.909C98.1163 168.117 103.244 177.129 107.271 183.408M107.271 183.408C109.427 186.769 111.267 189.346 112.84 189.678C117.351 190.628 126.878 193.024 123.213 178.063C120.282 166.095 107.459 154.901 101.413 150.801C103.089 151.616 109.424 151.713 121.357 145.582C136.274 137.918 128.022 115.007 117.633 125.121C109.321 133.213 92.8372 128.727 85.6345 125.472C56.8108 86.9851 76.3412 22.7342 89.7093 -4.58045L40.2123 -4.03783C5.23513 43.8485 33.0433 139.166 36.3624 146.513C45.3536 166.416 50.1587 169.364 57.468 176.784C65.9435 185.388 71.2357 201.134 80.2352 201.036C86.9056 200.963 87.2579 187.458 86.2942 185.648M107.271 183.408C110.006 189.655 108.903 199 101.972 201.798C93.8215 205.088 92.0631 196.162 86.2942 185.648M77.6559 173.062C81.6576 177.859 84.322 182.054 86.2942 185.648" stroke="black"/>
<path d="M311.533 377.514C303.282 385.667 299.619 394.69 299.302 402.588C320.796 445.6 356.055 455.578 386.464 455.865L385.798 504.36C327.315 514.176 265.069 441.762 258.415 437.211C251.76 432.659 240.435 411.646 235.194 401.707C228.858 389.694 222.822 376.453 226.119 370.654C231.756 360.741 244.613 373.365 245.799 375.037C238.984 365.169 233.283 358.978 237 352C240.5 345.429 252.841 352.043 257.201 357.287C255.162 353.854 254.313 351.091 254.09 349.499C253.181 343 257.388 335.45 269.121 345.429C278.508 353.412 282.77 369.891 283.727 377.133C283.75 375.27 286.501 369.563 297.329 361.642C310.864 351.74 323.7 365.494 311.533 377.514Z" fill="white"/>
<path d="M265.814 379.157C266.769 372.322 261.009 363.701 257.201 357.287M257.201 357.287C255.162 353.854 254.313 351.091 254.09 349.499C253.181 343 257.388 335.45 269.121 345.429C278.508 353.412 282.77 369.891 283.727 377.133C283.75 375.27 286.501 369.563 297.329 361.642C310.864 351.74 323.7 365.494 311.533 377.514C303.282 385.667 299.619 394.69 299.302 402.588C320.796 445.6 356.055 455.578 386.464 455.865L385.798 504.36C327.315 514.176 265.069 441.762 258.415 437.211C251.76 432.659 240.435 411.646 235.194 401.707C228.858 389.694 222.822 376.453 226.119 370.654C231.756 360.741 244.613 373.365 245.799 375.037M257.201 357.287C252.841 352.043 240.5 345.429 237 352C233.283 358.978 238.984 365.169 245.799 375.037M253.181 388.399C250.685 382.672 248.129 378.41 245.799 375.037" stroke="black"/>
<path d="M297.841 123.757C281.329 111.115 254.741 124.006 243.511 132.032C241.286 134.212 237.346 137.387 239.384 132.651C241.422 127.915 258.339 115.32 266.543 109.614C315.904 97.8717 323.168 126.035 326.236 143.572C328.69 157.601 319.049 176.813 313.921 184.665L311.437 182.931C313.784 168.474 314.352 136.399 297.841 123.757Z" fill="white" stroke="black"/>
<path d="M312.328 110.866C281.939 91.8576 251.155 109.771 239.562 121.103L243.572 123.554C252.214 115.784 281.596 95.3459 311.234 115.636C334.945 131.867 326.528 165.227 319.356 179.878L322.695 181.266C331.902 165.72 342.718 129.875 312.328 110.866Z" fill="white" stroke="black"/>
<path d="M204.455 164.601C202.943 162.931 200.612 158.597 203.384 154.624L204.828 152.555C202.585 146.56 203.227 143.85 203.829 143.244L216.534 125.037C218.151 122.719 223.072 122.83 225.33 123.176L227.351 120.279C228.53 118.846 232.184 116.883 237.37 120.502L248.535 128.293C248.549 129.044 248.518 130.432 248.365 131.867C250.678 133.071 254.812 136.489 252.847 140.532C250.391 145.587 233.355 170.001 232.703 173.237C232.05 176.474 221.682 177.273 220.637 171.603C219.569 171.971 218.575 172.213 217.927 172.156C217.351 172.105 215.959 171.443 214.232 170.5C211.655 174.667 206.091 182.133 204.455 178.663C202.819 175.193 206.137 169.331 208 166.834C206.663 166.008 205.423 165.225 204.455 164.601Z" fill="white"/>
<path d="M248.365 131.867C248.518 130.432 248.549 129.044 248.535 128.293C246.974 127.204 242.556 124.122 237.37 120.502C232.184 116.883 228.53 118.846 227.351 120.279C226.734 121.163 226.056 122.136 225.33 123.176M248.365 131.867C248.265 132.816 248.11 133.785 247.88 134.604C247.301 136.662 232.381 158.861 224.993 169.704C223.986 170.229 222.23 171.055 220.637 171.603M248.365 131.867C250.678 133.071 254.812 136.489 252.847 140.532C250.391 145.587 233.355 170.001 232.703 173.237C232.05 176.474 221.682 177.273 220.637 171.603M220.637 171.603C219.569 171.971 218.575 172.213 217.927 172.156C217.351 172.105 215.959 171.443 214.232 170.5M225.33 123.176C223.072 122.83 218.151 122.719 216.534 125.037C214.917 127.354 207.39 138.14 203.829 143.244C203.227 143.85 202.585 146.56 204.828 152.555M225.33 123.176C222.45 127.303 218.824 132.498 215.334 137.5M204.828 152.555C204.205 153.448 203.713 154.153 203.384 154.624C200.612 158.597 202.943 162.931 204.455 164.601C205.423 165.225 206.663 166.008 208 166.834M204.828 152.555C205.975 150.912 207.566 148.632 209.403 146M209.403 146L220 151M209.403 146C210.019 145.117 210.662 144.195 211.326 143.244M209.403 146L211.326 143.244M211.326 143.244L217.927 146M211.326 143.244C211.941 142.362 212.574 141.455 213.218 140.532M211.326 143.244L213.218 140.532M213.218 140.532L217.927 142.5M213.218 140.532C213.913 139.537 214.621 138.522 215.334 137.5M213.218 140.532L215.334 137.5M215.334 137.5L220 139.5M208 166.834C206.137 169.331 202.819 175.193 204.455 178.663M208 166.834C210.056 168.102 212.344 169.469 214.232 170.5M204.455 178.663C206.091 182.133 211.655 174.667 214.232 170.5M204.455 178.663C194.47 181.275 174.8 190.2 176 205C177.5 223.5 197.139 232 224.993 226.5C252.847 221 321.5 227.5 333.5 267C345.5 306.5 323 363 283 345C243 327 271.5 284.5 294 302.5C316.5 320.5 330 256 275.5 264.5" stroke="black"/>
<path d="M284.156 218.372C284.846 219.838 292.269 225.674 295.895 228.409C297.984 229.252 302.856 229.945 305.628 225.972L307.072 223.903C313.473 223.94 315.796 222.402 316.157 221.629L328.862 203.422C330.479 201.104 328.677 196.524 327.574 194.524L329.595 191.627C330.534 190.026 331.115 185.919 325.929 182.3L314.764 174.509C314.055 174.755 312.762 175.263 311.468 175.901C309.541 174.146 304.906 171.445 301.789 174.685C297.892 178.734 280.856 203.148 278.043 204.877C275.23 206.605 278.057 216.613 283.739 215.638C283.763 216.766 283.879 217.783 284.156 218.372Z" fill="white"/>
<path d="M311.468 175.901C312.762 175.263 314.055 174.755 314.764 174.509C316.325 175.598 320.742 178.681 325.929 182.3C331.115 185.919 330.534 190.026 329.595 191.627C328.978 192.511 328.3 193.484 327.574 194.524M311.468 175.901C310.612 176.324 309.756 176.803 309.066 177.302C307.335 178.555 291.647 200.218 284.019 210.893C283.874 212.02 283.704 213.953 283.739 215.638M311.468 175.901C309.541 174.146 304.906 171.445 301.789 174.685C297.892 178.734 280.856 203.148 278.043 204.877C275.23 206.605 278.057 216.613 283.739 215.638M283.739 215.638C283.763 216.766 283.879 217.783 284.156 218.372C284.846 219.838 292.269 225.674 295.895 228.409C297.984 229.252 302.856 229.945 305.628 225.972C305.957 225.501 306.449 224.796 307.072 223.903M327.574 194.524C328.677 196.524 330.479 201.104 328.862 203.422C327.245 205.739 319.718 216.525 316.157 221.629C315.796 222.402 313.473 223.94 307.072 223.903M327.574 194.524C321.216 203.635 311.227 217.949 307.072 223.903M321.5 182.3C324.452 183.359 329.472 186.381 325.929 190C322.385 193.619 309.166 214.11 303 223.903C300.42 224.183 294.108 223.469 289.5 218.372C283.739 212 297.5 218.372 299 218.372C300.5 218.372 305.078 214 307.072 208" stroke="black"/>
<path d="M65.5 334.5L94 299.5L140.5 335.5L112.5 372.5L65.5 334.5Z" stroke="black"/>
<path d="M99 293.5L147 234.5L151.5 238.15L192 271L145.5 329.5L99 293.5Z" stroke="black"/>
<path d="M108.5 291.5L147.5 243.5" stroke="black"/>
<path d="M114 296L153 248" stroke="black"/>
<path d="M120 299L159 251" stroke="black"/>
<path d="M126 305L147 278.5M132.5 310L153.5 283.5M139 315L172.5 275" stroke="black"/>
<path d="M94.5 337.5C93.8333 336.167 93.2 333.3 96 332.5M120 362.5C109 354.667 86.6 338.4 85 336C83.4 333.6 81 330 80 328.5L89.5 331C90.5 329.667 92.9 326.4 94.5 324C96.1 321.6 93.1667 318.667 91.5 317.5C101 318 122.5 324.5 132.5 346.5L120 362.5Z" stroke="black"/>
<path d="M100.5 327C100.166 326.167 100.3 324.4 103.5 324" stroke="black"/>
<path d="M101.5 338C102 338.5 106.5 336.5 104.5 333.5C106 333.5 108.9 332.9 108.5 330.5" stroke="black"/>
<path d="M64 536.83C68.8453 524.773 85.8037 502.54 114.875 510.064C117.419 502.709 128.03 488 150.125 488C152.16 488 184.889 505.362 201 514.043C197.122 515.223 192.243 516.903 187.191 518.934C195.083 524.046 198.61 528.641 199.659 530.805C199.789 531.019 199.87 531.221 199.91 531.404C199.852 531.233 199.769 531.032 199.659 530.805C198.591 529.042 194.234 526.444 182.83 526.702C170.039 526.991 161.511 536.227 158.846 540.809C142.243 545.004 122.231 562.15 125.777 573C110.393 563.837 78.1724 545.221 72.3581 544.064C73.2302 544.064 75.3721 541.894 76.334 540.809C70.0254 537.938 65.1424 536.148 64 536.83Z" fill="white"/>
<path d="M114.875 510.064C85.8037 502.54 68.8453 524.773 64 536.83C65.1424 536.148 70.0254 537.938 76.334 540.809M114.875 510.064C117.419 502.709 128.03 488 150.125 488C152.16 488 184.889 505.362 201 514.043C197.122 515.223 192.243 516.903 187.191 518.934M114.875 510.064C127.958 518.986 155.067 537.626 158.846 540.809M158.846 540.809C141.04 540.085 105.79 542.255 107.244 556.723C99.2288 552.259 86.0802 545.244 76.334 540.809M158.846 540.809C142.243 545.004 122.231 562.15 125.777 573C110.393 563.837 78.1724 545.221 72.3581 544.064C73.2302 544.064 75.3721 541.894 76.334 540.809M158.846 540.809C161.511 536.227 170.039 526.991 182.83 526.702C195.622 526.413 199.546 529.716 199.91 531.404C199.304 529.602 195.912 524.584 187.191 518.934M158.846 540.809C157.777 532.935 173.151 524.579 187.191 518.934" stroke="black"/>
<path d="M72 533.5C77 526.833 91.4 513.6 109 514" stroke="black"/>
<path d="M82 533.509C87 526.842 101.4 513.609 119 514.009" stroke="black"/>
<path d="M87 536.509C92 529.842 106.4 516.609 124 517.009" stroke="black"/>
<path d="M91 540.509C96 533.842 110.4 520.609 128 521.009" stroke="black"/>
<path d="M97 546.509C102 539.842 116.4 526.609 134 527.009" stroke="black"/>
<path d="M134 523.509C139 516.842 153.4 503.609 171 504.009" stroke="black"/>
<path d="M145 526.509C150 519.842 164.4 506.609 182 507.009" stroke="black"/>
<path d="M132 516.509C137 509.842 151.4 496.609 169 497.009" stroke="black"/>
<path d="M126 513.509C131 506.842 145.4 493.609 163 494.009" stroke="black"/>
<path d="M150 483.5L149 468.5L207.5 450.5M207.5 450.5L196.5 468.5M207.5 450.5L211 457M211 457L204.5 468.5M211 457L215 463M215 463L211 471.5M215 463C215.8 464.2 218.333 468.167 219.5 470L216.5 476.5" stroke="black"/>
</g>
</svg>
