<svg width="100" height="100" viewBox="0 0 100 100" fill="none" xmlns="http://www.w3.org/2000/svg">
<rect width="100" height="100" rx="11" fill="#D480F1"/>
<path d="M60.1459 39.9976C62.2503 39.9352 64.2474 39.0651 65.7137 37.5718C67.1799 36.0786 68 34.0796 68 31.9988C68 29.918 67.1799 27.919 65.7137 26.4258C64.2474 24.9325 62.2503 24.0624 60.1459 24H43.9568C41.8523 24.0624 39.8552 24.9325 38.389 26.4258C36.9227 27.919 36.1026 29.918 36.1026 31.9988C36.1026 34.0796 36.9227 36.0786 38.389 37.5718C39.8552 39.0651 41.8523 39.9352 43.9568 39.9976C41.8339 40.0339 39.8104 40.8929 38.3222 42.3895C36.8339 43.886 36 45.9004 36 47.9988C36 50.0972 36.8339 52.1116 38.3222 53.6081C39.8104 55.1047 41.8339 55.9637 43.9568 56C41.8443 56.0512 39.8357 56.9165 38.3599 58.4112C36.8842 59.9059 36.0581 61.9116 36.0581 64C36.0581 66.0884 36.8842 68.0941 38.3599 69.5888C39.8357 71.0835 41.8443 71.9488 43.9568 72C46.1036 71.9987 48.1621 71.1551 49.6799 69.6546C51.1977 68.1541 52.0507 66.1194 52.0513 63.9976V39.9976H60.1459Z" fill="white"/>
<path d="M60 56C64.4183 56 68 52.4183 68 48C68 43.5817 64.4183 40 60 40C55.5817 40 52 43.5817 52 48C52 52.4183 55.5817 56 60 56Z" fill="white"/>
</svg>
