<svg width="278" height="355" viewBox="0 0 278 355" fill="none" xmlns="http://www.w3.org/2000/svg">
<path fill-rule="evenodd" clip-rule="evenodd" d="M159.287 14.2197C163.122 15.1267 166.856 16.172 170.434 17.3647C182.548 21.4028 192.425 26.9786 198.564 34.1557C204.5 41.0939 207.217 49.8204 204.624 61.2521C201.961 72.9886 193.632 87.7883 176.707 106.091C159.126 125.102 150.684 141.994 149.608 157.016C148.514 172.286 155.088 184.663 165.345 194.283C175.49 203.799 189.389 210.801 203.722 215.795C207.92 217.257 212.184 218.558 216.442 219.704C199.785 223.889 182.41 231.509 167.377 244.111C142.51 264.957 124.656 298.931 126.503 351.675L136.497 351.325C134.744 301.269 151.579 270.403 173.801 251.775C188.158 239.739 205.014 232.606 221.12 228.86C210.197 233.18 199.276 238.844 189.116 246.121C159.774 267.137 137.018 301.475 138.881 354.661L148.875 354.311C147.137 304.697 168.131 273.452 194.939 254.251C222.014 234.858 255.253 227.629 277.523 226.984L277.964 217.02C265.555 215.556 251.107 212.588 237.512 207.852C223.86 203.095 211.411 196.673 202.686 188.489C194.071 180.409 189.252 170.81 190.082 159.231C190.93 147.403 197.729 132.569 214.549 114.38C232.125 95.3735 240.162 78.5896 240.293 63.7441C240.427 48.6404 232.391 36.8303 220.855 27.9382C209.398 19.1066 194.101 12.8058 178.44 8.44837C172.801 6.87949 167.07 5.55023 161.391 4.44152C151.759 2.17614 141.667 0.756026 131.877 0.0144043L131.122 9.98583C131.259 9.99624 131.397 10.0068 131.534 10.0175L131.5 10.4714C140.093 11.1224 149.623 12.3409 159.287 14.2197ZM214.372 208.725C207.486 205.05 201.152 200.76 195.845 195.783C185.588 186.163 179.014 173.786 180.108 158.516C181.184 143.494 189.626 126.602 207.207 107.591C224.03 89.3979 230.194 74.9151 230.294 63.6555C230.391 52.654 224.69 43.5202 214.75 35.8582C213.128 34.6081 211.404 33.4066 209.59 32.2531C215.1 40.8331 217.146 51.2532 214.376 63.4645C211.159 77.6429 201.524 93.9831 184.049 112.88C167.229 131.069 160.43 145.903 159.582 157.731C158.752 169.31 163.571 178.909 172.186 186.989C180.911 195.173 193.36 201.595 207.012 206.352C209.443 207.199 211.902 207.989 214.372 208.725Z" fill="white" fill-opacity="0.4"/>
<path d="M122.29 108.289L139.385 102.932L135.733 99.3358L153.7 84.7486L158.915 89.8865C170.1 73.6635 202.398 39.901 232.728 25.3861C218.672 55.9313 185.4 88.7347 169.347 100.162L174.563 105.3L160.248 123.484L156.597 119.887L151.499 137.061L103.604 156.47L122.29 108.289Z" fill="white"/>
<path d="M103.604 156.47L122.29 108.289L139.385 102.932L135.733 99.3358L153.7 84.7486L158.915 89.8865C170.1 73.6635 202.398 39.901 232.728 25.3861C218.672 55.9313 185.4 88.7347 169.347 100.162L174.563 105.3L160.248 123.484L156.597 119.887L151.499 137.061L103.604 156.47ZM103.604 156.47L131.598 128.051M131.598 128.051C130.201 126.339 128.215 122.096 131.443 118.819C134.671 115.542 138.776 117.635 140.425 119.091C141.906 120.717 144.06 124.79 140.832 128.067C137.604 131.344 133.331 129.422 131.598 128.051Z" stroke="black"/>
<circle cx="50" cy="156" r="49.5" transform="rotate(90 50 156)" fill="white" stroke="black"/>
<path d="M99.5 101V156.5V212L105 218L99.5 224L93.5 218L99.5 212V156.5V101L93.5 95L99.5 89L105 95L99.5 101Z" fill="white"/>
<path d="M99.5 101C99.5 101 99.5 134.826 99.5 156.5C99.5 178.174 99.5 212 99.5 212M99.5 101L105 95L99.5 89L93.5 95L99.5 101ZM99.5 212L105 218L99.5 224L93.5 218L99.5 212Z" stroke="black"/>
<circle cx="100" cy="156" r="3.5" transform="rotate(90 100 156)" fill="white" stroke="black"/>
<path d="M57.5 41.618L62.3006 56.3926L62.4128 56.7381H62.7761H78.311L65.743 65.8693L65.4491 66.0828L65.5613 66.4283L70.3619 81.2029L57.7939 72.0717L57.5 71.8582L57.2061 72.0717L44.6381 81.2029L49.4387 66.4283L49.5509 66.0828L49.257 65.8693L36.689 56.7381H52.2239H52.5872L52.6994 56.3926L57.5 41.618Z" fill="white" stroke="black"/>
<path d="M224.044 58.1706L224.2 58.8612L224.798 58.4832L240.316 48.6843L230.517 64.2017L230.139 64.8004L230.829 64.9564L248.731 69L230.829 73.0436L230.139 73.1996L230.517 73.7983L240.316 89.3157L224.798 79.5168L224.2 79.1388L224.044 79.8294L220 97.7307L215.956 79.8294L215.8 79.1388L215.202 79.5168L199.684 89.3157L209.483 73.7983L209.861 73.1996L209.171 73.0436L191.269 69L209.171 64.9564L209.861 64.8004L209.483 64.2017L199.684 48.6843L215.202 58.4832L215.8 58.8612L215.956 58.1706L220 40.2693L224.044 58.1706Z" fill="white" stroke="black"/>
<path d="M200 160V193.5H193H174H153H132H114.5H108V160H200Z" fill="white"/>
<path d="M114.5 193.5H108V160H200V193.5H193M114.5 193.5V168.5M114.5 193.5H132M132 193.5V181M132 193.5H153M153 193.5V181M153 193.5H174M174 193.5V181M174 193.5H193M193 193.5V168.5" stroke="black"/>
<path d="M13 168.5L3.5 172.5L4.5 174.5M4.5 174.5L8 173M4.5 174.5L5.5 177M5.5 177L8.5 175.5M5.5 177L6.5 179M6.5 179L8 178M6.5 179L10 184.5M10 184.5L18 180.5M10 184.5L12 187M12 187L18 184M12 187L14 189.5L17 188" stroke="black"/>
<path d="M94 153.5C93 143 84.6 120.4 59 114" stroke="black"/>
<path d="M140.5 99.5L160 119L170 107" stroke="black"/>
<path d="M172.5 77.5C172 78 162 88 161 91L167.5 97.5C173.167 93 185.4 83 189 79" stroke="black"/>
</svg>
