<svg width="232" height="100" viewBox="0 0 232 100" fill="none" xmlns="http://www.w3.org/2000/svg">
<path fill-rule="evenodd" clip-rule="evenodd" d="M6.24975 3.12549H31.2497V6.25102H34.3749V17.7589H21.8749V15.6254H15.6248V31.2503H21.8749V28.126H34.3749V39.6338H31.2497V43.7503H6.24975V40.6259H3.12488V6.25102H6.24975V3.12549ZM68.7497 46.8752H59.3747V50.0007H53.1249V56.2506H46.8745V90.6255H53.1249V95.8831H59.3747V100H68.7497V90.6251H62.4998V84.3752H56.2495V61.5086H62.4998V56.2502H68.7497V46.8752ZM209.374 46.8752H218.749V50.0007H224.999V56.2506H231.249V90.6255H224.999V95.8831H218.749V100H209.374V90.6251H215.624V84.3752H221.874V61.5086H215.624V56.2502H209.374V46.8752ZM118.75 3.12573H106.25V12.5007H118.75V3.12573ZM118.75 15.6252H106.25V43.7501H118.75V15.6252ZM40.6252 3.12549H65.6251V6.25102H68.7501V40.6259H65.6251V43.7503H40.6252V40.6259H37.5001V6.25102H40.6252V3.12549ZM50 15.6254H56.2501V31.2503H50V15.6254ZM134.374 53.1251H109.375V56.2506H106.25V93.7505H118.75V84.3745H125V93.7505H137.5V56.2506H134.374V53.1251ZM125 65.6251H118.75V71.8745H125V65.6251ZM71.8746 53.1251H84.3745H99.9995V56.2506H103.124V81.2505H99.9995V84.3745H84.3745V93.4027H71.8746V84.3745V71.8745V65.6251V53.1251ZM84.3745 65.6251H90.6243V71.8745H84.3745V65.6251ZM149.999 53.1251H140.624V65.6251H149.999V93.75H162.499V65.6251H171.874V53.1251H162.499H149.999ZM71.8746 15.626V15.6254V6.25102V3.12549H84.3745H96.8745V6.25102H99.9995V9.37538H103.124V38.1451H99.9995V40.6253H96.8745V43.7503H71.8746V43.4031V40.6253V31.2503V15.626ZM90.6243 15.626V31.2503H84.3745V15.626H90.6243ZM159.374 3.12573H184.374V6.25126H187.499V17.7592H174.999V15.6257H168.749V31.2506H174.999V28.1262H187.499V39.6341H184.374V43.7505H159.374V40.6261H156.249V6.25126H159.374V3.12573ZM187.499 21.8752H171.874V28.1252H187.499V21.8752ZM121.874 3.12549H134.374V18.7505H137.499V21.8761H140.624V25.0004H140.624V3.12549H153.124V43.7503H140.624V37.5009V34.3754H137.499V31.251H134.374V43.7503H121.874V3.12549ZM174.999 53.1251H187.499V68.7501H193.749V53.1251H206.249V93.75H193.749V81.2501H187.499V93.75H174.999V53.1251ZM212.499 6.25058H218.749V9.37494H221.874V12.5005H224.999V15.6248H228.124V18.7501H231.249V21.8756H231.249V28.1256H228.124V31.2511H224.999V34.3749H221.874V37.5005H218.749V40.626H212.499V31.251H215.624V28.1255H218.749V25H221.874V21.8754H218.749V18.7499H215.624V15.6255H212.499V6.25058ZM190.624 12.5005H209.374V21.8754H190.624V12.5005ZM224.999 25.0001V25.0012H224.999V25.0001H224.999ZM190.624 25H209.374V34.3749H190.624V25Z" fill="#3A396B"/>
<path fill-rule="evenodd" clip-rule="evenodd" d="M206.249 43.7495H215.624V46.875H221.874V53.1246H228.124V87.4995H221.874V92.7574H215.624V96.8743H206.249V87.4994H212.499V81.2495H218.749V58.3829H212.499V53.1245H206.249V43.7495Z" fill="#1CCE98"/>
<path fill-rule="evenodd" clip-rule="evenodd" d="M65.6248 43.7495H56.2498V46.875H50V53.1249H43.7499V87.4998H50V92.7574H56.2498V96.8743H65.6248V87.4994H59.3749V81.2495H53.1249V58.3829H59.3749V53.1245H65.6248V43.7495Z" fill="#1CCE98"/>
<path fill-rule="evenodd" clip-rule="evenodd" d="M28.1248 0H3.12487V3.12553H0V37.5004H3.12487V40.6248H28.1248V36.5084H31.25V25.0005H18.7501V28.1248H12.5V12.5H18.7501V14.6334H31.25V3.12553H28.1248V0Z" fill="#675CE9"/>
<path fill-rule="evenodd" clip-rule="evenodd" d="M115.625 0H103.125V9.37497H115.625V0ZM115.625 12.4995H103.125V40.6244H115.625V12.4995Z" fill="#675CE9"/>
<path fill-rule="evenodd" clip-rule="evenodd" d="M62.5002 0H37.5003V3.12553H34.3751V37.5004H37.5003V40.6248H62.5002V37.5004H65.6251V3.12553H62.5002V0ZM53.1251 12.5H46.8751V28.1248H53.1251V12.5Z" fill="#675CE9"/>
<path fill-rule="evenodd" clip-rule="evenodd" d="M131.25 49.9995H106.25V53.125H103.125V90.6249H115.625V81.25H121.875V90.6249H134.375V53.125H131.25V49.9995ZM121.875 62.4995H115.625V68.7501H121.875V62.4995Z" fill="#F56450"/>
<path fill-rule="evenodd" clip-rule="evenodd" d="M81.2496 49.9995H68.7496V62.4995V90.2771H81.2496V81.25H96.8746V78.1249H99.9997V53.125H96.8745V49.9995H81.2496ZM87.4997 62.4995H81.2496V68.75H87.4997V62.4995Z" fill="#F9AC3A"/>
<path fill-rule="evenodd" clip-rule="evenodd" d="M159.374 49.9995H146.874V49.9996H137.5V62.4995H146.874V90.6244H159.374V62.4995H168.749V49.9996H159.374V49.9995Z" fill="#D8589D"/>
<path fill-rule="evenodd" clip-rule="evenodd" d="M68.7498 3.12553H68.7498V12.5005H68.7498V28.1248H68.7498V37.4998V40.6248H93.7497V37.4998H96.8747V35.0196H99.9997V6.2499H96.8747V3.12553H93.7497V0H81.2497H68.7498V3.12553ZM87.4997 28.1248V12.5005H81.2497V28.1248H87.4997Z" fill="#675CE9"/>
<path fill-rule="evenodd" clip-rule="evenodd" d="M156.25 0H181.25V3.12553H184.375V14.6334H171.875V12.5H165.624V28.1248H171.875V25.0005H168.75V18.7506H184.375V25.0005H184.375V36.5084H181.25V40.6248H156.25V37.5004H153.125V3.12553H156.25V0Z" fill="#675CE9"/>
<path fill-rule="evenodd" clip-rule="evenodd" d="M131.5 0H119V40.6249H131.5V28.1255H134.375V31.2499H137.499V34.3754V40.6249H149.999V0H137.499V18.7506H134.374V15.625H131.5V0Z" fill="#675CE9"/>
<path fill-rule="evenodd" clip-rule="evenodd" d="M190.624 49.9995H203.124V90.6244H190.624V78.1245H184.374V90.6244H171.875V49.9996H184.374V65.6245H190.624V49.9995Z" fill="#5272E4"/>
<path fill-rule="evenodd" clip-rule="evenodd" d="M215.624 3.12549H209.374V12.5005H212.499V15.626H215.624V18.7503H218.749V21.875H221.874V21.8761H221.874H218.749H215.624V25.0004H212.499V28.126H209.374V37.5009H215.624V34.3754H218.749V31.251H221.874V28.126H224.999V25.0005H228.124V18.7505H228.124V15.625H224.999V12.5009H221.874V9.37538H218.749V6.25102H215.624V3.12549ZM206.249 9.37538H187.499V18.7503H206.249V9.37538ZM206.249 21.8761H187.499V31.251H206.249V21.8761Z" fill="#1CCE98"/>
</svg>
