<svg width="1947" height="941" viewBox="0 0 1947 941" fill="none" xmlns="http://www.w3.org/2000/svg">
<path d="M94.0812 10C155.581 42.6667 271.181 129.7 241.581 216.5C204.581 325 -128.419 439 56.5812 736.5C241.581 1034 652.581 829 687.581 711.5C714.416 621.412 548.081 562.5 448.081 673.5C348.081 784.5 516.081 912.5 779.581 829C1043.08 745.5 1135.58 826.5 1177.58 846C1219.58 865.5 1344.58 1012.5 1596.58 893.5C1848.58 774.5 1708 713.5 1935.5 593" stroke="white" stroke-width="2" stroke-dasharray="30 30"/>
<path d="M1879 925.5C1883.5 925.5 1912.5 921 1935 925.5C1935 923.5 1926 883.5 1930.5 871" stroke="white" stroke-width="2"/>
<path d="M1777.72 626.299C1825.35 630.528 1921.45 639.342 1924.78 640.762L1838.01 712.303L1821.74 689.659L1806.69 696.622L1796.9 654.519L1777.72 626.299Z" fill="white"/>
<path d="M1924.78 640.762C1921.45 639.342 1825.35 630.528 1777.72 626.299L1796.9 654.519M1924.78 640.762L1838.01 712.303L1821.74 689.659M1924.78 640.762L1814.08 679.003M1924.78 640.762C1882.8 645.54 1798.44 654.98 1796.9 654.519M1796.9 654.519L1806.69 696.622M1806.69 696.622L1814.08 679.003M1806.69 696.622L1821.74 689.659M1814.08 679.003L1821.74 689.659" stroke="black"/>
<path d="M105.23 138.945L124.813 136.909C137.31 116.212 165.013 73.9539 175.845 70.5055C189.385 66.195 206.26 86.3474 217.356 111.851C228.453 137.355 230.103 162.125 218.382 167.434C209.547 171.436 173.589 167.009 151.375 163.359L165.448 191.411L156.374 195.521L131.097 164.866L121.5 174.864C114.841 170.893 102.264 158.151 105.23 138.945Z" fill="white"/>
<path d="M124.813 136.909L105.23 138.945C102.264 158.151 114.841 170.893 121.5 174.864L131.097 164.866M124.813 136.909C137.31 116.212 165.013 73.9539 175.845 70.5055M124.813 136.909C124.25 138.683 123.815 143.559 126.584 148.866M175.845 70.5055C189.385 66.195 206.26 86.3474 217.356 111.851C228.453 137.355 230.103 162.125 218.382 167.434M175.845 70.5055C169.964 73.5446 162.028 85.2456 168.605 109.567M218.382 167.434C209.547 171.436 173.589 167.009 151.375 163.359M218.382 167.434C212.204 168.754 198.312 165.175 184.512 144.41M131.097 164.866L135.431 160.351C138.331 161.057 144.12 162.166 151.375 163.359M131.097 164.866L156.374 195.521L165.448 191.411L151.375 163.359M168.605 109.567C170.012 114.77 172.083 120.549 174.98 126.945C178.087 133.803 181.297 139.573 184.512 144.41M168.605 109.567C175.287 112.463 187.822 123.485 184.512 144.41" stroke="black"/>
<path d="M202.044 65.2352L213.657 64.9469L208.818 49.4544L218.05 50.3696L213.864 29.6635L237.37 29.0458L231.44 0.352" stroke="white"/>
<path d="M226.401 104.442L236.498 113.414L244.682 96.4103L251.8 104.515L264.677 83.6L285.139 101.731L302.873 72.6441" stroke="white"/>
<path d="M235.128 164.691L240.343 157.37L249.649 168.977L252.953 162.53L266.373 176.573L276.953 161.774L295.495 181.318" stroke="white"/>
<path d="M201.785 885.989C194.894 841.88 189.106 816.759 175 771.069C251.689 757.446 293.995 747.474 368.319 726.011C375.919 771.858 382.317 796.838 395.103 840.931C318.416 855.28 275.997 864.923 201.785 885.989Z" fill="white"/>
<path d="M175 771.069C189.106 816.759 194.894 841.88 201.785 885.989C275.997 864.923 318.416 855.28 395.103 840.931C382.317 796.838 375.919 771.858 368.319 726.011M175 771.069C251.689 757.446 293.995 747.474 368.319 726.011M175 771.069L286.628 798.445L368.319 726.011" stroke="black"/>
<path d="M383.802 815C385.033 823.5 386.15 828.204 388.802 836.5C379.692 837.958 374.804 839.106 366.302 841.5" stroke="black"/>
<path d="M193.802 819.5C196.959 830.134 198.323 836.421 200.302 848" stroke="black"/>
<path d="M377.302 719L405.802 694" stroke="white"/>
<path d="M381.802 726.425L417.908 714.868" stroke="white"/>
<path d="M279.801 803.5C285.635 802.667 298.801 803.499 296.801 803.499C294.301 803.499 271.801 810.499 281.801 812.499C291.801 814.499 301.301 811.999 299.801 815.499C298.301 818.999 284.801 822.999 290.801 826.499" stroke="black"/>
<path d="M1765.5 14C1773.47 18.0806 1883.66 19.529 1939.5 14L1927.5 27.5L1945.5 24C1940.59 59.639 1941.06 79.4198 1945.5 114.5" stroke="white" stroke-width="2"/>
</svg>
