<svg width="245" height="352" viewBox="0 0 245 352" fill="none" xmlns="http://www.w3.org/2000/svg">
<path d="M239.97 5.44759C218.303 3.61426 167.77 6.44759 138.97 32.4476C102.97 64.9476 212.97 66.4476 234.47 46.9476C255.97 27.4476 97.4701 22.9476 76.9701 93.9476C56.4701 164.948 201.97 167.448 234.47 136.448C266.97 105.448 112.47 84.4476 81.9702 171.448C51.4702 258.448 211.47 255.948 230.47 230.948C249.47 205.948 125.47 182.448 90.9702 235.448C56.4702 288.448 191.47 293.948 170.97 349.448" stroke="white" stroke-opacity="0.56" stroke-width="10"/>
<path d="M6.58708 55L175.441 64.2739L171.716 159.485L222 198.436V204L50.6629 194.726L1 155.158L1.31039 149.593L6.58708 55Z" fill="white"/>
<path d="M171.716 159.485L175.441 64.2739L6.58708 55L1.31039 149.593M171.716 159.485L222 198.436M171.716 159.485C170.723 159.485 57.6985 152.891 1.31039 149.593M222 198.436V204L50.6629 194.726L1 155.158L1.31039 149.593M222 198.436L50.6629 189.162L1.31039 149.593M9.69101 59.3278L5.34551 145.266L167.992 155.158L171.716 67.9834L9.69101 59.3278Z" stroke="black"/>
<path d="M144 14.4408L148.663 27.0418L148.743 27.2574L148.958 27.3372L161.559 32L148.958 36.6628L148.743 36.7426L148.663 36.9582L144 49.5592L139.337 36.9582L139.257 36.7426L139.042 36.6628L126.441 32L139.042 27.3372L139.257 27.2574L139.337 27.0418L144 14.4408Z" fill="white" stroke="black"/>
<path d="M12 139.5L16 65.5L96 70.5L91.5 144L12 139.5Z" stroke="black"/>
<path d="M101 144L105 71L166.5 75L162.5 148L101 144Z" stroke="black"/>
<path d="M20 94L21 75.5L90 80L89 98L20 94Z" stroke="black"/>
<path d="M19 118.5L20 100L89 104.5L88 122.5L19 118.5Z" stroke="black"/>
<path d="M20.5 94C20.5 93.2 25.1667 87 27.5 84M29.5 89L25.5 94L32 94.5M32 94.5L39 85M32 94.5L37.5 95M37.5 95L40.5 90M37.5 95L44 95.5L45.5 93" stroke="black"/>
<path d="M19.5 118.5C19.5 117.7 24.1667 111.5 26.5 108.5M28.5 113.5L24.5 118.5L31 119M31 119L38 109.5M31 119L36.5 119.5M36.5 119.5L39.5 114.5M36.5 119.5L43 120L44.5 117.5" stroke="black"/>
<path d="M205.231 155.938L201.364 119.771L234.619 134.506L205.231 155.938Z" fill="white" stroke="black"/>
<circle cx="134" cy="104" r="20.5" fill="white" stroke="black"/>
<path d="M135.5 99.5C135.5 99.5 142.509 92.491 147 88L148.5 89.5M148.5 89.5L143 95.5M148.5 89.5L150 91.5M150 91.5L146.5 95.5M150 91.5C152.833 94.8333 157.2 103.9 152 113.5M152 113.5L148 111M152 113.5L150.5 116L148 114.5" stroke="black"/>
<path d="M59.3606 156.919L44 156L50.0114 161.201M59.3606 156.919L80.3408 176.537M59.3606 156.919L73.9718 157.794M80.3408 176.537L66.8535 175.775L58.4324 168.488M80.3408 176.537L93.0789 177.257M93.0789 177.257L73.9718 157.794M93.0789 177.257L108.814 178.146M73.9718 157.794L89.707 158.735M89.707 158.735L108.814 178.146M89.707 158.735L104.318 159.61M108.814 178.146L122.301 178.908M122.301 178.908L104.318 159.61M122.301 178.908L136.538 179.713M104.318 159.61L117.431 160.394M117.431 160.394L136.538 179.713M117.431 160.394L130.918 161.201M136.538 179.713L148.152 180.37M148.152 180.37L130.918 161.201M148.152 180.37L163.5 181M130.918 161.201L143.656 161.964M163.5 181L177 182L167.821 174.205M163.5 181C156.5 173.613 151.5 169 143.656 161.964M143.656 161.964L154.146 162.592L158.642 166.41M50.0114 161.201C50.7161 161.811 122.726 164.928 158.642 166.41M50.0114 161.201L58.4324 168.488M158.642 166.41L167.821 174.205M167.821 174.205L58.4324 168.488" stroke="black"/>
</svg>
