<svg width="76" height="76" viewBox="0 0 76 76" fill="none" xmlns="http://www.w3.org/2000/svg">
<mask id="mask0_364_72" style="mask-type:alpha" maskUnits="userSpaceOnUse" x="5" y="0" width="66" height="76">
<path d="M36 1.1547C37.2376 0.44017 38.7624 0.440169 40 1.1547L68.909 17.8453C70.1466 18.5598 70.909 19.8803 70.909 21.3094V54.6906C70.909 56.1197 70.1466 57.4402 68.909 58.1547L40 74.8453C38.7624 75.5598 37.2376 75.5598 36 74.8453L7.09103 58.1547C5.85343 57.4402 5.09103 56.1197 5.09103 54.6906V21.3094C5.09103 19.8803 5.85343 18.5598 7.09103 17.8453L36 1.1547Z" fill="#67FFAD"/>
</mask>
<g mask="url(#mask0_364_72)">
<path d="M38 0L70.909 19V57L38 76L5.09103 57V19L38 0Z" fill="#67FFAD"/>
<path d="M37.9998 36.86L70.9088 19V57L37.9998 76L5.09082 57V19L37.9998 36.86Z" fill="#30CB77"/>
<path d="M70.909 19L38 36.86V76L70.909 57V19Z" fill="#42F393"/>
<path d="M18.394 56.3857L27.1822 61.1573" stroke="white" stroke-width="1.5" stroke-linecap="round" stroke-linejoin="round"/>
<path d="M14 49V36C14 35.4696 14.1852 35.0614 14.5148 34.8653C14.8444 34.6692 15.2915 34.7012 15.7576 34.9543L29.8187 42.5889C30.2849 42.842 30.7319 43.2954 31.0615 43.8494C31.3912 44.4035 31.5763 45.0127 31.5763 45.5432V58.5432C31.5763 59.0736 31.3912 59.4818 31.0615 59.6779C30.7319 59.874 30.2849 59.842 29.8187 59.5889L15.7576 51.9543C15.2915 51.7012 14.8444 51.2478 14.5148 50.6937C14.1852 50.1397 14 49.5304 14 49Z" stroke="white" stroke-width="1.5"/>
<path d="M55.074 48.9578V47.3328C55.074 47.2143 55.0412 47.1353 54.9758 47.0957C54.9104 47.0562 54.8268 47.065 54.725 47.122L52.631 48.2947V45.8572C52.631 45.7387 52.5983 45.6597 52.5328 45.6201C52.4674 45.5806 52.3838 45.5893 52.282 45.6464L50.886 46.4281C50.7842 46.4852 50.7006 46.5701 50.6351 46.6829C50.5697 46.7957 50.537 46.9114 50.537 47.0298V49.4673L48.443 50.64C48.3412 50.697 48.2576 50.782 48.1921 50.8948C48.1267 51.0076 48.094 51.1232 48.094 51.2417V52.8667C48.094 52.9852 48.1267 53.0642 48.1921 53.1038C48.2576 53.1433 48.3412 53.1345 48.443 53.0775L50.537 51.9048V54.3423C50.537 54.4608 50.5697 54.5398 50.6351 54.5794C50.7006 54.6189 50.7842 54.6102 50.886 54.5531L52.282 53.7714C52.3838 53.7143 52.4674 53.6294 52.5328 53.5166C52.5983 53.4038 52.631 53.2881 52.631 53.1697V50.7322L54.725 49.5595C54.8268 49.5025 54.9104 49.4175 54.9758 49.3047C55.0412 49.1919 55.074 49.0763 55.074 48.9578ZM61.3559 46.2522C61.3559 45.8036 61.2196 45.497 60.9469 45.3323C60.6743 45.1676 60.3453 45.1932 59.9599 45.409C59.5746 45.6248 59.2456 45.9677 58.9729 46.4378C58.7003 46.9079 58.5639 47.3672 58.5639 47.8158C58.5639 48.2644 58.7003 48.571 58.9729 48.7357C59.2456 48.9004 59.5746 48.8748 59.9599 48.659C60.3453 48.4432 60.6743 48.1002 60.9469 47.6302C61.2196 47.1601 61.3559 46.7008 61.3559 46.2522ZM64.1479 41.4386C64.1479 40.99 64.0116 40.6834 63.7389 40.5187C63.4663 40.354 63.1373 40.3796 62.7519 40.5954C62.3666 40.8112 62.0376 41.1542 61.7649 41.6242C61.4923 42.0943 61.3559 42.5536 61.3559 43.0022C61.3559 43.4508 61.4923 43.7574 61.7649 43.9221C62.0376 44.0868 62.3666 44.0612 62.7519 43.8454C63.1373 43.6296 63.4663 43.2867 63.7389 42.8166C64.0116 42.3465 64.1479 41.8872 64.1479 41.4386ZM66.9399 41.5C66.9399 43.2943 66.3946 45.1316 65.304 47.0119C64.2134 48.8922 62.8973 50.264 61.3559 51.1272C59.9599 51.909 58.7312 52.0555 57.6696 51.5666L55.2703 52.9103C54.2087 54.5882 52.98 55.818 51.584 56.5998C50.0426 57.463 48.7266 57.5652 47.6359 56.9065C46.5453 56.2477 46 55.0212 46 53.2269C46 51.4327 46.5453 49.5954 47.6359 47.7151C48.7266 45.8348 50.0426 44.463 51.584 43.5998L61.3559 38.1272C62.8973 37.264 64.2134 37.1617 65.304 37.8205C66.3946 38.4792 66.9399 39.7057 66.9399 41.5Z" fill="white"/>
</g>
</svg>
