<svg width="86" height="87" viewBox="0 0 86 87" fill="none" xmlns="http://www.w3.org/2000/svg">
<ellipse cx="43" cy="43.5" rx="43" ry="43.5" fill="url(#paint0_radial_366_665)"/>
<path d="M35.4123 31.2044C35.5875 31.0301 35.7265 30.8231 35.8213 30.5954C35.9162 30.3677 35.965 30.1236 35.965 29.8771C35.965 29.6306 35.9162 29.3865 35.8213 29.1587C35.7265 28.931 35.5875 28.7241 35.4123 28.5498C35.2371 28.3755 35.0292 28.2372 34.8002 28.1429C34.5713 28.0486 34.326 28 34.0782 28C33.8304 28 33.5851 28.0486 33.3562 28.1429C33.1273 28.2372 32.9193 28.3755 32.7441 28.5498L19.5536 41.6727C19.3781 41.8469 19.2389 42.0537 19.1439 42.2815C19.0489 42.5092 19 42.7534 19 43C19 43.2466 19.0489 43.4908 19.1439 43.7185C19.2389 43.9463 19.3781 44.1531 19.5536 44.3273L32.7441 57.4502C33.0979 57.8022 33.5778 58 34.0782 58C34.5786 58 35.0585 57.8022 35.4123 57.4502C35.7662 57.0982 35.965 56.6208 35.965 56.1229C35.965 55.6251 35.7662 55.1477 35.4123 54.7956L23.5522 43L35.4123 31.2044ZM51.5877 31.2044C51.2338 30.8523 51.035 30.3749 51.035 29.8771C51.035 29.3792 51.2338 28.9018 51.5877 28.5498C51.9415 28.1978 52.4214 28 52.9218 28C53.4222 28 53.9021 28.1978 54.2559 28.5498L67.4464 41.6727C67.6219 41.8469 67.7611 42.0537 67.8561 42.2815C67.9511 42.5092 68 42.7534 68 43C68 43.2466 67.9511 43.4908 67.8561 43.7185C67.7611 43.9463 67.6219 44.1531 67.4464 44.3273L54.2559 57.4502C53.9021 57.8022 53.4222 58 52.9218 58C52.4214 58 51.9415 57.8022 51.5877 57.4502C51.2338 57.0982 51.035 56.6208 51.035 56.1229C51.035 55.6251 51.2338 55.1477 51.5877 54.7956L63.4478 43L51.5877 31.2044Z" fill="white"/>
<defs>
<radialGradient id="paint0_radial_366_665" cx="0" cy="0" r="1" gradientUnits="userSpaceOnUse" gradientTransform="translate(26.66 20.88) rotate(76.1188) scale(68.1091 67.4169)">
<stop stop-color="#675CE9"/>
<stop offset="0.802083" stop-color="#3F379C"/>
<stop offset="1" stop-color="#262255"/>
</radialGradient>
</defs>
</svg>
