<svg width="122" height="122" viewBox="0 0 122 122" fill="none" xmlns="http://www.w3.org/2000/svg">
<circle cx="61" cy="61" r="61" fill="url(#paint0_radial_366_663)"/>
<path d="M61.4873 34C60.7116 34 59.936 34.1904 59.2666 34.5712L38.21 46.6712C36.85 47.4538 36 48.9346 36 50.5V72.4577C36 74.0442 36.85 75.5038 38.21 76.2865L43.735 79.4596C46.4125 80.7712 47.3688 80.7712 48.58 80.7712C52.5538 80.7712 54.8275 78.3808 54.8275 74.2346V51.5788C54.8275 51.4161 54.7626 51.2601 54.647 51.1451C54.5314 51.03 54.3747 50.9654 54.2113 50.9654H51.555C51.4738 50.9642 51.3931 50.9793 51.3178 51.0098C51.2425 51.0402 51.1741 51.0853 51.1167 51.1425C51.0592 51.1997 51.0139 51.2678 50.9833 51.3427C50.9528 51.4177 50.9376 51.498 50.9387 51.5788V74.2135C50.9387 76.075 49.005 77.8942 45.8812 76.35L40.1012 73.0288C39.9976 72.9736 39.9111 72.8912 39.8512 72.7905C39.7912 72.6898 39.7601 72.5747 39.7613 72.4577V50.5212C39.7613 50.2673 39.8887 50.0558 40.1012 49.9288L61.16 37.8288C61.2586 37.7668 61.3728 37.7339 61.4894 37.7339C61.606 37.7339 61.7202 37.7668 61.8187 37.8288L82.8775 49.9288C83.09 50.0558 83.2175 50.2673 83.2175 50.5V72.4577C83.2175 72.6904 83.09 72.9231 82.8988 73.0288L61.8187 85.15C61.7168 85.202 61.6039 85.2291 61.4894 85.2291C61.3748 85.2291 61.2619 85.202 61.16 85.15L55.7412 81.9558C55.6685 81.9025 55.5823 81.8703 55.4923 81.8629C55.4022 81.8554 55.3119 81.8729 55.2313 81.9135C53.7225 82.7596 53.4463 82.8654 52.0438 83.3519C51.7038 83.4577 51.1725 83.6692 52.235 84.2615L59.2687 88.4077C59.9487 88.7885 60.7137 89 61.4788 89C62.265 89 63.03 88.7885 63.71 88.4077L84.79 76.2865C86.15 75.5038 87 74.0442 87 72.4577V50.5212C87 48.9346 86.15 47.475 84.79 46.6923L63.71 34.5712C63.0385 34.1904 62.265 34 61.4873 34ZM67.1525 50.9358C61.1388 50.9358 57.5475 53.4742 57.5475 57.705C57.5475 62.2954 61.1175 63.5604 66.8975 64.1315C73.8038 64.8085 74.335 65.8281 74.335 67.1819C74.335 69.5088 72.4437 70.5031 68.0025 70.5031C62.4137 70.5031 61.1812 69.1048 60.7775 66.3548C60.7569 66.2128 60.6853 66.0831 60.5758 65.9897C60.4664 65.8963 60.3266 65.8456 60.1825 65.8471H57.4412C57.2834 65.8471 57.1321 65.9095 57.0205 66.0206C56.9089 66.1317 56.8463 66.2823 56.8463 66.4394C56.8463 69.9721 58.78 74.1817 68.0025 74.1817C74.675 74.1817 78.5 71.5587 78.5 66.9894C78.5 62.4625 75.4188 61.2567 68.9588 60.3894C62.3925 59.5433 61.7338 59.099 61.7338 57.576C61.7338 56.3067 62.3075 54.6356 67.1525 54.6356C71.4663 54.6356 73.0812 55.5663 73.74 58.4644C73.8037 58.7394 74.0375 58.951 74.335 58.951H77.0762C77.2463 58.951 77.395 58.8663 77.5225 58.7394C77.5803 58.6776 77.6236 58.6038 77.6494 58.5234C77.6751 58.4429 77.6826 58.3577 77.6712 58.274C77.2463 53.2817 73.91 50.9337 67.1525 50.9337V50.9358Z" fill="white"/>
<defs>
<radialGradient id="paint0_radial_366_663" cx="0" cy="0" r="1" gradientUnits="userSpaceOnUse" gradientTransform="translate(37.82 29.28) rotate(75.9638) scale(95.5736)">
<stop stop-color="#21CDB8"/>
<stop offset="0.802083" stop-color="#2B867B"/>
<stop offset="1" stop-color="#17544D"/>
</radialGradient>
</defs>
</svg>
