<svg width="100" height="100" viewBox="0 0 100 100" fill="none" xmlns="http://www.w3.org/2000/svg">
<circle cx="50" cy="50" r="50" fill="url(#paint0_radial_366_661)"/>
<path d="M50.0009 52.502C50.0009 39.839 69 39.839 69 52.502C69 65.165 50.0009 65.165 50.0009 52.502ZM31.0018 71.5028C31.0011 70.2551 31.2463 69.0195 31.7234 67.8666C32.2005 66.7138 32.9001 65.6663 33.7823 64.784C34.6645 63.9018 35.7119 63.2021 36.8646 62.7249C38.0174 62.2478 39.2529 62.0026 40.5004 62.0033H49.9991V71.5028C49.9991 84.1658 31 84.1658 31 71.5028H31.0018ZM50.0009 24.0018V43.0025H59.4996C72.1615 43.0025 72.1615 24.0018 59.4996 24.0018H50.0009ZM31.0018 33.5013C31.0011 34.749 31.2463 35.9845 31.7234 37.1374C32.2005 38.2902 32.9001 39.3377 33.7823 40.22C34.6645 41.1022 35.7119 41.8019 36.8646 42.2791C38.0174 42.7562 39.2529 43.0014 40.5004 43.0007H49.9991V24H40.5004C39.2529 23.9993 38.0174 24.2445 36.8646 24.7217C35.7119 25.1988 34.6645 25.8985 33.7823 26.7808C32.9001 27.663 32.2005 28.7105 31.7234 29.8634C31.2463 31.0162 31.0011 32.2518 31.0018 33.4995V33.5013ZM31.0018 52.502C31.0011 53.7497 31.2463 54.9853 31.7234 56.1381C32.2005 57.291 32.9001 58.3385 33.7823 59.2207C34.6645 60.103 35.7119 60.8027 36.8646 61.2798C38.0174 61.757 39.2529 62.0022 40.5004 62.0015H49.9991V43.0007H40.5004C39.2529 43 38.0174 43.2453 36.8646 43.7224C35.7119 44.1996 34.6645 44.8993 33.7823 45.7815C32.9001 46.6638 32.2005 47.7113 31.7234 48.8641C31.2463 50.0169 31.0011 51.2525 31.0018 52.5002V52.502Z" fill="white"/>
<defs>
<radialGradient id="paint0_radial_366_661" cx="0" cy="0" r="1" gradientUnits="userSpaceOnUse" gradientTransform="translate(31 24) rotate(75.9638) scale(78.339)">
<stop stop-color="#8547EA"/>
<stop offset="0.802083" stop-color="#782B93"/>
<stop offset="1" stop-color="#511D7A"/>
</radialGradient>
</defs>
</svg>
