<svg width="61" height="61" viewBox="0 0 61 61" fill="none" xmlns="http://www.w3.org/2000/svg">
<circle cx="30.5" cy="30.5" r="30.5" fill="url(#paint0_radial_366_662)"/>
<path d="M37.5346 29.6551L40.3253 26.951L33.6596 20.4923L30.8688 23.1964L23.5098 16.0832C22.1233 14.7397 19.8659 14.7397 18.4794 16.0832L15.1021 19.3556C13.7156 20.699 13.7156 22.8864 15.1021 24.2298L22.4433 31.343L14.2666 39.2829C14.0889 39.4552 14 39.6618 14 39.903V45.1388C14 45.6211 14.3911 46 14.8888 46H20.2925C20.5236 46 20.7546 45.9139 20.9146 45.7417L29.1268 37.7845L36.4681 44.8977C38.8144 47.1712 41.3741 45.0183 41.4985 44.8977L44.8758 41.6253C46.2623 40.2819 46.2623 38.0945 44.8758 36.7511L37.5346 29.6551ZM24.9852 28.8973L17.6262 21.7841L20.9857 18.5116L23.2432 20.699L22.4077 21.5429C22.0754 21.865 21.8887 22.3018 21.8887 22.7572C21.8887 23.2126 22.0754 23.6494 22.4077 23.9714C22.7401 24.2935 23.1909 24.4744 23.6609 24.4744C24.1309 24.4744 24.5817 24.2935 24.9141 23.9714L25.7673 23.1447L28.3447 25.6421L24.9852 28.8973ZM38.9922 42.4864L31.6509 35.3732L35.0283 32.1008L37.6057 34.5982L36.7525 35.4249C36.5879 35.5844 36.4574 35.7737 36.3683 35.982C36.2792 36.1903 36.2334 36.4136 36.2334 36.6391C36.2334 36.8646 36.2792 37.0879 36.3683 37.2963C36.4574 37.5046 36.5879 37.6939 36.7525 37.8534C36.917 38.0128 37.1124 38.1393 37.3274 38.2256C37.5424 38.3119 37.7729 38.3563 38.0056 38.3563C38.2384 38.3563 38.4688 38.3119 38.6838 38.2256C38.8989 38.1393 39.0942 38.0128 39.2588 37.8534L40.112 37.0267L42.3695 39.214L38.9922 42.4864ZM45.4802 21.9563C45.645 21.797 45.7757 21.6077 45.8649 21.3993C45.9541 21.191 46 20.9676 46 20.7421C46 20.5165 45.9541 20.2931 45.8649 20.0848C45.7757 19.8764 45.645 19.6872 45.4802 19.5278L41.3207 15.4976C40.4853 14.6881 39.3299 14.9981 38.8144 15.4976L35.5615 18.6494L42.2273 25.1082L45.4802 21.9563Z" fill="white"/>
<defs>
<radialGradient id="paint0_radial_366_662" cx="0" cy="0" r="1" gradientUnits="userSpaceOnUse" gradientTransform="translate(18.91 14.64) rotate(75.9638) scale(47.7868)">
<stop stop-color="#FD9950"/>
<stop offset="0.802083" stop-color="#DD6F27"/>
<stop offset="1" stop-color="#A7531C"/>
</radialGradient>
</defs>
</svg>
