<svg width="431" height="187" viewBox="0 0 431 187" fill="none" xmlns="http://www.w3.org/2000/svg">
<path fill-rule="evenodd" clip-rule="evenodd" d="M221.148 5.81958H197.869V23.2786H221.148V5.81958ZM221.148 29.0983H197.869V81.4753H221.148V29.0983ZM11.639 5.81959H58.1964V11.6393H64.0161V33.0704H40.7374V29.0983H29.098V58.1966H40.7374V52.377H64.0161V73.8081H58.1964V81.4753H11.639V75.6557H5.81934V11.6393H11.639V5.81959ZM128.033 87.295H110.574V93.1147H98.9342V104.754H87.2949V168.77H98.9342V178.562H110.574V186.229H128.033V168.77H116.393V157.131H104.754V114.546H116.393V104.754H128.033V87.295ZM389.918 87.295H407.377V93.1147H419.016V104.754H430.656V168.77H419.016V178.562H407.377V186.229H389.918V168.77H401.557V157.131H413.197V114.546H401.557V104.754H389.918V87.295ZM75.6557 5.81959H122.213V11.6393H128.033V75.6557H122.213V81.4753H75.6557V75.6557H69.836V11.6393H75.6557V5.81959ZM93.1147 29.0983H104.754V58.1966H93.1147V29.0983ZM250.246 98.9344H203.689V104.754H197.869V174.59H221.148V157.131H232.787V174.59H256.066V104.754H250.246V98.9344ZM232.787 122.213H221.148V133.852H232.787V122.213ZM133.852 98.9344H157.131H186.229V104.754H192.049V151.311H186.229V157.131H157.131V173.943H133.852L133.852 157.131L133.852 133.852V122.213V98.9344ZM157.131 122.213H168.77V133.852H157.131V122.213ZM302.623 174.59V122.213H320.082V98.9344L302.623 98.9344H279.344L261.885 98.9344V122.213H279.344V174.59H302.623ZM133.852 29.0983L133.852 11.6393V5.81961H157.131H180.41V11.6393H186.229V17.4589H192.049V71.0369H186.229V75.6557H180.41V81.4753H133.852V75.6557L133.852 58.1966L133.852 29.0983ZM168.77 29.0983V58.1966H157.131V29.0983H168.77ZM296.803 5.81961H343.36V11.6393H349.18V33.0705H325.901V29.0983H314.262V58.1967H325.901V52.377L320.082 52.377V40.7377H349.18V52.377L349.18 73.8082H343.36V81.4753H296.803V75.6557H290.983V11.6393H296.803V5.81961ZM261.885 5.81961H285.164V81.4753H261.885V69.836V64.0163H256.065V58.1967H250.246V81.4754H226.967V5.81962H250.246V34.918H256.065V40.7376H261.885V5.81961ZM325.901 98.9344H349.18V128.033H360.819V98.9344H384.098V174.59H360.819V151.311H349.18V174.59H325.901V98.9344ZM395.737 11.6393H407.377V17.459H413.197V23.2786H419.016V29.0983H424.836V34.918H430.656V40.7376V46.5573V52.377H424.836V58.1974H419.016V64.0163H413.197V69.836H407.377V75.6557H395.737V58.1967H401.557V52.377H407.377V46.5573H413.197V40.7376H407.377V34.918H401.557V29.0983H395.737V11.6393ZM355 23.2786H389.918V40.7376H355V23.2786ZM355 46.5573H389.918V64.0163H355V46.5573Z" fill="#3A396B"/>
<path fill-rule="evenodd" clip-rule="evenodd" d="M384.098 81.4753H401.557V87.295H413.197V98.9344H424.836V162.951H413.197V172.743H401.557V180.41H384.098V162.951H395.737V151.311H407.377V108.726H395.737V98.9344H384.098V81.4753Z" fill="#1CCE98"/>
<path fill-rule="evenodd" clip-rule="evenodd" d="M122.213 81.4753H104.754V87.295H93.115V98.9344H81.4757V162.951H93.115V172.743H104.754V180.41H122.213V162.951H110.574V151.311H98.9347V108.726H110.574V98.9344H122.213V81.4753Z" fill="#1CCE98"/>
<path fill-rule="evenodd" clip-rule="evenodd" d="M52.377 0H5.81967V5.81967H0V69.8361H5.81967V75.6557H52.377V67.9885H58.1967V46.5574H34.918V52.377H23.2787V23.2787H34.918V27.2508H58.1967V5.81967H52.377V0Z" fill="#675CE9"/>
<path fill-rule="evenodd" clip-rule="evenodd" d="M215.328 0H192.049V17.459H215.328V0ZM215.328 23.2787H192.049V75.6557H215.328V23.2787Z" fill="#675CE9"/>
<path fill-rule="evenodd" clip-rule="evenodd" d="M116.394 0H69.8363V5.81967H64.0166V69.8361H69.8363V75.6557H116.394V69.8361H122.213V5.81967H116.394V0ZM98.9346 23.2787H87.2953V52.377H98.9346V23.2787Z" fill="#675CE9"/>
<path fill-rule="evenodd" clip-rule="evenodd" d="M244.426 93.1147H197.869V98.9344H192.049V168.77H215.328V151.311H226.967V168.77H250.246V98.9344H244.426V93.1147ZM226.967 116.393H215.328V128.033H226.967V116.393Z" fill="#F56450"/>
<path fill-rule="evenodd" clip-rule="evenodd" d="M151.311 93.1147H128.033V116.393V128.033V151.311V168.124H151.311V151.311H180.41V145.492H186.229V98.9344H180.41V93.1147H151.311ZM162.951 116.393H151.311V128.033H162.951V116.393Z" fill="#F9AC3A"/>
<path fill-rule="evenodd" clip-rule="evenodd" d="M273.524 93.1147H256.065V116.393H273.524V168.77H296.803V116.393H314.262V93.1147H296.803H273.524Z" fill="#D8589D"/>
<path fill-rule="evenodd" clip-rule="evenodd" d="M128.033 23.2787V52.377V69.8361V75.0091V75.6557H174.59V69.8361H180.41V65.2173H186.229V11.6393H180.41V5.81967H174.59V0H151.311H128.033V5.81967V23.2787ZM162.951 52.377V23.2787H151.311V52.377H162.951Z" fill="#675CE9"/>
<path fill-rule="evenodd" clip-rule="evenodd" d="M290.984 0H337.541V5.81967H343.361V27.2508H320.082V23.2787H308.443V52.377H320.082V46.5574H343.361V67.9885H337.541V75.6557H290.984V69.8361H285.164V5.81967H290.984V0ZM343.361 34.918H314.263V46.5574H343.361V34.918Z" fill="#675CE9"/>
<path fill-rule="evenodd" clip-rule="evenodd" d="M244.426 0H221.147V75.6557H244.426V52.3771H250.246V58.1967H256.065V64.0164V75.6557H279.344V0H256.065V34.918H250.246V29.0984H244.426V0Z" fill="#675CE9"/>
<path fill-rule="evenodd" clip-rule="evenodd" d="M320.082 93.1147H343.361V122.213H355V93.1147H378.279V168.77H355V145.492H343.361V168.77H320.082V93.1147Z" fill="#5272E4"/>
<path fill-rule="evenodd" clip-rule="evenodd" d="M401.557 5.8197H389.918V23.2787H395.738V29.0984H401.557V34.9181L407.377 34.9181V40.7377H401.557V46.5574H395.738V52.3771H389.918V69.8361H401.557V64.0164H407.377V58.1968H413.197V52.3778H419.016V46.5574H424.836V40.7377V34.9181V29.0984H419.016V23.2787H413.197V17.459H407.377V11.6394H401.557V5.8197ZM384.098 17.459H349.18V34.9181H384.098V17.459ZM384.098 40.7377H349.18V58.1968H384.098V40.7377Z" fill="#1CCE98"/>
</svg>
