<?xml version="1.0" encoding="utf-8"?>
<!-- Generator: Adobe Illustrator 25.4.1, SVG Export Plug-In . SVG Version: 6.00 Build 0)  -->
<svg version="1.1" id="Layer_1" xmlns="http://www.w3.org/2000/svg" xmlns:xlink="http://www.w3.org/1999/xlink" x="0px" y="0px"
	 viewBox="0 0 2000 1000" style="enable-background:new 0 0 2000 1000;" xml:space="preserve">
<style type="text/css">
	.st0{fill:#FFFFFF;}
	.st1{fill:#ADA6BD;}
	.st2{fill:#261936;}
	.st3{fill:#9F98AD;}
	.st4{fill:#E2DDEB;}
	.st5{fill:#CCC5D6;}
	.st6{opacity:0.17;fill:#6E5487;enable-background:new    ;}
	.st7{fill:#56446B;}
	.st8{fill:none;stroke:#C5C2CC;stroke-linecap:round;stroke-linejoin:round;stroke-miterlimit:10;}
	.st9{fill:none;stroke:#2130A7;stroke-width:1.295;stroke-linecap:round;stroke-linejoin:round;stroke-miterlimit:10;}
	.st10{fill:none;stroke:#8559DA;stroke-width:2.4303;stroke-linecap:round;stroke-linejoin:round;stroke-miterlimit:10;}
	.st11{fill:none;stroke:#CFD6E6;stroke-width:3.9848;stroke-linecap:round;stroke-linejoin:round;stroke-miterlimit:10;}
	.st12{fill:none;stroke:#F2B622;stroke-width:3.9848;stroke-linecap:round;stroke-linejoin:round;stroke-miterlimit:10;}
	.st13{fill:#462C61;}
	.st14{opacity:0.34;fill:#6E5487;enable-background:new    ;}
	.st15{fill:#C5C2CC;}
	.st16{fill:#A29DB0;}
	.st17{fill:#E3E3E3;}
	.st18{fill:#7B4EAB;}
	.st19{fill:#EBEFFF;}
	.st20{fill:#D1CED9;}
	.st21{fill:#5981EB;}
	.st22{fill-rule:evenodd;clip-rule:evenodd;fill:#E88087;}
	.st23{fill:#E88087;}
	.st24{fill:none;stroke:#B83759;stroke-width:1.5586;stroke-linecap:round;stroke-linejoin:round;stroke-miterlimit:10;}
	.st25{fill:#D96870;}
	.st26{fill:#C25D64;}
	.st27{fill:#111A33;}
	.st28{fill:#4D316B;}
	.st29{fill:none;stroke:#CC6269;stroke-width:1.5158;stroke-linecap:round;stroke-linejoin:round;stroke-miterlimit:10;}
	.st30{fill:#CC6269;}
	.st31{fill:#B7B4BF;}
	.st32{fill:none;stroke:#4D316B;stroke-width:2;stroke-linecap:round;stroke-linejoin:round;stroke-miterlimit:10;}
	.st33{fill:none;stroke:#5C3A80;stroke-width:2;stroke-linecap:round;stroke-linejoin:round;stroke-miterlimit:10;}
	.st34{fill:#8559DA;}
	.st35{fill:#F2B622;}
	.st36{fill:#9D90C2;}
	.st37{fill:none;stroke:#261936;stroke-width:2;stroke-linecap:round;stroke-linejoin:round;stroke-miterlimit:10;}
	.st38{fill:none;stroke:#261936;stroke-width:2;stroke-linecap:round;stroke-linejoin:round;stroke-miterlimit:9.9998;}
	.st39{fill:none;stroke:#261936;stroke-width:1.9999;stroke-linecap:round;stroke-linejoin:round;stroke-miterlimit:9.9996;}
	.st40{fill:#F4A1F9;}
	.st41{fill:none;stroke:#FFFFFF;stroke-width:3.9513;stroke-linecap:round;stroke-linejoin:round;stroke-miterlimit:10;}
	.st42{fill:none;stroke:#FFFFFF;stroke-width:2.8414;stroke-linecap:round;stroke-linejoin:round;stroke-miterlimit:10;}
	.st43{fill:#9972C4;}
	.st44{fill:none;stroke:#FFFFFF;stroke-width:1.5205;stroke-linecap:round;stroke-linejoin:round;stroke-miterlimit:10;}
	.st45{fill:none;stroke:#B83796;stroke-width:1.5586;stroke-linecap:round;stroke-linejoin:round;stroke-miterlimit:10;}
	.st46{fill:none;stroke:#261936;stroke-linecap:round;stroke-linejoin:round;stroke-miterlimit:10;}
	.st47{fill:#735694;}
	.st48{fill:#B184E3;}
	.st49{fill:none;stroke:#634A80;stroke-linecap:round;stroke-linejoin:round;stroke-miterlimit:10;}
	.st50{fill:none;stroke:#9F98AD;stroke-linecap:round;stroke-linejoin:round;stroke-miterlimit:10;}
	.st51{fill:none;stroke:#FFFFFF;stroke-width:2;stroke-linecap:round;stroke-linejoin:round;stroke-miterlimit:10;}
	.st52{fill:none;stroke:#261936;stroke-width:2;stroke-linecap:round;stroke-linejoin:round;stroke-miterlimit:10.0002;}
</style>
<g id="background">
	<rect class="st0" width="2000" height="1000"/>
</g>
<g id="image">
	<g>
		<path class="st1" d="M1348.9,408.1l-48.7-169c-0.1-0.5-0.3-0.9-0.5-1.4l1.3-2.9l-6.9-4.4l0,0c-2.8-1.7-6.2-1.9-9.3-0.1L1008.2,391
			c-6.1,3.5-7.9,9.9-5.5,18.3l48.2,170.9c1.2,4,3.4,7,6.1,8.6v0l6.9,4.4l1.1-3.6c0.5-0.2,0.9-0.4,1.4-0.7l275.8-159.2
			C1348.3,426.1,1351.3,416.4,1348.9,408.1z"/>
		<path class="st2" d="M1073.5,593.4l275.8-159.2c6.1-3.5,9.1-13.2,6.7-21.5l-48.7-169c-2.4-8.3-9.3-12.3-15.4-8.8l-278.4,161
			c-6.1,3.5-7.3,8.2-4.9,16.5l49.5,172.2C1060.5,593,1067.4,596.9,1073.5,593.4z"/>
		<path class="st2" d="M1077.9,587.3l264.6-152.8c5.8-3.4,8.7-12.7,6.4-20.7l-46.7-162.2c-2.3-8-9-11.8-14.8-8.4l-267.1,154.5
			c-5.8,3.4-7,7.9-4.7,15.9l47.5,165.2C1065.4,586.9,1072.1,590.7,1077.9,587.3z"/>
		<path class="st3" d="M1068.8,602.1v-6.5l40.5,21.1l2.3-5.3l269.5-155.6c3.2-1.9,9.7-1.6,13.4,0.5l116.8,67v-1.9l17.7,8.6l2.5-1
			l-0.3,8.2c-0.3,1.8-1,2.5-2.1,3.2l-280.5,162.4c-3.2,1.9-9,1.8-12.7-0.3l-162.8-93.1C1068.8,607,1068.8,602.1,1068.8,602.1z"/>
		<path class="st1" d="M1068.8,602.1v-6.5l40.5,21.1l2.3-5.3l132.2-76.3l4.9,167.7c-1.6,0.9-3.9,1.4-6.2,1.4c-2.3,0-4.7-0.6-6.6-1.7
			l-162.8-93.1C1068.8,607,1068.8,602.1,1068.8,602.1z"/>
		<path class="st4" d="M1071,592.6l280.5-161.9c3.2-1.9,9-1.6,12.7,0.5l164.2,94.6c3.8,2.2,4.2,5.5,0.9,7.3l-280.5,161.9
			c-3.2,1.9-9,1.6-12.7-0.5l-164.2-94.6C1068.2,597.8,1067.8,594.5,1071,592.6z"/>
		<g>
			<g>
				<g>
					<g>
						<path class="st5" d="M1364.4,476.3c0.4,0.2,1.2,0.1,1.8-0.2l17-9.8c0.6-0.4,0.8-0.8,0.4-1.1l-11.3-6.5
							c-0.4-0.2-1.2-0.1-1.8,0.2l-17,9.8c-0.6,0.4-0.8,0.8-0.4,1.1L1364.4,476.3z"/>
						<path class="st5" d="M1344.7,505.6c0.4,0.2,1.2,0.1,1.9-0.2l17-9.8c0.6-0.4,0.8-0.8,0.4-1.1l-11.3-6.5
							c-0.4-0.2-1.2-0.1-1.8,0.2l-17,9.8c-0.6,0.4-0.8,0.8-0.4,1.1L1344.7,505.6z"/>
						<path class="st5" d="M1354.7,517.8c0.4,0.2,1.2,0.1,1.8-0.2l17-9.8c0.6-0.4,0.8-0.8,0.4-1.1l-11.3-6.5
							c-0.4-0.2-1.2-0.1-1.8,0.2l-17,9.8c-0.6,0.4-0.8,0.8-0.4,1.1L1354.7,517.8z"/>
						<path class="st5" d="M1381.7,520.2c0.4,0.2,1.2,0.1,1.8-0.2l17-9.8c0.6-0.4,0.8-0.8,0.4-1.1l-11.3-6.5
							c-0.4-0.2-1.2-0.1-1.8,0.2l-17,9.8c-0.6,0.3-0.8,0.8-0.4,1.1L1381.7,520.2z"/>
						<path class="st5" d="M1428.6,513.3c0.4,0.2,1.2,0.1,1.8-0.2l17-9.8c0.6-0.4,0.8-0.8,0.4-1.1l-13.2-7.6
							c-0.4-0.2-1.2-0.1-1.8,0.2l-17,9.8c-0.6,0.4-0.8,0.8-0.4,1.1L1428.6,513.3z"/>
						<path class="st5" d="M1399.2,530.2c0.4,0.2,1.4,0,2.2-0.4l22.3-12.9c0.8-0.5,1.1-1,0.7-1.3l-13.2-7.6c-0.4-0.2-1.4,0-2.2,0.4
							l-22.3,12.9c-0.8,0.5-1.1,1-0.7,1.3L1399.2,530.2z"/>
						<path class="st5" d="M1252.6,615c0.3,0.2,1.1,0.1,1.7-0.3l17-9.8c0.6-0.4,0.8-0.8,0.5-1l-4.9-2.8c-0.3-0.2-1.1-0.1-1.7,0.3
							l-17,9.8c-0.6,0.3-0.8,0.8-0.5,1L1252.6,615z"/>
						<path class="st5" d="M1229.9,628.4c0.3,0.2,1.1,0.1,1.7-0.3l17-9.8c0.6-0.4,0.8-0.8,0.5-1l-4.9-2.8c-0.3-0.2-1.1-0.1-1.7,0.3
							l-17,9.8c-0.6,0.3-0.8,0.8-0.5,1L1229.9,628.4z"/>
						<path class="st5" d="M1205.8,642c0.3,0.2,1.1,0,1.7-0.3l17-9.8c0.6-0.3,0.9-0.8,0.5-1l-4.7-2.7c-0.3-0.2-1.1,0-1.7,0.3
							l-17,9.8c-0.6,0.3-0.8,0.8-0.5,1L1205.8,642z"/>
						<path class="st5" d="M1220.6,623.2c0.3,0.2,1.1,0,1.7-0.3l17-9.8c0.6-0.3,0.9-0.8,0.5-1l-4.7-2.7c-0.3-0.2-1.1,0-1.7,0.3
							l-17,9.8c-0.6,0.3-0.8,0.8-0.5,1L1220.6,623.2z"/>
						<path class="st5" d="M1282.1,597.8c0.4,0.2,1.2,0.1,1.9-0.2l110.8-63.9c0.6-0.3,0.8-0.8,0.4-1.1l-13.2-7.7
							c-0.4-0.2-1.2-0.1-1.8,0.2l-110.8,63.9c-0.6,0.4-0.8,0.8-0.4,1.1L1282.1,597.8z"/>
						<path class="st5" d="M1402.2,526c0,0,0.1,0,0.2,0l13-7.5c0.1,0,0.1-0.1,0.1-0.1l-0.8-0.5c0,0-0.1,0-0.2,0l-13,7.5
							c-0.1,0-0.1,0.1-0.1,0.1L1402.2,526z"/>
						<path class="st5" d="M1435.6,505.3C1435.6,505.3,1435.7,505.3,1435.6,505.3l5.6-3.2c0,0,0,0,0-0.1l-0.8-0.5c0,0-0.1,0-0.1,0
							l-5.5,3.2c0,0,0,0,0,0.1L1435.6,505.3z"/>
						<path class="st5" d="M1358.3,533.6c0.4,0.2,1.2,0.1,1.8-0.2l17-9.8c0.6-0.3,0.8-0.8,0.4-1.1l-11.3-6.5
							c-0.4-0.2-1.2-0.1-1.9,0.2l-17,9.8c-0.6,0.4-0.8,0.8-0.4,1.1L1358.3,533.6z"/>
						<path class="st5" d="M1334.9,547.1c0.4,0.2,1.2,0.1,1.8-0.2l17-9.8c0.6-0.3,0.8-0.8,0.4-1.1l-11.3-6.5
							c-0.4-0.2-1.2-0.1-1.9,0.2l-17,9.8c-0.6,0.3-0.8,0.8-0.4,1.1L1334.9,547.1z"/>
						<path class="st5" d="M1311.5,560.7c0.4,0.2,1.2,0.1,1.8-0.2l17-9.8c0.6-0.3,0.8-0.8,0.4-1.1l-11.3-6.5
							c-0.4-0.2-1.2-0.1-1.8,0.2l-17,9.8c-0.6,0.3-0.8,0.8-0.4,1.1L1311.5,560.7z"/>
						<path class="st5" d="M1288,574.2c0.4,0.2,1.2,0.1,1.8-0.2l17-9.8c0.6-0.4,0.8-0.8,0.4-1.1l-11.3-6.5c-0.4-0.2-1.2-0.1-1.9,0.2
							l-17,9.8c-0.6,0.3-0.8,0.8-0.4,1.1L1288,574.2z"/>
						<path class="st5" d="M1264.6,587.7c0.4,0.2,1.2,0.1,1.9-0.2l17-9.8c0.6-0.3,0.8-0.8,0.4-1.1l-11.3-6.5
							c-0.4-0.2-1.2-0.1-1.8,0.2l-17,9.8c-0.6,0.4-0.8,0.8-0.4,1.1L1264.6,587.7z"/>
						<path class="st5" d="M1241.1,601.2c0.4,0.2,1.2,0.1,1.8-0.2l17-9.8c0.6-0.3,0.8-0.8,0.4-1.1l-11.3-6.5
							c-0.4-0.2-1.2-0.1-1.9,0.2l-17,9.8c-0.6,0.3-0.8,0.8-0.4,1.1L1241.1,601.2z"/>
						<path class="st5" d="M1188.3,631.7c0.4,0.2,1.2,0.1,1.8-0.2l46.4-26.8c0.6-0.3,0.8-0.8,0.4-1.1l-11.3-6.5
							c-0.4-0.2-1.2-0.1-1.8,0.2l-46.4,26.8c-0.6,0.3-0.8,0.8-0.4,1.1L1188.3,631.7z"/>
						<path class="st5" d="M1331.3,531.2c0.4,0.2,1.2,0.1,1.8-0.2l17-9.8c0.6-0.3,0.8-0.8,0.4-1.1l-11.3-6.5
							c-0.4-0.2-1.2-0.1-1.8,0.2l-17,9.8c-0.6,0.4-0.8,0.8-0.4,1.1L1331.3,531.2z"/>
						<path class="st5" d="M1307.9,544.8c0.4,0.2,1.2,0.1,1.8-0.2l17-9.8c0.6-0.3,0.8-0.8,0.4-1.1l-11.3-6.5
							c-0.4-0.2-1.2-0.1-1.8,0.2l-17,9.8c-0.6,0.3-0.8,0.8-0.4,1.1L1307.9,544.8z"/>
						<path class="st5" d="M1284.4,558.3c0.4,0.2,1.2,0.1,1.8-0.2l17-9.8c0.6-0.3,0.8-0.8,0.4-1.1l-11.3-6.5
							c-0.4-0.2-1.2-0.1-1.8,0.2l-17,9.8c-0.6,0.3-0.8,0.8-0.4,1.1L1284.4,558.3z"/>
						<path class="st5" d="M1261,571.8c0.4,0.2,1.2,0.1,1.8-0.2l17-9.8c0.6-0.3,0.8-0.8,0.4-1.1l-11.3-6.5c-0.4-0.2-1.2-0.1-1.8,0.2
							l-17,9.8c-0.6,0.3-0.8,0.8-0.4,1.1L1261,571.8z"/>
						<path class="st5" d="M1237.5,585.4c0.4,0.2,1.2,0.1,1.8-0.2l17-9.8c0.6-0.3,0.8-0.8,0.4-1.1l-11.3-6.5
							c-0.4-0.2-1.2-0.1-1.8,0.2l-17,9.8c-0.6,0.3-0.8,0.8-0.4,1.1L1237.5,585.4z"/>
						<path class="st5" d="M1214.1,598.9c0.4,0.2,1.2,0.1,1.8-0.2l17-9.8c0.6-0.4,0.8-0.8,0.4-1.1l-11.3-6.5
							c-0.4-0.2-1.2-0.1-1.8,0.2l-17,9.8c-0.6,0.3-0.8,0.8-0.4,1.1L1214.1,598.9z"/>
						<path class="st5" d="M1190.7,612.4c0.4,0.2,1.2,0.1,1.8-0.2l17-9.8c0.6-0.3,0.8-0.8,0.4-1.1l-11.3-6.5
							c-0.4-0.2-1.2-0.1-1.8,0.2l-17,9.8c-0.6,0.3-0.8,0.8-0.4,1.1L1190.7,612.4z"/>
						<path class="st5" d="M1321.3,519.1c0.4,0.2,1.2,0.1,1.9-0.2l17-9.8c0.6-0.4,0.8-0.8,0.4-1.1l-11.3-6.5
							c-0.4-0.2-1.2-0.1-1.8,0.2l-17,9.8c-0.6,0.4-0.8,0.8-0.4,1.1L1321.3,519.1z"/>
						<path class="st5" d="M1297.9,532.6c0.4,0.2,1.2,0.1,1.8-0.2l17-9.8c0.6-0.3,0.8-0.8,0.4-1.1l-11.3-6.5
							c-0.4-0.2-1.2-0.1-1.8,0.2l-17,9.8c-0.6,0.3-0.8,0.8-0.4,1.1L1297.9,532.6z"/>
						<path class="st5" d="M1274.5,546.1c0.4,0.2,1.2,0.1,1.9-0.2l17-9.8c0.6-0.3,0.8-0.8,0.4-1.1l-11.3-6.5
							c-0.4-0.2-1.2-0.1-1.8,0.2l-17,9.8c-0.6,0.4-0.8,0.8-0.4,1.1L1274.5,546.1z"/>
						<path class="st5" d="M1251,559.7c0.4,0.2,1.2,0.2,1.8-0.2l17-9.8c0.6-0.3,0.8-0.8,0.4-1.1L1259,542c-0.4-0.2-1.2-0.1-1.8,0.2
							l-17,9.8c-0.6,0.3-0.8,0.8-0.4,1.1L1251,559.7z"/>
						<path class="st5" d="M1227.6,573.2c0.4,0.2,1.2,0.1,1.8-0.2l17-9.8c0.6-0.4,0.8-0.8,0.4-1.1l-11.3-6.5
							c-0.4-0.2-1.2-0.1-1.8,0.2l-17,9.8c-0.6,0.3-0.8,0.8-0.4,1.1L1227.6,573.2z"/>
						<path class="st5" d="M1204.1,586.7c0.4,0.2,1.2,0.1,1.9-0.2l17-9.8c0.6-0.3,0.8-0.8,0.4-1.1l-11.3-6.5
							c-0.4-0.2-1.2-0.1-1.8,0.2l-17,9.8c-0.6,0.4-0.8,0.8-0.4,1.1L1204.1,586.7z"/>
						<path class="st5" d="M1180.7,600.2c0.4,0.2,1.2,0.1,1.8-0.2l17-9.8c0.6-0.3,0.8-0.8,0.4-1.1l-11.3-6.5
							c-0.4-0.2-1.2-0.1-1.8,0.2l-17,9.8c-0.6,0.3-0.8,0.8-0.4,1.1L1180.7,600.2z"/>
						<path class="st5" d="M1368.1,492.1c0.4,0.2,1.2,0.1,1.9-0.2l28.9-16.7c0.6-0.4,0.8-0.8,0.4-1.1l-11.3-6.5
							c-0.4-0.2-1.2-0.1-1.8,0.2l-28.9,16.7c-0.6,0.4-0.8,0.8-0.4,1.1L1368.1,492.1z"/>
						<path class="st5" d="M1141.7,604.8c0.4,0.2,1.2,0.1,1.8-0.2l28.9-16.7c0.6-0.3,0.8-0.8,0.4-1.1l-11.3-6.5
							c-0.4-0.2-1.2-0.1-1.8,0.2l-28.9,16.7c-0.6,0.3-0.8,0.8-0.4,1.1L1141.7,604.8z"/>
						<path class="st5" d="M1378.1,504.3c0.4,0.2,1.2,0.1,1.8-0.2l34.4-19.9c0.6-0.4,0.8-0.8,0.4-1.1l-11.3-6.5
							c-0.4-0.2-1.2-0.1-1.8,0.2l-34.4,19.9c-0.6,0.4-0.8,0.8-0.4,1.1L1378.1,504.3z"/>
						<path class="st5" d="M1405.1,506.6c0.4,0.2,1.2,0.1,1.8-0.2l22.9-13.2c0.6-0.4,0.8-0.8,0.4-1.1l-11.3-6.5
							c-0.4-0.2-1.2-0.1-1.8,0.2l-22.9,13.2c-0.6,0.4-0.8,0.8-0.4,1.1L1405.1,506.6z"/>
						<path class="st5" d="M1341,489.8c0.4,0.2,1.2,0.1,1.9-0.2l17-9.8c0.6-0.4,0.8-0.8,0.4-1.1l-11.3-6.5c-0.4-0.2-1.2-0.1-1.8,0.2
							l-17,9.8c-0.6,0.4-0.8,0.8-0.4,1.1L1341,489.8z"/>
						<path class="st5" d="M1317.7,503.3c0.4,0.2,1.2,0.1,1.8-0.2l17-9.8c0.6-0.4,0.8-0.8,0.4-1.1l-11.3-6.5
							c-0.4-0.2-1.2-0.1-1.8,0.2l-17,9.8c-0.6,0.4-0.8,0.8-0.4,1.1L1317.7,503.3z"/>
						<path class="st5" d="M1294.2,516.8c0.4,0.2,1.2,0.1,1.8-0.2l17-9.8c0.6-0.4,0.8-0.8,0.4-1.1l-11.3-6.5
							c-0.4-0.2-1.2-0.1-1.8,0.2l-17,9.8c-0.6,0.4-0.8,0.8-0.4,1.1L1294.2,516.8z"/>
						<path class="st5" d="M1270.8,530.3c0.4,0.2,1.2,0.1,1.8-0.2l17-9.8c0.6-0.4,0.8-0.8,0.4-1.1l-11.3-6.5
							c-0.4-0.2-1.2-0.1-1.8,0.2l-17,9.8c-0.6,0.3-0.8,0.8-0.4,1.1L1270.8,530.3z"/>
						<path class="st5" d="M1247.3,543.8c0.4,0.2,1.2,0.2,1.8-0.2l17-9.8c0.6-0.4,0.8-0.8,0.4-1.1l-11.3-6.5
							c-0.4-0.2-1.2-0.1-1.8,0.2l-17,9.8c-0.6,0.4-0.8,0.8-0.4,1.1L1247.3,543.8z"/>
						<path class="st5" d="M1223.9,557.4c0.4,0.2,1.2,0.1,1.8-0.2l17-9.8c0.6-0.3,0.8-0.8,0.4-1.1l-11.3-6.5
							c-0.4-0.2-1.2-0.1-1.8,0.2l-17,9.8c-0.6,0.3-0.8,0.8-0.4,1.1L1223.9,557.4z"/>
						<path class="st5" d="M1200.4,570.9c0.4,0.2,1.2,0.1,1.8-0.2l17-9.8c0.6-0.4,0.8-0.8,0.4-1.1l-11.3-6.5
							c-0.4-0.2-1.2-0.1-1.9,0.2l-17,9.8c-0.6,0.3-0.8,0.8-0.4,1.1L1200.4,570.9z"/>
						<path class="st5" d="M1177,584.4c0.4,0.2,1.2,0.1,1.8-0.2l17-9.8c0.6-0.3,0.8-0.8,0.4-1.1l-11.3-6.5c-0.4-0.2-1.2-0.1-1.8,0.2
							l-17,9.8c-0.6,0.3-0.8,0.8-0.4,1.1L1177,584.4z"/>
						<path class="st5" d="M1163.3,596.4c0.3-0.2,0.6-0.3,1-0.3c0.4,0,0.7,0,0.8,0.1l11.3,6.5c0.2,0.1,0.3,0.3,0.2,0.5
							c-0.1,0.2-0.3,0.4-0.6,0.6l-4.4,2.6l14.8,8.5c0.2,0.1,0.3,0.3,0.2,0.5c-0.1,0.2-0.3,0.4-0.6,0.6l-11.5,6.6
							c-0.3,0.2-0.6,0.3-1,0.3c-0.4,0-0.7,0-0.8-0.1l-26.8-15.5c-0.2-0.1-0.3-0.3-0.2-0.5c0.1-0.2,0.3-0.4,0.6-0.6L1163.3,596.4z"/>
						<path class="st5" d="M1408.2,501.1c0,0,0.1,0,0.2,0l13-7.5c0.1,0,0.1-0.1,0.1-0.1l-0.8-0.5c0,0-0.1,0-0.2,0l-13,7.5
							c-0.1,0-0.1,0.1-0.1,0.1L1408.2,501.1z"/>
					</g>
				</g>
			</g>
		</g>
		<path class="st5" d="M1341.7,612.5l65.9-38c3.6-2,3.3-5.3-0.5-7.2l-22-10.9c-3.8-1.9-9.9-1.8-13.4,0.3l-65.9,38
			c-3.6,2-3.3,5.3,0.5,7.2l22,10.9C1332.1,614.7,1338.1,614.5,1341.7,612.5z"/>
	</g>
	<path class="st6" d="M1377.2,523.6c0,0-0.3,11.4,10.2,16.1c10.5,4.7,33.2,22.7,34.3,24.8s26.2,19.1,46.8,15.8l99.5,88.3l35.5-55.9
		l-159.3-75.2L1377.2,523.6z"/>
	<path class="st6" d="M1257,648.3c0,0,24.1,19.4,35,20.1c0,0,178,165.1,203.9,161.9c25.8-3.2,47.5-28.7,47.5-28.7l-218.1-159.5
		l-100.8-66.5c0,0-24.2-1.7-24.4,2.3c-0.2,4-3.4,6.8,4.3,10s-12.8,9.2-13.9,15.8s60.8,16.8,60.8,16.8l-14.2,9.4l-37.7-1.3
		c0,0-6.5,4.8,3.9,8.8C1213.6,641.4,1257,648.3,1257,648.3z"/>
	<polygon class="st7" points="1996.7,616.8 2000,1000 1307.8,1000 	"/>
	<polygon class="st2" points="1734.3,925.2 1691.8,915.3 1691.7,849.9 1495.9,968.5 1561.8,1000 1718.2,1000 	"/>
	<line class="st8" x1="1370.4" y1="158.3" x2="1171.6" y2="275.8"/>
	<path class="st9" d="M1262.6,267.4"/>
	<path class="st9" d="M1258.5,273.8"/>
	<g>
		<line class="st10" x1="1095.3" y1="371.4" x2="1139.9" y2="528.7"/>
		<g>
			<line class="st11" x1="1058.1" y1="404" x2="1081" y2="390.6"/>
			<line class="st11" x1="1074.9" y1="468.9" x2="1097.8" y2="455.5"/>
			<line class="st11" x1="1079.7" y1="484" x2="1102.6" y2="470.5"/>
			<line class="st11" x1="1084.6" y1="500.2" x2="1107.6" y2="486.8"/>
			<line class="st10" x1="1071.4" y1="415.4" x2="1083.9" y2="408.1"/>
			<line class="st10" x1="1076.7" y1="431.5" x2="1087.9" y2="425"/>
			<line class="st10" x1="1080.2" y1="448.7" x2="1093.2" y2="441.1"/>
			<line class="st10" x1="1099" y1="507.9" x2="1111.5" y2="500.6"/>
			<line class="st10" x1="1104" y1="524.2" x2="1115.1" y2="517.7"/>
		</g>
	</g>
	<g>
		<line class="st11" x1="1146.8" y1="355.4" x2="1178.6" y2="336.9"/>
		<line class="st11" x1="1207.9" y1="433.4" x2="1286.7" y2="387.4"/>
		<line class="st11" x1="1176.8" y1="451.5" x2="1195" y2="440.9"/>
		<line class="st12" x1="1185.5" y1="475.2" x2="1241.8" y2="442.3"/>
		<line class="st12" x1="1238.8" y1="327.7" x2="1261.8" y2="314.3"/>
		<line class="st11" x1="1172.3" y1="366.5" x2="1215.9" y2="341.1"/>
		<line class="st12" x1="1180.6" y1="389" x2="1267.1" y2="338.5"/>
		<line class="st11" x1="1250.7" y1="380" x2="1276.7" y2="364.8"/>
		<line class="st11" x1="1215" y1="400.8" x2="1238.3" y2="387.6"/>
		<line class="st11" x1="1190.2" y1="415.3" x2="1205.1" y2="406.6"/>
	</g>
	<g>
		<g>
			<path class="st13" d="M1474.7,262.5c0,0,46.3-15.3,39.4-78.9C1514.2,183.6,1456.6,215,1474.7,262.5z"/>
		</g>
		<g>
			<ellipse class="st14" cx="1485.7" cy="402.8" rx="44.8" ry="14.3"/>
			<g>
				<path class="st15" d="M1529.3,344.3l-112.1-3.3l18.1,55.5c0.7,5.1,4.4,10.2,11.2,14.1c15.1,8.7,39.4,8.7,54.4,0.1
					c6.3-3.6,9.9-8.2,10.9-12.9h0L1529.3,344.3z"/>
				<path class="st16" d="M1529.3,344.3c-15.5,31-31.1,62.1-56,72.8c10,0.1,20.1-2,27.7-6.5c6.3-3.6,9.9-8.2,10.9-12.9h0
					L1529.3,344.3z"/>
				
					<ellipse transform="matrix(5.421554e-03 -1 1 5.421554e-03 1128.2443 1809.2998)" class="st17" cx="1473.7" cy="337.5" rx="32.8" ry="56.8"/>
				
					<ellipse transform="matrix(5.423010e-03 -1 1 5.423010e-03 1128.9132 1807.8495)" class="st2" cx="1473.3" cy="336.4" rx="28.2" ry="48.8"/>
			</g>
		</g>
		<g>
			<path class="st13" d="M1474.2,346.4c-1.1,0-1.9-0.9-1.9-1.9V205c0-1.1,0.9-1.9,1.9-1.9s1.9,0.9,1.9,1.9v139.5
				C1476.2,345.6,1475.3,346.4,1474.2,346.4z"/>
		</g>
		<path class="st18" d="M1473.7,306.9c0,0,2.1-48.7-59.8-64.9C1413.8,242.1,1422.8,307.1,1473.7,306.9z"/>
		<path class="st18" d="M1474.7,284.2c0,0,48.2-6.8,52.8-70.7C1527.5,213.5,1465.2,234.2,1474.7,284.2z"/>
		<path class="st18" d="M1472.9,252.2c0,0,20.7-44.1-30.3-82.9C1442.6,169.3,1425.8,232.8,1472.9,252.2z"/>
	</g>
	
		<ellipse transform="matrix(0.7071 -0.7071 0.7071 0.7071 373.3622 1161.1515)" class="st19" cx="1588.3" cy="129.9" rx="8.1" ry="8.1"/>
	<polygon class="st20" points="1995.6,568.9 1987.3,670.9 1443.8,1000 1302.1,1000 	"/>
	<g>
		<path class="st21" d="M1340.8,275.5L1340.8,275.5L1340.8,275.5z"/>
	</g>
	<g>
		<path class="st22" d="M1215.2,554l16.8,3.6l22,8l24.3,14.4l14,9.5c0,0,9.2,4.8,17.8,15.7c3.2,4.1,12.2,21,13.9,24.5l-22.1,35.6
			c0,0-6.5-0.9-18.2-6.6c-11.7-5.6-25.9-15-30-17.7s-10.5-4.4-16-4.5s-14.2-1.7-14.2-1.7l-20.4-4c0,0-9.1-1.8-8.7-8s15.4-3,15.4-3
			l22.6,2.4l10.2-1.6l12.7-21.6l-1.6-17.2l-13-8c0,0-12.4-6.2-13.3-6.2c-0.8,0-13.6-4.1-14.7-8.1
			C1211.6,555.7,1213.4,553.6,1215.2,554z"/>
		<path class="st23" d="M1197.3,568.9l15.9-1.3l20,2.7l28.4,13.5l-4.5,19.6l-27.4-15.4l-16.4-5.6c0,0-18.6-2.3-18.6-7.7
			C1194.8,569.2,1197.3,568.9,1197.3,568.9z"/>
		<path class="st23" d="M1190.4,584l18.6,2.5l20.2,6.8l27.4,7.5l-11.3,18.4l-24-10.9l-17.3-7.8c0,0-18.5-6-17.4-11.4
			C1187.7,583.4,1190.4,584,1190.4,584z"/>
		<path class="st23" d="M1287.8,596.5l0.9-23c0,0-14.9-21.2-2.6-25c0,0,5,4.3,7.6,7.7c2.8,3.7,6,6.7,7.3,12.2s14.1,45.6,14.1,45.6
			l-22.4-4.5L1287.8,596.5z"/>
		<path class="st22" d="M1307.7,619.4l200.6,94.5l93.2-99.4l39.6,98.8l-100,95.9c-19.7,14.4-46.8,13.6-66.2-2l-182.6-146.6
			L1307.7,619.4z"/>
		<path class="st24" d="M1283.9,583.8c10.1,7.3,14.1,12.4,22.5,22.6"/>
		<polyline class="st24" points="1233.3,570.2 1250.9,579.2 1262.3,586.2 		"/>
		<path class="st24" d="M1205.5,625.9L1205.5,625.9c0.2-1.2-0.5-2.3-1.6-2.6l-4-1c-1.2-0.3-2.3,0.4-2.6,1.6l0,0
			c-0.2,1.2,0.5,2.3,1.6,2.6l4,1C1204.1,627.8,1205.3,627.1,1205.5,625.9z"/>
		<path class="st24" d="M1197.2,588L1197.2,588c0.2-1.2-0.5-2.3-1.6-2.6l-4-1c-1.2-0.3-2.3,0.4-2.6,1.6l0,0
			c-0.2,1.2,0.5,2.3,1.6,2.6l4,1C1195.8,589.8,1196.9,589.1,1197.2,588z"/>
		<path class="st24" d="M1206.7,570.5L1206.7,570.5c-0.1-1-0.9-1.8-2-1.8l-4.7,0.2c-1,0-1.8,0.9-1.7,1.9l0,0c0.1,1,0.9,1.8,2,1.8
			l4.7-0.2C1205.9,572.5,1206.7,571.6,1206.7,570.5z"/>
		<path class="st24" d="M1214.1,554.9c-0.2,1,0.5,2,1.5,2.2l4.6,1c1,0.2,2-0.4,2.2-1.5l0,0"/>
	</g>
	<g>
		<g>
			<path class="st23" d="M1469.6,573.1l129.6,84.4l103.1-46.5l-205.9-71.5c0,0-12-8.5-13.9-7.8c-15.4,5.8-13.9,15.9-13.9,15.9
				L1469.6,573.1z"/>
		</g>
		<g>
			<path class="st23" d="M1369.5,479l17.6-8.8l14.4,16c0,0-20.6,7.1-29.8,1.7l-2.5-1.5C1366.4,484.7,1366.5,480.5,1369.5,479z"/>
			<path class="st23" d="M1356.2,458.4c0.4,0.7,1.9,10.4,20.2,14.4c0,0,14.8,8,17.1,8.4c0,0,14.2,12.4,18,13.4
				c0,0,9.9,16.4,10.2,17.7c1.1,6-4.8,11.9-4.8,11.9s-3.1,1.7-10.9-1.4c-4.6-1.8-13.1-5.7-16.1-7.3c-11.5-6.1-17-7.5-19.4-3.5
				c-1.1,1.9-0.8,4.3,0.6,6c3.6,4.3,11.8,13.8,17.2,16.3c7,3.3,25,13.7,25,13.7s21.1,23,41.1,24.9s20,1.9,20,1.9l14.8-39.4
				l-38.1-49.2c0,0-29.4-19.6-36.6-23.5c-7.2-3.8-49.6-16.8-55.4-18c-5.8-1.2-5.7,5.8-1.5,7.6C1357.4,452.3,1354,454.4,1356.2,458.4
				z"/>
			<path class="st24" d="M1379.8,521.1L1379.8,521.1c0.8-0.8,0.7-2.1-0.2-2.9l-4.3-3.8c-0.8-0.8-2.1-0.7-2.9,0.2l0,0
				c-0.8,0.8-0.7,2.1,0.2,2.9l4.3,3.8C1377.8,522,1379.1,521.9,1379.8,521.1z"/>
			<path class="st24" d="M1361.4,451.6c0,0,43,15.7,43.6,16.1c0.6,0.5,33.1,21.7,35.2,25.8"/>
			<path class="st24" d="M1377.9,473.6c0,0,15.9,10.2,19.1,10.6"/>
			<line class="st24" x1="1421.6" y1="512.3" x2="1427.7" y2="512.7"/>
		</g>
	</g>
	<path class="st23" d="M1823.5,480.4l-71.1-96.2c-11.2-21.4-21.6-38.4-43-27.2l-6.3,3.3c-21.4,11.2-40.5,40-29.3,61.4l61.4,104.4
		C1746.3,547.5,1834.7,501.8,1823.5,480.4z"/>
	<path class="st25" d="M1823.5,480.4l-71.1-96.2c-11.2-21.4-21.6-38.4-43-27.2l-6.3,3.3c-21.4,11.2,22.6,12.2,33.8,33.6l59.4,82.5
		C1807.5,497.9,1834.7,501.8,1823.5,480.4z"/>
	<path class="st18" d="M1638.2,554.3c18-14.5,39.5-36.1,57.4-48.7c102.7-11.7,119-56.3,119-56.3c60.4,6.6,108.9,49.4,134.9,123.6
		c12.4,35.3,20.1,168.7,20.1,168.7c0,0,20.1,230-0.3,237.3L1747.5,925c0,0-49.2-14.2-54.4-74.3c-2.7-30.9-43.6-102.9-55.6-123
		c-0.8-1.4-13.6,19.4-14,18.3c-7.6-19.7-5.4-39.3,4.4-59.9C1608.9,645.4,1579.6,601.5,1638.2,554.3z"/>
	<path class="st18" d="M1718.6,655l-87.8,99.5c-44.4,32.6-116.6-61.9-82.1-91.8l74.7-93.9c21.2-26,62.2-26.6,79.3-7.5l0,0
		C1720.6,581.3,1739.2,632.3,1718.6,655z"/>
	<path class="st18" d="M1679.7,533.5c89.8-17.9,133.5,48.9,141.3-82.3c0,0-10.8-12.2-18.4,1c-13.3,23.1-21.8,34.1-53.6,38.5
		c-19.2,2.6-44.2-1-49.8,8.5L1679.7,533.5z"/>
	<path class="st23" d="M1650.9,279.5c0,0-20.6,14-23.1,40c-0.9,9.4-4.4,25.1-4,30.9c1,13.8,4.1,12.3-2.1,25
		c-0.7,1.4-4.8,5.8-10.2,14.9c-0.9,1.6-1.2,3.5-0.8,5.3c1,3.9,3.9,9.8,12.9,9.9c3.9,0.1,3.7,6,4.3,14.8c1,13.8,8.3,28.5,14.8,34.2
		c12.5,10.8,61.9-5.2,61.9-5.2l26.3-78.4L1650.9,279.5z"/>
	<path class="st26" d="M1701.5,469.1c0,0,3.8-10.1,3.1-24.7c-2.5,5.5-8.1,7.5-12.7,8.1L1701.5,469.1z"/>
	<path class="st27" d="M1635.9,368.8c0.2,3.6,1.4,6.5,2.7,6.4c1.3-0.1,2.2-3,2-6.7c-0.2-3.6-1.4-6.5-2.7-6.4
		C1636.6,362.2,1635.7,365.2,1635.9,368.8z"/>
	<path class="st28" d="M1646.8,739.6c0,0,41.2,78.3,44.2,102c2,16-15.5,49.6-27.2,69.8c-4.6,8,0.2,18.1,9.3,19.6
		c36.4,16.8,58.3,19.5,68.6,11.1l16.7-68.9l-64.8-194.9c-4-12.2-21,6.2-30.4,14.8l-73.2,63c15.6,6.7,29.6,7.5,40.8-1.7L1646.8,739.6
		z"/>
	<path class="st29" d="M1633.6,398.2c0,0,0.1,4.8-4.1,7.2"/>
	<path class="st2" d="M1769.6,419.2c7.8-1.2,8.4-5,10.1-12.8c5-22.7,19.2-72.3,10.7-104.2c-11.5-43.1-120.5-3.4-120.5-3.4l23.1,55.8
		c0,0,3.7,38.3,33.5,35.9c2.2-0.2,7.2,18.3,8.7,19.9C1746.4,422.3,1754.4,424.8,1769.6,419.2L1769.6,419.2z"/>
	<path class="st2" d="M1654.7,357c-4.8-1.9-14.5-3.5-19.5-4.1c-11.5-1.5-8-13.2,1.8-11.2c9.5,2,13.3,2.1,19.2,6.5
		C1663.4,353.6,1656.7,357.8,1654.7,357z"/>
	
		<ellipse transform="matrix(0.1553 -0.9879 0.9879 0.1553 1070.6406 2015.4985)" class="st23" cx="1713.9" cy="381.7" rx="24.6" ry="14.6"/>
	<path class="st30" d="M1630.2,422.2c8.8,0.4,10.3,0.7,20-4c0,0-5.8,12-18.6,13.6c-1.6,0.2-1.1-2.8-1.8-5.3
		C1629.3,424.3,1629.3,422.1,1630.2,422.2z"/>
	<path class="st15" d="M2000,1000l-289-0.5c0.3-4.8,1.2-11.3,2.3-16.1l52.8-223.5c9.6-40.5,38.8-81,73-101.2l160.9-95.6V1000z"/>
	<path class="st31" d="M1999.9,1000h-204.4l33-209.5c14.4-61,101.3-99.5,152.8-130.1l18.6-10.4
		C2000.1,652.4,1999.9,1000,1999.9,1000z"/>
	<path class="st2" d="M1633,274.5c0,0-18.2,34.4-3.2,35c1.5,0.1,3.1,0,5-0.4c21-3.5,28.7-10.8,52.4,4.2c23.7,15,57.1,33.4,81.9,30.4
		s38.6-6.1,38.6-6.1s-14.4-92.9-87.2-95.2C1651.8,240.3,1633,274.5,1633,274.5z"/>
	<line class="st32" x1="1685.2" y1="680" x2="1713.3" y2="654.7"/>
	<path class="st32" d="M1694.8,506.9c0.2-0.3,21.6,3,36.2,0"/>
	<line class="st32" x1="1821.1" y1="451.2" x2="1817.2" y2="462.4"/>
	<path class="st33" d="M1675,306.9c0,0,35.3,15.6,44.1,20.7c28.4,16.4,48.2,20.2,70.8,13.3"/>
	<path class="st33" d="M1801.1,332.2c-3.2,0-40.6-58.1-88.1-59.7"/>
	<path class="st29" d="M1704.5,383.8c0,0,2.1-22.3,13.2-20.7c2.6,0.4,4.3,2.6,5.2,5.7"/>
	<path class="st29" d="M1705.5,404c0.2,0.2,12.4,8,19.5-12.8"/>
	<path class="st29" d="M1704.5,385.7c0,0,6.1-6.4,10.7-1.3c4.6,5.1-1.5,12.3-1.5,12.3"/>
	<path class="st34" d="M889.1,441.1l57-31.7c8.1-4.5,12.7-15.5,10.1-24.5l-15.7-55.5c-2.5-9-11.2-12.6-19.3-8.1l-57,31.7
		c-8.1,4.5-12.7,15.5-10.1,24.5l15.7,55.5C872.3,441.9,881,445.6,889.1,441.1z"/>
	<path class="st35" d="M920.1,544.6l57-31.7c8.1-4.5,12.7-15.5,10.1-24.5L971.5,433c-2.5-9-11.2-12.6-19.3-8.1l-57,31.7
		c-8.1,4.5-12.7,15.5-10.1,24.5l15.7,55.5C903.2,545.5,912,549.1,920.1,544.6z"/>
	<path class="st36" d="M951.3,653.1l57-31.7c8.1-4.5,12.7-15.5,10.1-24.5l-15.7-55.5c-2.5-9-11.2-12.6-19.3-8.1l-57,31.7
		c-8.1,4.5-12.7,15.5-10.1,24.5l15.7,55.5C934.5,654,943.2,657.7,951.3,653.1z"/>
	<path class="st0" d="M917.2,494.9l0.6,2.1c0.6,2,2.5,2.8,4.3,1.8l0,0c2.7-1.5,5,1.3,3.7,4.5l0,0c-0.9,2.1-0.2,4.4,1.5,5.1l1.8,0.7
		c1.7,0.7,3.8-0.5,4.6-2.6c1.3-3.1,5-3.5,5.8-0.5l0,0c0.6,2,2.5,2.8,4.3,1.8l1.9-1.1c1.8-1,2.8-3.5,2.2-5.5l0,0
		c-0.8-3,2-6.3,4.5-5.2l0,0c1.7,0.7,3.8-0.5,4.6-2.6l0.9-2.3c0.9-2.1,0.2-4.4-1.5-5.1l0,0c-2.5-1-2.2-5.4,0.5-6.9l0,0
		c1.8-1,2.8-3.5,2.2-5.5l-0.6-2.1c-0.6-2-2.5-2.8-4.3-1.8l0,0c-2.7,1.5-5-1.3-3.7-4.5c0.9-2.1,0.2-4.4-1.5-5.1l-1.8-0.7
		c-1.7-0.7-3.8,0.5-4.6,2.6l0,0c-1.3,3.1-5,3.5-5.8,0.5l0,0c-0.6-2-2.5-2.8-4.3-1.8l-1.9,1.1c-1.8,1-2.8,3.5-2.2,5.5l0,0
		c0.8,3-2,6.3-4.5,5.2l0,0c-1.7-0.7-3.8,0.5-4.6,2.6l-0.9,2.3c-0.9,2.1-0.2,4.4,1.5,5.1c2.5,1,2.2,5.4-0.5,6.9l0,0
		C917.6,490.4,916.6,492.9,917.2,494.9z M935.8,475.7c4.3-2.4,8.8-0.5,10.2,4.2c1.3,4.7-1,10.5-5.3,12.9s-8.8,0.5-10.2-4.2
		C929.2,483.9,931.5,478.1,935.8,475.7z"/>
	<g>
		<g>
			<g>
				<polygon class="st0" points="987.8,601.6 993.9,577.9 975.7,571 974.4,576 987.8,581.1 983.1,599.8 				"/>
			</g>
			<g>
				<polygon class="st0" points="961.1,617.8 963.1,611.3 950.5,605.1 956.4,586.3 950.8,584.5 943.8,609 				"/>
			</g>
			<g>
				<polygon class="st0" points="967.1,614.9 973.2,611.7 970.5,567.7 964.5,571 				"/>
			</g>
		</g>
	</g>
	<g>
		<path class="st0" d="M903.9,406.2l-2.7,1.7c-3.8,2.4-5.9,1.8-7.3-3.4c-0.9-3.4-1-5.5-1.8-8.5c-0.5-1.7-1.8-2.9-4.6-1.2l-1.1-4.2
			c2.8-1.9,3.2-4.2,2.7-5.9c-0.8-3-1.7-4.6-2.6-8c-1.4-5.2-0.1-8,3.7-10.4l2.7-1.7l1,3.8l-0.8,0.5c-1.8,1.1-2.1,2.2-1.4,4.8
			c0.7,2.6,1.5,4.8,2.2,7.8c1,3.7,0.3,5.7-1.7,7.7l0,0.2c2.3-0.8,3.7,0,4.7,3.6c0.8,3,1.2,5.4,1.9,8c0.7,2.7,1.4,3.1,3.2,1.9
			l0.8-0.5L903.9,406.2z"/>
	</g>
	<g>
		<path class="st0" d="M916.3,394l0.8-0.5c1.8-1.1,2.1-2.2,1.4-4.8c-0.7-2.6-1.5-4.8-2.2-7.8c-1-3.7-0.3-5.7,1.7-7.7l0-0.2
			c-2.3,0.8-3.7,0-4.7-3.6c-0.8-3-1.2-5.4-1.9-8c-0.7-2.7-1.4-3.1-3.2-1.9l-0.8,0.5l-1-3.8l2.7-1.7c3.8-2.4,5.9-1.8,7.3,3.4
			c0.9,3.4,1,5.5,1.8,8.5c0.5,1.7,1.8,2.9,4.6,1.2l1.1,4.2c-2.8,1.9-3.2,4.2-2.7,5.9c0.8,3,1.7,4.6,2.6,8c1.4,5.2,0.1,8-3.7,10.4
			l-2.7,1.7L916.3,394z"/>
	</g>
	
		<ellipse transform="matrix(0.7524 -0.6587 0.6587 0.7524 -108.6814 645.692)" class="st37" cx="804.6" cy="467.4" rx="8.7" ry="8.7"/>
	
		<ellipse transform="matrix(0.2466 -0.9691 0.9691 0.2466 505.4207 1032.908)" class="st38" cx="917" cy="191.4" rx="8.7" ry="8.7"/>
	
		<ellipse transform="matrix(0.2298 -0.9732 0.9732 0.2298 744.2686 1859.1688)" class="st39" cx="1546.8" cy="459.3" rx="8.7" ry="8.7"/>
	<path class="st33" d="M1630.2,289.9c0,0,17.5-42.4,86.7-35.8"/>
	<line class="st33" x1="1758.6" y1="415.5" x2="1763.6" y2="379.6"/>
	<line class="st33" x1="1766.8" y1="412.5" x2="1776.6" y2="375.3"/>
	<line class="st33" x1="1690.2" y1="313.8" x2="1702.3" y2="345.3"/>
	
		<ellipse transform="matrix(0.3876 -0.9218 0.9218 0.3876 586.7946 1331.2733)" class="st40" cx="1295.4" cy="224" rx="46.1" ry="36.9"/>
	<polyline class="st41" points="1285.5,224.9 1297.4,234.6 1305.1,208.9 	"/>
	<g>
		<path class="st5" d="M1145.2,292.6l-139.4,80.7c-8,4.6-17.4,0.4-21.1-9.3l0,0c-3.7-9.7-0.3-21.3,7.6-25.9l139.4-80.7
			c7.9-4.6,17.4-0.4,21.1,9.3l0,0C1156.6,276.4,1153.2,288,1145.2,292.6z"/>
		<g>
			<path class="st42" d="M1014.7,343.8c1.6,4,0.2,8.8-3.1,10.7c-3.3,1.9-7.3,0.2-8.8-3.7c-1.6-4-0.2-8.8,3.1-10.7
				C1009.2,338.2,1013.1,339.8,1014.7,343.8z"/>
			<line class="st42" x1="1025.1" y1="352.3" x2="1015" y2="349.7"/>
		</g>
	</g>
	<g>
		<path class="st43" d="M1180.9,240.5l36-20.9c18-10.5,26.2-34.4,18.1-53.2l0,0c-8.1-18.8-29.5-25.6-47.5-15.1l-36,20.9
			c-18,10.5-26.2,34.4-18.1,53.2l0,0C1141.5,244.1,1162.9,250.9,1180.9,240.5z"/>
		<polygon class="st43" points="1175.5,264.1 1190.1,226.7 1166.4,231.3 		"/>
		<line class="st44" x1="1211.6" y1="168.8" x2="1154.5" y2="201.7"/>
		<line class="st44" x1="1218.1" y1="185.1" x2="1161" y2="218"/>
	</g>
	<g>
		<polygon class="st40" points="1049.3,281.9 970.1,327.2 953.8,266.9 1032.9,221.6 		"/>
		<polygon class="st40" points="1002,276.1 953.8,266.9 1032.9,221.6 		"/>
		<polyline class="st45" points="953.8,266.9 1002,276.1 1032.4,222.5 		"/>
	</g>
	
		<ellipse transform="matrix(0.4446 -0.8957 0.8957 0.4446 367.9903 1051.8883)" class="st43" cx="1032.2" cy="229.2" rx="20.8" ry="16"/>
	<g>
		<path class="st0" d="M1032.2,234.2l2.2-1.3l-1.6-7.4l-1.8,1l-0.2-0.8c0.4-0.4,0.8-0.7,1.1-1c0.3-0.3,0.6-0.6,0.8-1l1-0.6l1.9,9
			l2-1.2l0.2,1.1l-5.5,3.2L1032.2,234.2z"/>
	</g>
	<polygon class="st35" points="1388.4,351 1340.4,376.4 1330.8,343.5 1378.9,318.2 	"/>
	<path class="st46" d="M1348.8,359.9c0.7-0.3,17.8-9.2,17.8-9.2"/>
	<path class="st46" d="M1345.9,352.1c0.7-0.3,26.9-13.9,26.9-13.9"/>
	<g>
		<g>
			<path class="st14" d="M1104.1,842.6l85.2-36.7l54.9-36c4.4-2.9,4.5-9.3,0.2-12.3l-38.4-20.6L1104.1,842.6z"/>
			<path class="st47" d="M1219.8,765.5v0.4l-158.3-89.6c-0.7-0.4-1.5-0.4-2.2,0l-103.4,62.9c-1.5,0.9,146,103.5,146,103.5
				c0.7,0.4,1.5,0.4,2.2,0l118.8-70.6c0.6-0.4,1.3-1,1.4-1.7l0.2-7.9L1219.8,765.5z"/>
			<path class="st47" d="M1104.1,835.1l119.3-70.9c1.5-0.9,1.5-3,0-3.8l-162-91.7c-0.7-0.4-1.5-0.4-2.2,0l-119.3,70.9
				c0.6,1,1.1,2.5,0,3.8l162,91.7C1102.6,835.5,1103.4,835.5,1104.1,835.1z"/>
			<path class="st4" d="M1220.3,722.9c-7.5,20.9-8.2,26.4-3,36.9l-115.4,67.8c-3.4-2.2-4.9-31.3,8.6-39L1220.3,722.9z"/>
			<path class="st47" d="M1222.7,717.3l-0.2,7.9c0.1,0.9-0.5,1.8-1.4,2.3l-118,70.1c-0.7,0.4-1.5,0.4-2.2,0l-162-91.7
				c-1.5-0.8-1.4-3,0-3.8l119.3-70.9c0.7-0.4,1.5-0.4,2.2,0l155.4,88l1.9-2.6L1222.7,717.3z"/>
			<path class="st48" d="M1101.9,789.8c-13,18.4-9.3,38.7-0.3,52.6l-161.5-98.5c-19-11.8-6.5-46.5-1.9-49.1L1101.9,789.8z"/>
			<path class="st43" d="M1102.3,789.7l119.3-70.9c1.5-0.9,1.5-3,0-3.8l-162-91.7c-0.7-0.4-1.5-0.4-2.2,0l-119.4,71.3
				c-1.5,0.9-1.5,2.5,0,3.3l162,91.7C1100.8,790.2,1101.6,790.2,1102.3,789.7z"/>
			<line class="st49" x1="1096.9" y1="784" x2="946.3" y2="694.4"/>
			<line class="st49" x1="1222.9" y1="764.5" x2="1103.5" y2="835.4"/>
		</g>
		<path class="st43" d="M950.7,705.2c0,0-13.3,22.1,0,45.2l6.9,4.2c0,0-15.4-19.9-2.2-46.7L950.7,705.2z"/>
		<polygon class="st48" points="956,699.5 1071.1,629.9 1077.7,633.6 961.7,702.9 		"/>
		<polygon class="st48" points="1075.6,770.3 1190.7,700.6 1197.3,704.4 1081.2,773.6 		"/>
		<path class="st35" d="M1112.4,808.4c0,0,22.9,13.8,27.8,40l9.7-16.8l15.6,1c0,0-9.7-27.5-30.2-36.9L1112.4,808.4z"/>
		<line class="st50" x1="1107.4" y1="811.1" x2="1141.3" y2="792.2"/>
	</g>
	<g>
		<path class="st0" d="M1029.9,706c-3,1.8-6.6,2.3-10.6,1.6l0.7-2.2c1.5,0.2,2.8,0.3,4,0.2c1.1-0.2,2.1-0.5,3-1
			c1.3-0.8,1.9-1.5,1.7-2.4c-0.2-0.8-1.2-1.8-3-2.9l-16.9-9.8l3.1-1.8l17.2,10c1,0.6,1.9,1.2,2.6,1.9c0.7,0.7,1.1,1.4,1.2,2.1
			c0.2,0.7,0,1.4-0.4,2.1S1031.1,705.3,1029.9,706z"/>
		<path class="st0" d="M1047,696.1c-1.5,0.9-3.2,1.3-5.1,1.4s-3.7-0.4-5.3-1.3c-2-1.2-2.6-2.5-1.9-4.2s2.8-3.7,6.2-6.1
			c-0.6-0.3-1.2-0.6-1.8-0.9c-0.7-0.2-1.3-0.4-2-0.5c-0.7-0.1-1.4-0.1-2.2,0.1s-1.5,0.4-2.2,0.8c-1,0.6-1.8,1.3-2.3,2
			c-0.5,0.8-0.9,1.5-1.1,2.2l-3.3-0.5c0.3-0.8,0.8-1.7,1.5-2.7s1.8-1.9,3.2-2.8c2.2-1.3,4.5-1.8,6.8-1.6c2.3,0.2,4.6,1,6.9,2.3
			l11.1,6.4l-2.5,1.5l-2.4-1.1l-0.1,0.1c-0.1,0.9-0.4,1.8-0.9,2.7C1048.9,694.7,1048.1,695.5,1047,696.1z M1045.4,694.2
			c0.9-0.5,1.5-1.1,1.8-1.8c0.3-0.7,0.6-1.5,0.6-2.5l-5-2.9c-1.3,1-2.3,1.8-3.1,2.6s-1.2,1.4-1.5,2s-0.3,1.1-0.1,1.5
			c0.2,0.4,0.6,0.8,1.2,1.2c1,0.6,2.1,0.8,3.2,0.8C1043.6,695,1044.5,694.7,1045.4,694.2z"/>
		<path class="st0" d="M1040.4,678.6l3.1-1.8l13.7,4c1.2,0.4,2.3,0.7,3.5,1.1c1.2,0.3,2.3,0.7,3.5,1l0.2-0.1c-0.6-0.7-1.2-1.3-1.8-2
			s-1.2-1.3-1.9-2l-6.9-7.9l3-1.7l11.7,14.1l-3.6,2L1040.4,678.6z"/>
		<path class="st0" d="M1082.2,675.8c-1.5,0.9-3.2,1.3-5.1,1.4s-3.7-0.4-5.3-1.3c-2-1.2-2.6-2.5-1.9-4.2s2.8-3.7,6.2-6.1
			c-0.6-0.3-1.2-0.6-1.8-0.9c-0.7-0.2-1.3-0.4-2-0.5c-0.7-0.1-1.4-0.1-2.2,0.1s-1.5,0.4-2.2,0.8c-1,0.6-1.8,1.3-2.3,2
			c-0.5,0.8-0.9,1.5-1.1,2.2l-3.3-0.5c0.3-0.8,0.8-1.7,1.5-2.7s1.8-1.9,3.2-2.8c2.2-1.3,4.5-1.8,6.8-1.6c2.3,0.2,4.6,1,6.9,2.3
			l11.1,6.4l-2.5,1.5l-2.4-1.1l-0.1,0.1c-0.1,0.9-0.4,1.8-0.9,2.7C1084.1,674.4,1083.3,675.2,1082.2,675.8z M1080.6,673.9
			c0.9-0.5,1.5-1.1,1.8-1.8c0.3-0.7,0.6-1.5,0.6-2.5l-5-2.9c-1.3,1-2.3,1.8-3.1,2.6s-1.2,1.4-1.5,2s-0.3,1.1-0.1,1.5
			c0.2,0.4,0.6,0.8,1.2,1.2c1,0.6,2.1,0.8,3.2,0.8S1079.7,674.4,1080.6,673.9z"/>
	</g>
	<line class="st51" x1="1045.1" y1="717.3" x2="1104.7" y2="681.5"/>
	
		<rect x="1313.4" y="123.2" transform="matrix(0.3671 -0.9302 0.9302 0.3671 713.724 1315.3148)" class="st52" width="20" height="20"/>
	<path class="st26" d="M1709.2,405.9c0,0,8.2,2.9,13.7,0.8c5.6-2.1,3.7-16.2,3.7-16.2s-7.3,11.7-8.6,12.3
		C1716.8,403.5,1709.2,405.9,1709.2,405.9z"/>
</g>
</svg>
