<svg width="34" height="40" viewBox="0 0 34 40" fill="none" xmlns="http://www.w3.org/2000/svg">
<path d="M34 0H16.6047V1.35593H13.8372V3.49413H11.6346V5.52803H9.60133V7.66623H6.89037V10.0652H4.68771V12.3077H2.31561V14.3416H0V20.7562H9.60133V25.2412H7.28571V31.3429H4.68771V40H9.60133V37.7053H11.6346V35.7757H13.8372V33.7419H16.2093V31.6037H18.8073V29.4133H20.9535V27.1708H23.4385V24.824H25.7542V22.4772H27.8439V20.4954H30.3289V18.4094H31.7409V12.8292H24.3987V9.80443H26.7708V7.66623H29.0299V5.52803H31.4585V3.49413H34V0Z" fill="#2F2F2F"/>
<path d="M29 2H16.7209V3.11864H14.7674V4.88266H13.2126V6.56063H11.7774V8.32464H9.86379V10.3038H8.30897V12.1538H6.63455V13.8318H5V19.1239H11.7774V22.824H10.1429V27.8579H8.30897V35H11.7774V33.1069H13.2126V31.515H14.7674V29.837H16.4419V28.073H18.2757V26.266H19.7907V24.4159H21.5449V22.4798H23.1794V20.5437H24.6545V18.9087H26.4086V17.1877H27.4053V12.5841H22.2226V10.0887H23.897V8.32464H25.4917V6.56063H27.206V4.88266H29V2Z" fill="#F9AC3A"/>
</svg>
