<svg width="38" height="39" viewBox="0 0 38 39" fill="none" xmlns="http://www.w3.org/2000/svg">
<mask id="path-1-outside-1_462_18" maskUnits="userSpaceOnUse" x="0" y="0" width="38" height="39" fill="black">
<rect fill="white" width="38" height="39"/>
<path fill-rule="evenodd" clip-rule="evenodd" d="M1 4C1 2.34315 2.34315 1 4 1H34C35.6569 1 37 2.34315 37 4V23C37 24.6569 35.6569 26 34 26H23V32H30.2086C30.4939 32 30.7657 32.1219 30.9554 32.335L34.5173 36.335C35.0914 36.9797 34.6338 38 33.7705 38H20H18H4.09612C3.25492 38 2.78959 37.0246 3.31887 36.3708L6.55697 32.3708C6.74684 32.1363 7.03246 32 7.33421 32H15V26H4C2.34315 26 1 24.6569 1 23V4Z"/>
</mask>
<path fill-rule="evenodd" clip-rule="evenodd" d="M1 4C1 2.34315 2.34315 1 4 1H34C35.6569 1 37 2.34315 37 4V23C37 24.6569 35.6569 26 34 26H23V32H30.2086C30.4939 32 30.7657 32.1219 30.9554 32.335L34.5173 36.335C35.0914 36.9797 34.6338 38 33.7705 38H20H18H4.09612C3.25492 38 2.78959 37.0246 3.31887 36.3708L6.55697 32.3708C6.74684 32.1363 7.03246 32 7.33421 32H15V26H4C2.34315 26 1 24.6569 1 23V4Z" fill="#43B685"/>
<path d="M23 26V25H22V26H23ZM23 32H22V33H23V32ZM30.9554 32.335L30.2086 33L30.9554 32.335ZM34.5173 36.335L33.7705 37L34.5173 36.335ZM3.31887 36.3708L2.54163 35.7416L3.31887 36.3708ZM6.55697 32.3708L5.77973 31.7416L5.77973 31.7416L6.55697 32.3708ZM15 32V33H16V32H15ZM15 26H16V25H15V26ZM4 0C1.79086 0 0 1.79086 0 4H2C2 2.89543 2.89543 2 4 2V0ZM34 0H4V2H34V0ZM38 4C38 1.79086 36.2091 0 34 0V2C35.1046 2 36 2.89543 36 4H38ZM38 23V4H36V23H38ZM34 27C36.2091 27 38 25.2091 38 23H36C36 24.1046 35.1046 25 34 25V27ZM23 27H34V25H23V27ZM24 32V26H22V32H24ZM23 33H30.2086V31H23V33ZM30.2086 33L31.7022 31.6699C31.3227 31.2438 30.7793 31 30.2086 31V33ZM30.2086 33L33.7705 37L35.2642 35.6699L31.7022 31.6699L30.2086 33ZM33.7705 37V39C35.4971 39 36.4123 36.9594 35.2642 35.6699L33.7705 37ZM33.7705 37H20V39H33.7705V37ZM20 37H18V39H20V37ZM18 37H4.09612V39H18V37ZM4.09612 37L2.54163 35.7416C1.48307 37.0492 2.41372 39 4.09612 39V37ZM4.09612 37L7.33421 33L5.77973 31.7416L2.54163 35.7416L4.09612 37ZM7.33421 33H7.33421V31C6.7307 31 6.15946 31.2725 5.77973 31.7416L7.33421 33ZM7.33421 33H15V31H7.33421V33ZM14 26V32H16V26H14ZM4 27H15V25H4V27ZM0 23C0 25.2091 1.79086 27 4 27V25C2.89543 25 2 24.1046 2 23H0ZM0 4V23H2V4H0Z" fill="#465767" mask="url(#path-1-outside-1_462_18)"/>
<path d="M6.41496 35.3492L8.12925 33.3492C8.31923 33.1276 8.59658 33 8.88851 33H28.5858C28.851 33 29.1054 33.1054 29.2929 33.2929L31.2929 35.2929C31.9229 35.9229 31.4767 37 30.5858 37H7.17422C6.31987 37 5.85896 35.9979 6.41496 35.3492Z" fill="#387D60"/>
<rect x="2" y="2" width="34" height="23" rx="3" fill="#1ABCFE"/>
</svg>
