<svg width="41" height="40" viewBox="0 0 41 40" fill="none" xmlns="http://www.w3.org/2000/svg">
<path d="M20.5 0H39.3773V1.99475H41V13.8058V25.6168H39.3773V27.6115H24.6108V30.1312H33.9683V31.601H35.8074V33.1759H38.1332V34.7507H39.3773V36.168H40.7296V38.6877H39.3773V40H20.1755H1.35224V38.6877H0V36.168H1.35224V34.7507H2.59631V33.1759H4.92216V31.601H6.76121V30.1312H15.9024V27.6115H1.62269V25.6168H0V13.8058V1.99475H1.62269V0H20.5Z" fill="black"/>
<path d="M20.5 0.891113H37.4941V2.7723H38.9549V13.9109V25.0495H37.4941V26.9307H24.2008V29.307H32.6247V30.6931H34.2803V32.1782H36.3741V33.6634H37.4941V35H38.7114V37.3763H37.4941V38.6139H20.2079H3.26251V37.3763H2.04517V35H3.26251V33.6634H4.38246V32.1782H6.47628V30.6931H8.13186V29.307H16.3611V26.9307H3.50597V25.0495H2.04517V13.9109V2.7723H3.50597V0.891113H20.5Z" fill="#43B685"/>
<path d="M33.3363 2H20.6558H7.97527V3.58935H6.88525V13V22.4106H7.97527V24H17.5674H20.6558H23.4172H33.3363V22.4106H34.4263V13V3.58935H33.3363V2Z" fill="#1B1D1E"/>
<path d="M32.4306 3H20.6558H8.88105V4.44487H7.8689V13V21.5551H8.88105V23H17.7881H20.6558H23.22H32.4306V21.5551H33.4428V13V4.44487H32.4306V3Z" fill="#1ABCFE"/>
<rect x="10.8197" y="30" width="18.6886" height="1" fill="#1B1B1B"/>
<rect x="9.83606" y="32" width="22.623" height="2" fill="#1B1B1B"/>
</svg>
