<svg width="41" height="41" viewBox="0 0 41 41" fill="none" xmlns="http://www.w3.org/2000/svg">
<path fill-rule="evenodd" clip-rule="evenodd" d="M0 11.0124H3.38843V13.0455H6.43802V14.7397H8.97934V16.4339H9.20769L9.14875 16.7728H7.62395V24.905H8.8099V26.091H10.5041V28.2935H14.4008V29.8183H26.4297V28.6323H29.3099V27.4464H30.6653V26.4298H32.0206V24.905H33.376V16.7728H31.6818L31.6523 16.4339H32.0207V14.7397H34.562V13.0455H37.6116V11.0124H41V9.65703H37.6116V7.62397H34.562V5.92975H32.0207V4.23554H29.3099V3.04959H26.5992V1.86364H23.719V0.847108H21.5165V0H19.4835V0.847108H17.281V1.86364H14.4008V3.04959H11.6901V4.23554H8.97934V5.92975H6.43802V7.62397H3.38843V9.65703H0V11.0124Z" fill="#1E1A23"/>
<path d="M8.91467 16.9072H10.298L10.9128 13.3721H30.4329L30.7404 16.9072H32.2774V24.2849H31.0478V25.6682H29.8181V26.5904H28.5885V27.6664H25.9756V28.7423H15.0628V27.3589H11.5276V25.3608H9.99059V24.2849H8.91467V16.9072Z" fill="#743CBA"/>
<path d="M5.07209 11.6815H1.99805V10.4519H5.07209V8.60751H7.83872V7.07049H10.1443V5.53347H12.6035V4.45755H15.0627V3.38164H17.6756V2.45943H19.6738V1.69092H21.5182V2.45943H23.5163V3.38164H26.1293V4.45755H28.5885V5.53347H31.0477V7.07049H33.3533V8.60751H36.1199V10.4519H39.1939V11.6815H36.1199V13.526H33.3533V15.063H31.0477V16.6H28.5885V17.6759H26.1293V18.7518H23.5163V19.674H21.5182V20.4426H19.6738V19.674H17.6756V18.7518H15.0627V17.6759H12.6035V16.6H10.1443V15.063H7.83872V13.526H5.07209V11.6815Z" fill="#944AF1"/>
<path d="M11.835 31.6623H13.6795V33.9678H11.9119V35.3511H13.6795V36.2733H15.3702V39.04H13.6795V39.9622H10.1443V39.04H8.6073V36.7344H10.1443V35.3511H11.9119V33.9678H10.1443V31.6623H11.835Z" fill="#EA5A47"/>
<path d="M20.2886 9.37549C20.0427 9.49845 14.5504 12.5008 11.835 13.9865V31.6623M11.835 31.6623H13.6795V33.9678H11.9119M11.835 31.6623H10.1443V33.9678H11.9119M11.9119 33.9678V35.3511M11.9119 35.3511H13.6795V36.2733H15.3702V39.04H13.6795V39.9622H10.1443V39.04H8.6073V36.7344H10.1443V35.3511H11.9119Z" stroke="black"/>
</svg>
