<svg width="38" height="36" viewBox="0 0 38 36" fill="none" xmlns="http://www.w3.org/2000/svg">
<path d="M28.3591 3.60501V0H19H9.64095V3.60501H5.91988V7.36022H1.97329V10.1641H0V25.235H1.97329V29.1905H5.91988V32.6453H10.7122V36H19H27.2878V32.6453H32.0801V29.1905H36.0267V25.235H38V10.1641H36.0267V7.36022H32.0801V3.60501H28.3591Z" fill="#2F2F2F"/>
<path d="M25.8961 6.80389V4H19H12.1039V6.80389H9.36202V9.72462H6.45401V11.9054H5V23.6273H6.45401V26.7038H9.36202V29.3908H12.8932V32H19H25.1068V29.3908H28.638V26.7038H31.546V23.6273H33V11.9054H31.546V9.72462H28.638V6.80389H25.8961Z" fill="#FFF069"/>
<path d="M16.0444 14.2639H14.2971V16.5955H17.6269V25.7479H20.9238V10.4707H17.6269V12.4891H16.0444V14.2639Z" fill="#FFF069"/>
<path d="M14.9888 13.1968H12.6174V16.1945H17.1364V27.9619H21.6107V8.31982H17.1364V10.9149H14.9888V13.1968Z" fill="#2F2F2F"/>
</svg>
