<svg width="267" height="356" viewBox="0 0 267 356" fill="none" xmlns="http://www.w3.org/2000/svg">
<path d="M227.5 5C224.5 5.5 112.5 53.5 116.5 53.5C119.7 53.5 205.167 56.1667 247.5 57.5L128 119.5L227.5 116L123.5 191.5L247.5 180L85 268L197 271L133.5 352.5" stroke="white" stroke-opacity="0.5" stroke-width="10"/>
<mask id="path-2-inside-1_466_166" fill="white">
<path fill-rule="evenodd" clip-rule="evenodd" d="M88.8444 78.7176L111.055 86.5976L133.266 94.4776L139.486 92.8597C145.593 95.7309 158.108 103.352 159.314 110.866C160.187 116.301 159.295 126.233 158.553 134.496L158.552 134.496C158.012 140.513 157.551 145.644 157.909 147.51C157.961 147.779 158.042 148.159 158.145 148.639L158.145 148.641C159.731 156.049 166.398 187.189 147.205 200.986C133.378 210.926 129.185 196.182 125.577 183.494C123.852 177.427 122.26 171.83 119.813 169.627C118.322 168.284 116.089 166.837 113.445 165.375C110.277 166.996 106.473 167.36 102.855 166.077C98.487 164.527 95.4236 160.944 94.351 156.769C91.5823 155.696 89.0725 154.779 87.1069 154.097C84.5343 153.164 80.9743 151.952 77.0423 150.736C73.5208 153.716 68.5537 154.796 63.8926 153.142C60.2023 151.833 57.4432 149.072 56.0291 145.729C54.4846 145.554 53.0965 145.482 51.9271 145.542C48.6381 145.71 43.8748 149.052 38.7114 152.676C27.9137 160.252 15.3666 169.057 10.8959 152.626C4.68971 129.817 29.4915 109.842 35.3922 105.09L35.3923 105.089C35.7748 104.781 36.078 104.537 36.288 104.36C37.7416 103.137 40.618 98.8627 43.9905 93.8508C48.6219 86.9679 54.189 78.6945 58.2917 75.0245C63.9638 69.9506 78.4836 71.9213 85.0344 73.5409L88.8444 78.7176Z"/>
</mask>
<path fill-rule="evenodd" clip-rule="evenodd" d="M88.8444 78.7176L111.055 86.5976L133.266 94.4776L139.486 92.8597C145.593 95.7309 158.108 103.352 159.314 110.866C160.187 116.301 159.295 126.233 158.553 134.496L158.552 134.496C158.012 140.513 157.551 145.644 157.909 147.51C157.961 147.779 158.042 148.159 158.145 148.639L158.145 148.641C159.731 156.049 166.398 187.189 147.205 200.986C133.378 210.926 129.185 196.182 125.577 183.494C123.852 177.427 122.26 171.83 119.813 169.627C118.322 168.284 116.089 166.837 113.445 165.375C110.277 166.996 106.473 167.36 102.855 166.077C98.487 164.527 95.4236 160.944 94.351 156.769C91.5823 155.696 89.0725 154.779 87.1069 154.097C84.5343 153.164 80.9743 151.952 77.0423 150.736C73.5208 153.716 68.5537 154.796 63.8926 153.142C60.2023 151.833 57.4432 149.072 56.0291 145.729C54.4846 145.554 53.0965 145.482 51.9271 145.542C48.6381 145.71 43.8748 149.052 38.7114 152.676C27.9137 160.252 15.3666 169.057 10.8959 152.626C4.68971 129.817 29.4915 109.842 35.3922 105.09L35.3923 105.089C35.7748 104.781 36.078 104.537 36.288 104.36C37.7416 103.137 40.618 98.8627 43.9905 93.8508C48.6219 86.9679 54.189 78.6945 58.2917 75.0245C63.9638 69.9506 78.4836 71.9213 85.0344 73.5409L88.8444 78.7176Z" fill="white"/>
<path d="M111.055 86.5976L111.389 85.6552L111.055 86.5976ZM88.8444 78.7176L88.039 79.3103L88.2209 79.5574L88.51 79.66L88.8444 78.7176ZM133.266 94.4776L132.931 95.4201L133.22 95.5227L133.517 95.4454L133.266 94.4776ZM139.486 92.8597L139.912 91.9547L139.585 91.8009L139.235 91.8919L139.486 92.8597ZM159.314 110.866L158.327 111.024L158.327 111.024L159.314 110.866ZM158.553 134.496L159.541 134.648L159.546 134.617L159.549 134.585L158.553 134.496ZM158.552 134.496L157.564 134.344L157.559 134.375L157.556 134.407L158.552 134.496ZM157.909 147.51L158.891 147.322L158.891 147.322L157.909 147.51ZM158.145 148.639L157.167 148.848L157.168 148.854L158.145 148.639ZM158.145 148.641L159.123 148.431L159.122 148.426L158.145 148.641ZM147.205 200.986L146.621 200.174L146.621 200.174L147.205 200.986ZM125.577 183.494L126.539 183.221L126.539 183.221L125.577 183.494ZM119.813 169.627L120.482 168.884L120.482 168.884L119.813 169.627ZM113.445 165.375L113.929 164.5L113.463 164.242L112.989 164.485L113.445 165.375ZM94.351 156.769L95.3195 156.521L95.1917 156.023L94.7126 155.837L94.351 156.769ZM87.1069 154.097L86.7658 155.038L86.7726 155.04L86.7793 155.042L87.1069 154.097ZM77.0423 150.736L77.338 149.78L76.8146 149.618L76.3963 149.972L77.0423 150.736ZM56.0291 145.729L56.9501 145.34L56.7225 144.802L56.1421 144.736L56.0291 145.729ZM51.9271 145.542L51.876 144.543L51.876 144.543L51.9271 145.542ZM38.7114 152.676L38.137 151.857L38.137 151.857L38.7114 152.676ZM10.8959 152.626L11.8608 152.363L11.8608 152.363L10.8959 152.626ZM35.3922 105.09L34.8027 104.282L34.7835 104.296L34.765 104.311L35.3922 105.09ZM35.3923 105.089L35.9817 105.897L36.001 105.883L36.0195 105.868L35.3923 105.089ZM36.288 104.36L35.6442 103.595L35.6442 103.595L36.288 104.36ZM43.9905 93.8508L43.1608 93.2925L43.1608 93.2925L43.9905 93.8508ZM58.2917 75.0245L57.625 74.2792L57.625 74.2792L58.2917 75.0245ZM85.0344 73.5409L85.8398 72.9481L85.6255 72.6569L85.2744 72.5701L85.0344 73.5409ZM111.389 85.6552L89.1788 77.7751L88.51 79.66L110.721 87.5401L111.389 85.6552ZM133.6 93.5352L111.389 85.6552L110.721 87.5401L132.931 95.4201L133.6 93.5352ZM139.235 91.8919L133.014 93.5098L133.517 95.4454L139.738 93.8275L139.235 91.8919ZM160.302 110.708C159.963 108.597 158.846 106.554 157.35 104.665C155.848 102.769 153.918 100.969 151.859 99.338C147.743 96.0769 143.019 93.4155 139.912 91.9547L139.061 93.7646C142.061 95.1751 146.647 97.7598 150.617 100.906C152.601 102.478 154.407 104.171 155.782 105.907C157.163 107.65 158.063 109.378 158.327 111.024L160.302 110.708ZM159.549 134.585C159.919 130.458 160.33 125.889 160.538 121.67C160.745 117.469 160.756 113.536 160.302 110.708L158.327 111.024C158.745 113.631 158.746 117.382 158.54 121.571C158.334 125.743 157.928 130.271 157.557 134.406L159.549 134.585ZM159.541 134.648L159.541 134.648L157.564 134.344L157.564 134.344L159.541 134.648ZM158.891 147.322C158.74 146.535 158.752 144.917 158.892 142.62C159.029 140.37 159.278 137.599 159.548 134.586L157.556 134.407C157.287 137.41 157.035 140.213 156.896 142.499C156.76 144.739 156.72 146.619 156.927 147.698L158.891 147.322ZM159.122 148.429C159.019 147.945 158.94 147.578 158.891 147.322L156.927 147.698C156.981 147.981 157.065 148.374 157.167 148.848L159.122 148.429ZM159.122 148.426L159.121 148.424L157.168 148.854L157.168 148.856L159.122 148.426ZM147.788 201.798C157.747 194.639 160.925 183.03 161.466 172.469C162.007 161.891 159.917 152.142 159.123 148.431L157.167 148.85C157.959 152.548 159.995 162.073 159.469 172.367C158.941 182.677 155.855 193.536 146.621 200.174L147.788 201.798ZM124.615 183.768C125.515 186.932 126.464 190.271 127.597 193.326C128.726 196.372 130.065 199.212 131.779 201.351C133.504 203.505 135.669 205.017 138.424 205.228C141.146 205.435 144.234 204.353 147.788 201.798L146.621 200.174C143.262 202.589 140.641 203.391 138.576 203.233C136.543 203.078 134.841 201.975 133.34 200.1C131.825 198.21 130.575 195.606 129.472 192.63C128.371 189.662 127.443 186.401 126.539 183.221L124.615 183.768ZM119.144 170.37C120.175 171.298 121.116 173.046 122.03 175.465C122.932 177.851 123.749 180.723 124.615 183.768L126.539 183.221C125.68 180.199 124.839 177.239 123.901 174.758C122.976 172.311 121.898 170.159 120.482 168.884L119.144 170.37ZM112.961 166.25C115.584 167.701 117.738 169.104 119.144 170.37L120.482 168.884C118.905 167.464 116.593 165.974 113.929 164.5L112.961 166.25ZM112.989 164.485C110.056 165.986 106.538 166.322 103.189 165.134L102.52 167.019C106.409 168.399 110.498 168.007 113.9 166.265L112.989 164.485ZM103.189 165.134C99.1482 163.7 96.3129 160.387 95.3195 156.521L93.3824 157.018C94.5344 161.502 97.8259 165.353 102.52 167.019L103.189 165.134ZM86.7793 155.042C88.7327 155.72 91.2311 156.632 93.9894 157.702L94.7126 155.837C91.9334 154.759 89.4123 153.839 87.4346 153.153L86.7793 155.042ZM76.7467 151.691C80.6637 152.903 84.2086 154.11 86.7658 155.038L87.448 153.157C84.8601 152.218 81.2849 151.002 77.338 149.78L76.7467 151.691ZM63.5582 154.085C68.5683 155.862 73.9063 154.699 77.6883 151.499L76.3963 149.972C73.1353 152.732 68.5391 153.73 64.227 152.2L63.5582 154.085ZM55.1081 146.119C56.6269 149.709 59.5926 152.678 63.5582 154.085L64.227 152.2C60.8121 150.988 58.2594 148.435 56.9501 145.34L55.1081 146.119ZM51.9781 146.54C53.0734 146.484 54.4025 146.551 55.9161 146.723L56.1421 144.736C54.5667 144.557 53.1196 144.479 51.876 144.543L51.9781 146.54ZM39.2858 153.494C41.8775 151.676 44.3221 149.961 46.5256 148.677C48.7601 147.375 50.5927 146.611 51.9781 146.54L51.876 144.543C49.9725 144.64 47.779 145.632 45.5187 146.949C43.2275 148.284 40.7087 150.052 38.137 151.857L39.2858 153.494ZM9.93096 152.888C11.0802 157.112 12.7956 159.898 15.0404 161.453C17.3114 163.026 19.9453 163.216 22.643 162.631C25.3214 162.05 28.1506 160.689 30.9475 159.036C33.7517 157.378 36.593 155.384 39.2858 153.494L38.137 151.857C35.431 153.756 32.6547 155.703 29.9298 157.314C27.1975 158.929 24.5859 160.163 22.2191 160.676C19.8714 161.185 17.8554 160.97 16.179 159.809C14.4764 158.63 12.947 156.355 11.8608 152.363L9.93096 152.888ZM34.765 104.311C31.8096 106.691 24.0426 112.943 17.7964 121.497C11.5602 130.037 6.71074 141.053 9.93096 152.888L11.8608 152.363C8.87485 141.389 13.3232 131.014 19.4116 122.676C25.4898 114.352 33.0741 108.241 36.0195 105.868L34.765 104.311ZM34.8028 104.282L34.8027 104.282L35.9817 105.897L35.9817 105.897L34.8028 104.282ZM35.6442 103.595C35.4444 103.763 35.1515 103.999 34.765 104.311L36.0195 105.868C36.3982 105.563 36.7115 105.311 36.9319 105.126L35.6442 103.595ZM43.1608 93.2925C41.4719 95.8025 39.9186 98.1107 38.6064 99.9445C37.2677 101.815 36.2571 103.08 35.6442 103.595L36.9319 105.126C37.7725 104.418 38.927 102.933 40.2329 101.108C41.5655 99.246 43.1366 96.911 44.8202 94.409L43.1608 93.2925ZM57.625 74.2792C55.4896 76.1894 53.0199 79.2494 50.5329 82.6415C48.0353 86.0482 45.4742 89.8545 43.1608 93.2925L44.8202 94.409C47.1382 90.9642 49.6764 87.1924 52.1459 83.8241C54.626 80.4413 56.9912 77.5296 58.9584 75.7699L57.625 74.2792ZM85.2744 72.5701C81.9415 71.7461 76.596 70.8347 71.3453 70.7727C68.719 70.7417 66.0853 70.9227 63.7246 71.4483C61.3728 71.972 59.2184 72.8538 57.625 74.2792L58.9584 75.7699C60.201 74.6583 61.9887 73.8838 64.1593 73.4005C66.321 72.9192 68.7902 72.7427 71.3217 72.7726C76.3867 72.8324 81.5765 73.7161 84.7944 74.5116L85.2744 72.5701ZM89.6498 78.1248L85.8398 72.9481L84.2291 74.1336L88.039 79.3103L89.6498 78.1248Z" fill="black" mask="url(#path-2-inside-1_466_166)"/>
<path d="M52.4093 63.5313L59.4207 34.1706L81.3421 54.923L52.4093 63.5313Z" fill="white" stroke="black"/>
<circle cx="108.71" cy="150.823" r="9.13286" transform="rotate(19.534 108.71 150.823)" fill="white" stroke="black"/>
<circle cx="69.2393" cy="136.819" r="9.13286" transform="rotate(19.534 69.2393 136.819)" fill="white" stroke="black"/>
<circle cx="141.738" cy="127.877" r="5.7823" transform="rotate(19.534 141.738 127.877)" fill="white" stroke="black"/>
<circle cx="119.634" cy="120.035" r="5.7823" transform="rotate(19.534 119.634 120.035)" fill="white" stroke="black"/>
<path d="M134.786 144.965L157.653 140.634L157.602 143.283M157.602 143.283L149.492 144.849M157.602 143.283L157.412 146.326M157.412 146.326L153.554 147.179M157.412 146.326L158.036 148.325M158.036 148.325L150.715 150.171M158.036 148.325L158.52 150.719L155.451 151.852" stroke="black"/>
<path d="M25.8977 131.218L13.4199 132.569L12.5797 134.937M12.5797 134.937L20.2701 134.555M12.5797 134.937L11.5994 137.7M11.5994 137.7L17.4309 137.547M11.5994 137.7L11.2939 139.814L15.4065 139.495M14.2601 130.2C15.0037 130.109 30.3624 128.655 37.7515 127.869L14.2601 130.2Z" stroke="black" stroke-width="0.5"/>
<mask id="path-11-inside-2_466_166" fill="white">
<path fill-rule="evenodd" clip-rule="evenodd" d="M80.5624 93.63C80.9317 92.589 80.3872 91.4457 79.3462 91.0764L73.6428 89.0529C72.6019 88.6836 71.4586 89.2281 71.0892 90.269L69.906 93.6041C69.5367 94.6451 68.3934 95.1896 67.3524 94.8202L64.0175 93.6371C62.9765 93.2677 61.8332 93.8122 61.4639 94.8532L59.4404 100.557C59.0711 101.598 59.6156 102.741 60.6566 103.11L63.9914 104.293C65.0324 104.663 65.5769 105.806 65.2076 106.847L64.0243 110.182C63.655 111.223 64.1995 112.366 65.2405 112.736L70.9438 114.759C71.9848 115.129 73.1281 114.584 73.4975 113.543L74.6807 110.208C75.05 109.167 76.1933 108.622 77.2343 108.992L80.5696 110.175C81.6106 110.544 82.7539 110 83.1232 108.959L85.1467 103.256C85.5161 102.215 84.9716 101.071 83.9306 100.702L80.5953 99.5187C79.5543 99.1493 79.0098 98.006 79.3791 96.965L80.5624 93.63Z"/>
</mask>
<path fill-rule="evenodd" clip-rule="evenodd" d="M80.5624 93.63C80.9317 92.589 80.3872 91.4457 79.3462 91.0764L73.6428 89.0529C72.6019 88.6836 71.4586 89.2281 71.0892 90.269L69.906 93.6041C69.5367 94.6451 68.3934 95.1896 67.3524 94.8202L64.0175 93.6371C62.9765 93.2677 61.8332 93.8122 61.4639 94.8532L59.4404 100.557C59.0711 101.598 59.6156 102.741 60.6566 103.11L63.9914 104.293C65.0324 104.663 65.5769 105.806 65.2076 106.847L64.0243 110.182C63.655 111.223 64.1995 112.366 65.2405 112.736L70.9438 114.759C71.9848 115.129 73.1281 114.584 73.4975 113.543L74.6807 110.208C75.05 109.167 76.1933 108.622 77.2343 108.992L80.5696 110.175C81.6106 110.544 82.7539 110 83.1232 108.959L85.1467 103.256C85.5161 102.215 84.9716 101.071 83.9306 100.702L80.5953 99.5187C79.5543 99.1493 79.0098 98.006 79.3791 96.965L80.5624 93.63Z" fill="white"/>
<path d="M79.3791 96.965L80.3216 97.2994L79.3791 96.965ZM85.1467 103.256L84.2043 102.921L85.1467 103.256ZM83.9306 100.702L84.2649 99.7595L83.9306 100.702ZM80.5696 110.175L80.904 109.233L80.5696 110.175ZM77.2343 108.992L76.9 109.934L77.2343 108.992ZM64.0243 110.182L63.0819 109.848L64.0243 110.182ZM63.9914 104.293L63.6571 105.236L63.9914 104.293ZM60.6566 103.11L60.9909 102.168L60.6566 103.11ZM64.0175 93.6371L63.6831 94.5795L64.0175 93.6371ZM80.5624 93.63L79.6199 93.2956L80.5624 93.63ZM73.3085 89.9953L79.0118 92.0188L79.6806 90.1339L73.9772 88.1105L73.3085 89.9953ZM70.8484 93.9385L72.0317 90.6034L70.1468 89.9347L68.9636 93.2697L70.8484 93.9385ZM63.6831 94.5795L67.018 95.7627L67.6867 93.8778L64.3519 92.6946L63.6831 94.5795ZM60.3829 100.891L62.4063 95.1876L60.5214 94.5189L58.498 100.222L60.3829 100.891ZM64.3258 103.351L60.9909 102.168L60.3222 104.053L63.6571 105.236L64.3258 103.351ZM64.9668 110.516L66.15 107.181L64.2651 106.513L63.0819 109.848L64.9668 110.516ZM71.2782 113.817L65.5748 111.793L64.9061 113.678L70.6095 115.702L71.2782 113.817ZM73.7383 109.874L72.555 113.209L74.4399 113.877L75.6232 110.542L73.7383 109.874ZM80.904 109.233L77.5687 108.049L76.9 109.934L80.2353 111.118L80.904 109.233ZM84.2043 102.921L82.1808 108.625L84.0657 109.293L86.0892 103.59L84.2043 102.921ZM80.2609 100.461L83.5962 101.644L84.2649 99.7595L80.9296 98.5762L80.2609 100.461ZM79.6199 93.2956L78.4367 96.6307L80.3216 97.2994L81.5048 93.9644L79.6199 93.2956ZM80.9296 98.5762C80.4092 98.3915 80.1369 97.8199 80.3216 97.2994L78.4367 96.6307C77.8827 98.1922 78.6994 99.9071 80.2609 100.461L80.9296 98.5762ZM86.0892 103.59C86.6432 102.028 85.8264 100.314 84.2649 99.7595L83.5962 101.644C84.1167 101.829 84.3889 102.401 84.2043 102.921L86.0892 103.59ZM80.2353 111.118C81.7968 111.672 83.5117 110.855 84.0657 109.293L82.1808 108.625C81.9961 109.145 81.4245 109.417 80.904 109.233L80.2353 111.118ZM75.6232 110.542C75.8078 110.022 76.3795 109.75 76.9 109.934L77.5687 108.049C76.0072 107.495 74.2923 108.312 73.7383 109.874L75.6232 110.542ZM70.6095 115.702C72.171 116.256 73.8859 115.439 74.4399 113.877L72.555 113.209C72.3704 113.729 71.7987 114.001 71.2782 113.817L70.6095 115.702ZM63.0819 109.848C62.5279 111.409 63.3446 113.124 64.9061 113.678L65.5748 111.793C65.0543 111.609 64.7821 111.037 64.9668 110.516L63.0819 109.848ZM63.6571 105.236C64.1776 105.42 64.4498 105.992 64.2651 106.513L66.15 107.181C66.704 105.62 65.8873 103.905 64.3258 103.351L63.6571 105.236ZM58.498 100.222C57.944 101.784 58.7607 103.499 60.3222 104.053L60.9909 102.168C60.4704 101.983 60.1982 101.411 60.3829 100.891L58.498 100.222ZM64.3519 92.6946C62.7904 92.1406 61.0754 92.9574 60.5214 94.5189L62.4063 95.1876C62.591 94.6671 63.1626 94.3948 63.6831 94.5795L64.3519 92.6946ZM68.9636 93.2697C68.7789 93.7902 68.2072 94.0625 67.6867 93.8778L67.018 95.7627C68.5795 96.3167 70.2944 95.4999 70.8484 93.9385L68.9636 93.2697ZM79.0118 92.0188C79.5323 92.2035 79.8046 92.7751 79.6199 93.2956L81.5048 93.9644C82.0588 92.4029 81.2421 90.6879 79.6806 90.1339L79.0118 92.0188ZM73.9772 88.1105C72.4157 87.5565 70.7008 88.3732 70.1468 89.9347L72.0317 90.6034C72.2163 90.0829 72.788 89.8107 73.3085 89.9953L73.9772 88.1105Z" fill="black" mask="url(#path-11-inside-2_466_166)"/>
<rect x="176.019" y="101.523" width="33.3432" height="33.3432" transform="rotate(-18.6581 176.019 101.523)" fill="white" stroke="black"/>
<rect x="198.786" y="116.353" width="33.3432" height="33.3432" transform="rotate(39.0893 198.786 116.353)" fill="white" stroke="black"/>
<circle cx="134.607" cy="112.904" r="5.7823" transform="rotate(19.534 134.607 112.904)" fill="white" stroke="black"/>
<circle cx="126.764" cy="135.008" r="5.7823" transform="rotate(19.534 126.764 135.008)" fill="white" stroke="black"/>
<path d="M103.424 88.0645L87.2403 82.3229C87.2403 82.3229 85.1217 79.1336 83.7641 77.09C77.3002 75.6855 63.5575 73.9205 60.2982 78.0969C57.0388 82.2733 49.298 94.4884 45.835 100.074M33.8034 112.692C30.1748 115.405 22.4795 121.562 20.7277 124.496L36.2485 123.337" stroke="black"/>
</svg>
