<svg width="1925" height="934" viewBox="0 0 1925 934" fill="none" xmlns="http://www.w3.org/2000/svg">
<path d="M30.4697 112C36.9697 122.667 56.9697 142.6 84.9697 137C112.97 131.4 135.97 124.667 143.97 122C95.4697 140.333 4.8697 180.7 30.4697 195.5C56.0697 210.3 104.969 172 132.469 157C159.969 142 224.068 126.2 188.469 157C143.97 195.5 60.9678 234 72.9688 270" stroke="white" stroke-width="3"/>
<path d="M6.4697 105C12.9697 115.667 32.9697 135.6 60.9697 130C88.9697 124.4 111.97 117.667 119.97 115C71.4697 133.333 -19.1303 173.7 6.4697 188.5C32.0697 203.3 80.9688 165 108.469 150C135.969 135 200.068 119.2 164.469 150C119.97 188.5 36.9678 227 48.9688 263" stroke="white" stroke-width="3"/>
<path d="M1453.8 61.7437C1479.29 32.1568 1531.13 27.4202 1553.86 28.7504C1549.34 51.0689 1531.52 99.9762 1496.4 117.057C1461.28 134.139 1424.28 147.368 1410.17 151.847L1404.16 144.032L1398.14 136.217C1406.07 123.72 1428.32 91.3307 1453.8 61.7437Z" fill="white" stroke="black"/>
<path d="M1480.62 58.0096C1482.54 56.5293 1484.7 55.5723 1486.93 55.1164L1474.81 72.7524C1473.92 67.327 1475.96 61.5989 1480.62 58.0096ZM1484.17 84.519C1482.53 83.8487 1481 82.891 1479.65 81.6566L1479.65 81.1136C1479.66 81.0852 1479.68 81.0475 1479.71 80.9993C1479.78 80.8618 1479.9 80.666 1480.05 80.4146C1480.36 79.9133 1480.81 79.2094 1481.36 78.3483C1482.47 76.6271 1484.01 74.2885 1485.72 71.7086C1489.15 66.5494 1493.25 60.4315 1495.99 56.3715L1496.19 56.0792C1497.5 56.6479 1498.75 57.4039 1499.88 58.3416L1499.68 58.6676L1484.38 84.164L1484.17 84.519ZM1488.75 85.6213L1502.77 61.5106C1507.38 68.2208 1505.98 77.4424 1499.46 82.4692C1496.28 84.9149 1492.45 85.9321 1488.75 85.6213ZM1479.2 79.8923C1479.13 80.0114 1479.06 80.1207 1479 80.2193C1478.17 79.3732 1477.47 78.1564 1476.91 76.8846C1476.31 75.5064 1475.91 74.1189 1475.71 73.1966L1487.91 55.4597C1491.45 55.4829 1493.74 55.9735 1494.82 56.3279C1492.08 60.3793 1488.17 66.2078 1484.89 71.1559C1483.18 73.7366 1481.64 76.0795 1480.52 77.8061C1479.97 78.669 1479.51 79.3807 1479.2 79.8923ZM1485.52 84.2058L1500.28 59.6185C1500.54 59.8146 1500.81 60.0728 1501.07 60.355C1501.35 60.658 1501.6 60.9684 1501.78 61.2164L1487.94 85.0311C1487.59 84.979 1487.13 84.8429 1486.63 84.6601C1486.23 84.5156 1485.85 84.3523 1485.52 84.2058Z" fill="white" stroke="black"/>
<path d="M1372.64 85.693C1391.32 65.1779 1421.86 75.8109 1435.26 83.6849L1408.86 120.297C1404.44 117.014 1399.95 114.83 1395.48 113.528L1393.03 112.901L1390.76 112.471L1388.83 112.214L1386.57 112.036C1367.14 111.063 1349.23 124.392 1340.46 133.458C1343.41 126.084 1353.96 106.208 1372.64 85.693Z" fill="white"/>
<path d="M1395.48 113.528C1399.95 114.83 1404.44 117.014 1408.86 120.297L1435.26 83.6849C1421.86 75.8109 1391.32 65.1779 1372.64 85.693C1353.96 106.208 1343.41 126.084 1340.46 133.458C1349.23 124.392 1367.14 111.063 1386.57 112.036M1395.48 113.528L1404.92 98.0192M1395.48 113.528C1394.66 113.29 1393.84 113.081 1393.03 112.901M1395.48 113.528L1393.03 112.901M1393.03 112.901L1400.96 99.1523M1393.03 112.901C1392.27 112.734 1391.51 112.591 1390.76 112.471M1393.03 112.901L1390.76 112.471M1390.76 112.471L1397.56 100.286M1390.76 112.471C1390.11 112.369 1389.47 112.283 1388.83 112.214M1390.76 112.471L1388.83 112.214M1388.83 112.214L1394.72 101.419M1388.83 112.214C1388.07 112.132 1387.32 112.073 1386.57 112.036M1388.83 112.214L1386.57 112.036M1386.57 112.036L1391.33 103.118" stroke="black"/>
<path d="M1398.92 209.365C1406.8 208.405 1428.71 203.28 1453.32 190.461C1467.94 182.845 1473.09 168.054 1473.98 154.161C1474.08 152.592 1474.13 151.035 1474.13 149.5C1474.13 148.21 1474.1 146.936 1474.04 145.686C1473.73 139.425 1472.7 133.746 1471.52 129.518L1429.38 145.686C1429.75 146.63 1430.09 147.569 1430.4 148.5C1430.78 149.677 1431.11 150.844 1431.39 152C1433.13 159.321 1432.7 166.196 1430.87 172.5C1430.45 173.965 1429.94 175.399 1429.38 176.8C1423.05 192.421 1408.49 204.008 1398.92 209.365Z" fill="white"/>
<path d="M1431.39 152L1450.5 147.5M1431.39 152C1431.11 150.844 1430.78 149.677 1430.4 148.5M1431.39 152C1433.13 159.321 1432.7 166.196 1430.87 172.5M1474.04 145.686C1473.73 139.425 1472.7 133.746 1471.52 129.518L1429.38 145.686C1429.75 146.63 1430.09 147.569 1430.4 148.5M1474.04 145.686L1449.5 151M1474.04 145.686C1474.1 146.936 1474.13 148.21 1474.13 149.5M1474.13 149.5L1455.5 153.5M1474.13 149.5C1474.13 151.035 1474.08 152.592 1473.98 154.161M1473.98 154.161C1473.09 168.054 1467.94 182.845 1453.32 190.461C1428.71 203.28 1406.8 208.405 1398.92 209.365C1408.49 204.008 1423.05 192.421 1429.38 176.8M1473.98 154.161L1461.5 157M1430.4 148.5L1447 144.5M1430.87 172.5L1448.5 168M1430.87 172.5C1430.45 173.965 1429.94 175.399 1429.38 176.8M1429.38 176.8L1443.5 173" stroke="black"/>
<path d="M1537.55 33.353C1538.46 33.353 1545.57 33.353 1549 33.353C1544.42 43.3221 1532.73 66.8716 1522.65 81.3173C1519.6 81.1292 1513.03 81.2045 1511.2 83.0102C1508.9 85.2673 1519.79 86.9602 1517.5 90.9102C1515.21 94.8602 1501.46 107.839 1490 112.353" stroke="black"/>
<path d="M1426 97.5348L1443.05 111.353L1433.96 95.2318L1441.91 99.8379L1435.66 87.747L1443.05 92.353L1440.77 83.7167L1451 91.2015L1444.18 73.353" stroke="black"/>
<path d="M1869.58 777.211L1748.05 698.021L1702.36 765.782L1647.82 767.237L1645 771.087L1768.24 851.536L1822.66 849.339L1825.27 845.332L1869.58 777.211Z" fill="white"/>
<path d="M1702.36 765.782L1748.05 698.021L1869.58 777.211L1825.27 845.332M1702.36 765.782L1647.82 767.237M1702.36 765.782C1703.04 766.286 1784.58 819.025 1825.27 845.332M1647.82 767.237L1645 771.087L1768.24 851.536L1822.66 849.339L1825.27 845.332M1647.82 767.237L1771.06 847.686L1825.27 845.332M1865.23 778.632L1824.67 840.292L1707.13 764.676L1748.75 702.476L1865.23 778.632Z" stroke="black"/>
<path d="M1822.99 832.929L1857.74 779.704L1799.86 742.604L1765.71 795.737L1822.99 832.929Z" stroke="black"/>
<path d="M1759.13 790.921L1793.38 738.387L1748.8 709.975L1714.56 762.508L1759.13 790.921Z" stroke="black"/>
<path d="M1840.52 797.394L1849.21 784.087L1799.19 752.219L1790.76 765.179L1840.52 797.394Z" stroke="black"/>
<path d="M1828.79 814.851L1837.48 801.545L1787.46 769.676L1779.03 782.636L1828.79 814.851Z" stroke="black"/>
<path d="M1781.39 820.969L1792.49 828.121L1785.69 828.672M1781.39 820.969L1756.93 823.905M1781.39 820.969L1770.84 814.167M1756.93 823.905L1766.65 830.216L1776.17 829.444M1756.93 823.905L1747.75 817.946M1747.75 817.946L1770.84 814.167M1747.75 817.946L1736.42 810.583M1770.84 814.167L1759.48 806.841M1759.48 806.841L1736.42 810.583M1759.48 806.841L1748.92 800.038M1736.42 810.583L1726.7 804.273M1726.7 804.273L1748.92 800.038M1726.7 804.273L1716.44 797.612M1748.92 800.038L1739.45 793.933M1739.45 793.933L1716.44 797.612M1739.45 793.933L1729.71 787.653M1716.44 797.612L1708.07 792.178M1708.07 792.178L1729.71 787.653M1708.07 792.178L1697.13 784.833M1729.71 787.653L1720.51 781.723M1697.13 784.833L1687.29 778.68L1697.59 777.941M1697.13 784.833C1705.72 783.271 1711.52 782.614 1720.51 781.723M1720.51 781.723L1712.94 776.839L1707.89 777.201M1785.69 828.672C1784.89 828.737 1733.49 794.385 1707.89 777.201M1785.69 828.672L1776.17 829.444M1707.89 777.201L1697.59 777.941M1697.59 777.941L1776.17 829.444" stroke="black"/>
<path d="M1908.59 923.139C1898.44 916.594 1877.81 900.868 1876.49 890.322C1874.83 877.141 1893.25 861.285 1892.68 847.834C1892.11 834.383 1857.3 854.764 1851.02 880.512C1844.73 906.261 1829.79 920.334 1824.06 913.923C1818.32 907.513 1833.41 869.904 1841.24 862.435" stroke="white" stroke-width="3"/>
<path d="M1697.5 757.5C1693.5 753.667 1686.7 742.9 1691.5 730.5C1697.5 715 1709.5 695.5 1706.5 689C1703.5 682.5 1688 689.5 1678 702.5C1670 712.9 1651.33 711.833 1643 710" stroke="white" stroke-width="3"/>
<path d="M232.214 630.127C225.007 633.148 223.296 640.058 223.342 643.136L250.902 633.493C249.835 630.12 241.223 626.351 232.214 630.127Z" fill="white" stroke="black"/>
<path d="M227.422 632.57L212.633 612.203" stroke="black"/>
<path d="M373.277 721.29C383.573 718.652 403.072 708.157 398.696 687.28C396.759 678.036 400.09 670.734 405.896 666.05C416.481 657.512 435.289 657.68 445.384 670.661L438.551 678.387C432.717 671.271 422.948 668.016 417.124 672.224C413.904 674.551 411.89 679.157 412.411 686.653C414.242 712.973 400.844 729.268 377.81 735.624L373.277 721.29Z" fill="white"/>
<path d="M405.896 666.05C400.09 670.734 396.759 678.036 398.696 687.28C403.072 708.157 383.573 718.652 373.277 721.29L377.81 735.624C400.844 729.268 414.242 712.973 412.411 686.653C411.89 679.157 413.904 674.551 417.124 672.224M405.896 666.05C416.481 657.512 435.289 657.68 445.384 670.661L438.551 678.387C432.717 671.271 422.948 668.016 417.124 672.224M405.896 666.05L411.727 669.824L413.457 666.494L417.124 672.224" stroke="black"/>
<path d="M320.652 613.534L340.848 677.398C342.109 681.387 333.848 687.546 329.374 690.247C329.242 690.326 329.104 690.387 328.957 690.434L284.487 704.497L243.169 717.563L237.268 719.429C235.861 718.698 234.567 717.534 233.379 716.021C232.507 714.911 231.692 713.612 230.929 712.158C221.253 693.718 220.026 650.24 219.352 648.108C218.712 646.084 224.942 642.321 228.137 640.692L298.968 618.293L318.142 612.23C319.195 611.897 320.319 612.48 320.652 613.534Z" fill="white"/>
<path d="M228.137 640.692L248.333 704.557C248.666 705.61 249.79 706.194 250.843 705.861L340.848 677.398M228.137 640.692L298.968 618.293L318.142 612.23C319.195 611.897 320.319 612.48 320.652 613.534L340.848 677.398M228.137 640.692C224.942 642.321 218.712 646.084 219.352 648.108C220.026 650.24 221.253 693.718 230.929 712.158M340.848 677.398C342.109 681.387 333.847 687.546 329.374 690.247C329.242 690.326 329.104 690.387 328.957 690.434L284.487 704.497L243.169 717.563M237.268 719.429L244.719 707.797M237.268 719.429C235.861 718.698 234.567 717.534 233.379 716.021M237.268 719.429L233.379 716.021M237.268 719.429L243.169 717.563M233.379 716.021L239.703 706.601M233.379 716.021C232.507 714.911 231.692 713.612 230.929 712.158M233.379 716.021L230.929 712.158M230.929 712.158L234.953 706.248M243.169 717.563L247.472 710.637" stroke="black"/>
<path d="M291.931 728.112C291.931 728.112 287.111 715.724 283.067 705.872C279.696 697.663 297.264 692.109 299.664 699.697C302.647 709.129 306.265 723.579 306.265 723.579L291.931 728.112Z" fill="white" stroke="black"/>
<circle cx="358.544" cy="733.369" r="18.9564" transform="rotate(-17.5487 358.544 733.369)" fill="white" stroke="black"/>
<path d="M364.974 744.9C367.951 753.539 369.288 770.076 356.977 779.788C351.629 784.008 350.817 790.189 357.312 788.135C366.588 785.201 373.953 779.162 373.773 772.726M355.207 720.391C353.13 721.469 354.236 724.626 356.531 724.171M364.497 745.05L364.497 745.05L364.501 745.063C365.969 749.322 367.034 755.538 366.213 761.877C365.393 768.209 362.697 774.639 356.667 779.396C355.29 780.482 354.197 781.701 353.438 782.893C352.684 784.077 352.237 785.268 352.204 786.298C352.169 787.349 352.575 788.279 353.554 788.742C354.478 789.18 355.796 789.138 357.463 788.611C362.153 787.128 366.381 784.854 369.423 782.115C372.459 779.382 374.369 776.133 374.273 772.712L373.273 772.74C373.358 775.755 371.674 778.743 368.754 781.372C365.84 783.995 361.747 786.208 357.162 787.658C355.581 788.158 354.565 788.114 353.982 787.838C353.453 787.589 353.178 787.095 353.203 786.33C353.229 785.544 353.582 784.527 354.281 783.43C354.976 782.34 355.99 781.204 357.287 780.181C363.568 775.226 366.359 768.531 367.205 762.006C368.048 755.492 366.957 749.123 365.448 744.743L359.33 725.394C358.942 724.169 357.695 723.431 356.434 723.681C354.706 724.023 353.873 721.646 355.437 720.835L361.154 717.87L360.693 716.983L354.977 719.948C352.386 721.291 353.766 725.229 356.629 724.661C357.39 724.511 358.142 724.956 358.376 725.696L364.497 745.05ZM247.758 737.042L348.426 705.207C353.429 703.625 358.766 706.398 360.348 711.401L383.117 783.399C384.699 788.402 381.926 793.74 376.923 795.322L276.255 827.157C271.252 828.739 265.915 825.966 264.333 820.963L241.564 748.964C239.982 743.962 242.755 738.624 247.758 737.042Z" fill="white" stroke="black"/>
<path d="M262.462 790.303C270.614 787.726 280.514 783.515 283.716 772.452C287.262 760.2 278.513 747.198 268.48 744.805C264.468 743.848 311.218 730.363 335.095 723.74" stroke="black"/>
<circle cx="254.636" cy="767.734" r="18.9564" transform="rotate(-17.5487 254.636 767.734)" fill="white" stroke="black"/>
<path d="M313.971 829.667L320.81 839.562C314.075 845.626 303.054 853.011 290.168 857.387C272.668 863.332 251.729 863.726 233.419 847.72C214.999 831.618 219.338 806.015 228.052 786.755C228.632 785.471 229.233 784.216 229.847 782.994C230.542 781.609 231.256 780.267 231.979 778.973C232.575 777.907 233.178 776.875 233.784 775.879C234.44 774.8 235.099 773.765 235.755 772.777C240.176 766.127 244.468 761.674 246.909 760.902C256.185 757.969 262.491 766.178 257.345 773.37C252.199 780.563 223.48 814.536 243.933 836.975C255.051 849.172 270.397 849.432 284.47 845.235C296.286 841.711 307.205 835.046 313.971 829.667Z" fill="white"/>
<path d="M235.755 772.777C240.176 766.127 244.468 761.674 246.909 760.902C256.185 757.969 262.491 766.178 257.345 773.37C252.199 780.563 223.48 814.536 243.933 836.975C255.051 849.172 270.397 849.432 284.47 845.235M235.755 772.777C238.514 771.905 244.415 770.781 245.943 773.266M235.755 772.777C235.099 773.765 234.44 774.8 233.784 775.879M233.784 775.879C236.431 775.453 242.055 775.052 243.37 776.862M233.784 775.879C233.178 776.875 232.575 777.907 231.979 778.973M231.979 778.973C233.809 778.892 238.018 779.297 240.22 781.568M231.979 778.973C231.256 780.267 230.542 781.609 229.847 782.994M229.847 782.994C232.18 782.874 237.008 783.141 237.647 785.165M229.847 782.994C229.233 784.216 228.632 785.471 228.052 786.755M228.052 786.755C219.338 806.015 214.999 831.618 233.419 847.72C251.729 863.726 272.668 863.332 290.168 857.387M228.052 786.755C230.215 786.861 234.87 787.527 236.184 789.337M284.47 845.235C296.286 841.711 307.205 835.046 313.971 829.667L320.81 839.562C314.075 845.626 303.054 853.011 290.168 857.387M284.47 845.235L284.723 851.902L290.359 849.192L290.168 857.387" stroke="black"/>
<path d="M320.715 839.592L313.876 829.697C309.703 828.234 310.762 813.986 312.672 817.092C313.662 813.378 317.266 805.807 323.764 805.237L328.16 810.339C324.922 812.6 319.076 817.479 321.595 818.908C329.372 822.385 332.148 829.793 332.564 833.063L338.286 824.761L344.679 827.377C344.073 830.351 341.451 837.116 335.807 840.385C330.162 843.654 323.394 841.219 320.715 839.592Z" fill="white"/>
<path d="M335.807 840.385C330.162 843.654 323.394 841.219 320.715 839.592L313.876 829.697C309.703 828.234 310.762 813.986 312.672 817.092M335.807 840.385C341.451 837.116 344.073 830.351 344.679 827.377L338.286 824.761L332.564 833.063M335.807 840.385C333.57 840.351 332.713 835.489 332.564 833.063M332.564 833.063C332.148 829.793 329.372 822.385 321.595 818.908M321.595 818.908C319.257 819.338 314.2 819.577 312.672 817.092M321.595 818.908C319.076 817.479 324.922 812.6 328.16 810.339L323.764 805.237C317.266 805.807 313.662 813.378 312.672 817.092" stroke="black"/>
<path d="M447.097 668.155L440.077 677.923C435.878 679.309 436.676 693.574 438.642 690.504C439.564 694.235 443.028 701.871 449.515 702.561L454.003 697.539C450.807 695.22 445.052 690.234 447.597 688.851C455.437 685.518 458.348 678.162 458.823 674.9L464.393 683.306L470.832 680.808C470.281 677.823 467.784 671.011 462.2 667.639C456.617 664.267 449.805 666.578 447.097 668.155Z" fill="white"/>
<path d="M462.2 667.639C456.617 664.267 449.805 666.578 447.097 668.155L440.077 677.923C435.878 679.309 436.676 693.574 438.642 690.504M462.2 667.639C467.784 671.011 470.281 677.823 470.832 680.808L464.393 683.306L458.823 674.9M462.2 667.639C459.963 667.632 459.017 672.477 458.823 674.9M458.823 674.9C458.348 678.162 455.437 685.518 447.597 688.851M447.597 688.851C445.267 688.378 440.216 688.047 438.642 690.504M447.597 688.851C445.052 690.234 450.807 695.22 454.003 697.539L449.515 702.561C443.028 701.871 439.564 694.235 438.642 690.504" stroke="black"/>
<circle cx="209.88" cy="609.363" r="4.80629" transform="rotate(-17.5487 209.88 609.363)" fill="white" stroke="black"/>
<rect x="240.344" y="633.646" width="27.3002" height="25.5315" transform="rotate(-17.5487 240.344 633.646)" fill="white" stroke="black"/>
<rect x="282.506" y="620.313" width="23.7627" height="25.5315" transform="rotate(-17.5487 282.506 620.313)" fill="white" stroke="black"/>
<rect x="292.529" y="618.474" width="12.3813" height="12.3813" transform="rotate(-17.5487 292.529 618.474)" fill="#1E1E1E"/>
<rect x="253.742" y="630.74" width="12.3813" height="12.3813" transform="rotate(-17.5487 253.742 630.74)" fill="#1E1E1E"/>
<rect x="257.756" y="665.241" width="55.6004" height="9.61258" transform="rotate(-17.5487 257.756 665.241)" fill="white" stroke="black"/>
<rect x="267.876" y="662.042" width="13.1501" height="9.61258" transform="rotate(-17.5487 267.876 662.042)" fill="white" stroke="black"/>
<rect x="289.799" y="655.109" width="13.1501" height="9.61258" transform="rotate(-17.5487 289.799 655.109)" fill="white" stroke="black"/>
</svg>
